M48
; DRILL file {KiCad 9.0.2} date 2025-07-13T16:57:11+0530
; FORMAT={-:-/ absolute / metric / decimal}
; #@! TF.CreationDate,2025-07-13T16:57:11+05:30
; #@! TF.GenerationSoftware,Kicad,Pcbnew,9.0.2
; #@! TF.FileFunction,Plated,1,2,PTH
FMAT,2
METRIC
; #@! TA.AperFunction,Plated,PTH,ComponentDrill
T1C0.300
; #@! TA.AperFunction,Plated,PTH,ComponentDrill
T2C0.750
; #@! TA.AperFunction,Plated,PTH,ComponentDrill
T3C0.800
; #@! TA.AperFunction,Plated,PTH,ComponentDrill
T4C0.813
; #@! TA.AperFunction,Plated,PTH,ComponentDrill
T5C1.000
; #@! TA.AperFunction,Plated,PTH,ComponentDrill
T6C1.100
; #@! TA.AperFunction,Plated,PTH,ComponentDrill
T7C1.300
; #@! TA.AperFunction,Plated,PTH,ComponentDrill
T8C1.500
%
G90
G05
T1
X28.75Y-76.56
X29.0Y-133.65
X29.02Y-114.62
X29.95Y-71.41
X29.95Y-72.91
X29.95Y-90.435
X29.95Y-91.935
X29.95Y-109.46
X29.95Y-110.96
X29.95Y-128.485
X29.95Y-129.985
X29.95Y-147.51
X29.95Y-149.01
X30.19Y-76.56
X30.44Y-133.65
X30.46Y-114.62
X34.25Y-71.41
X34.25Y-72.91
X34.25Y-90.435
X34.25Y-91.935
X34.25Y-109.46
X34.25Y-110.96
X34.25Y-128.485
X34.25Y-129.985
X34.25Y-147.51
X34.25Y-149.01
X40.4Y-56.26
X40.71Y-77.65
X40.79Y-133.25
X40.79Y-134.55
X42.31Y-76.35
X42.31Y-77.65
X42.39Y-133.25
X48.975Y-71.41
X48.975Y-72.91
X48.975Y-90.435
X48.975Y-91.935
X48.975Y-109.46
X48.975Y-110.96
X48.975Y-128.485
X48.975Y-129.985
X48.975Y-147.51
X48.975Y-149.01
X53.275Y-71.41
X53.275Y-72.91
X53.275Y-90.435
X53.275Y-91.935
X53.275Y-109.46
X53.275Y-110.96
X53.275Y-128.485
X53.275Y-129.985
X53.275Y-147.51
X53.275Y-149.01
X68.0Y-71.41
X68.0Y-72.91
X68.0Y-90.435
X68.0Y-91.935
X68.0Y-109.46
X68.0Y-110.96
X68.0Y-128.485
X68.0Y-129.985
X68.0Y-147.51
X68.0Y-149.01
X72.3Y-71.41
X72.3Y-72.91
X72.3Y-90.435
X72.3Y-91.935
X72.3Y-109.46
X72.3Y-110.96
X72.3Y-128.485
X72.3Y-129.985
X72.3Y-147.51
X72.3Y-149.01
X87.025Y-71.41
X87.025Y-72.91
X87.025Y-90.435
X87.025Y-91.935
X87.025Y-109.46
X87.025Y-110.96
X87.025Y-128.485
X87.025Y-129.985
X87.025Y-147.51
X87.025Y-149.01
X91.325Y-71.41
X91.325Y-72.91
X91.325Y-90.435
X91.325Y-91.935
X91.325Y-109.46
X91.325Y-110.96
X91.325Y-128.485
X91.325Y-129.985
X91.325Y-147.51
X91.325Y-149.01
X106.05Y-71.41
X106.05Y-72.91
X106.05Y-90.435
X106.05Y-91.935
X106.05Y-109.46
X106.05Y-110.96
X106.05Y-128.485
X106.05Y-129.985
X106.05Y-147.51
X106.05Y-149.01
X110.35Y-71.41
X110.35Y-72.91
X110.35Y-90.435
X110.35Y-91.935
X110.35Y-109.46
X110.35Y-110.96
X110.35Y-128.485
X110.35Y-129.985
X110.35Y-147.51
X110.35Y-149.01
X116.347Y-77.65
X116.37Y-133.25
X116.37Y-134.55
X117.947Y-76.35
X117.947Y-77.65
X117.97Y-133.25
X125.075Y-71.41
X125.075Y-72.91
X125.075Y-90.435
X125.075Y-91.935
X125.075Y-109.46
X125.075Y-110.96
X125.075Y-128.485
X125.075Y-129.985
X125.075Y-147.51
X125.075Y-149.01
X129.375Y-71.41
X129.375Y-72.91
X129.375Y-90.435
X129.375Y-91.935
X129.375Y-109.46
X129.375Y-110.96
X129.375Y-128.485
X129.375Y-129.985
X129.375Y-147.51
X129.375Y-149.01
X144.1Y-71.41
X144.1Y-72.91
X144.1Y-90.435
X144.1Y-91.935
X144.1Y-109.46
X144.1Y-110.96
X144.1Y-128.485
X144.1Y-129.985
X144.1Y-147.51
X144.1Y-149.01
X148.4Y-71.41
X148.4Y-72.91
X148.4Y-90.435
X148.4Y-91.935
X148.4Y-109.46
X148.4Y-110.96
X148.4Y-128.485
X148.4Y-129.985
X148.4Y-147.51
X148.4Y-149.01
X163.125Y-71.41
X163.125Y-72.91
X163.125Y-90.435
X163.125Y-91.935
X163.125Y-109.46
X163.125Y-110.96
X163.125Y-128.485
X163.125Y-129.985
X163.125Y-147.51
X163.125Y-149.01
X163.145Y-44.265
X163.145Y-52.065
X164.425Y-44.265
X164.425Y-52.065
X165.685Y-44.265
X165.685Y-52.065
X166.955Y-44.265
X166.955Y-52.065
X167.425Y-71.41
X167.425Y-72.91
X167.425Y-90.435
X167.425Y-91.935
X167.425Y-109.46
X167.425Y-110.96
X167.425Y-128.485
X167.425Y-129.985
X167.425Y-147.51
X167.425Y-149.01
X168.235Y-44.265
X168.235Y-52.065
X169.505Y-44.265
X169.505Y-52.065
X170.765Y-44.265
X170.765Y-52.065
X172.045Y-44.265
X172.045Y-52.065
X173.46Y-77.65
X173.53Y-133.25
X173.53Y-134.55
X175.06Y-76.35
X175.06Y-77.65
X175.13Y-133.25
X179.609Y-44.265
X179.609Y-52.065
X180.889Y-44.265
X180.889Y-52.065
X182.149Y-44.265
X182.149Y-52.065
X182.15Y-71.41
X182.15Y-72.91
X182.15Y-90.435
X182.15Y-91.935
X182.15Y-109.46
X182.15Y-110.96
X182.15Y-128.485
X182.15Y-129.985
X182.15Y-147.51
X182.15Y-149.01
X183.419Y-44.265
X183.419Y-52.065
X184.699Y-44.265
X184.699Y-52.065
X185.969Y-44.265
X185.969Y-52.065
X186.45Y-71.41
X186.45Y-72.91
X186.45Y-90.435
X186.45Y-91.935
X186.45Y-109.46
X186.45Y-110.96
X186.45Y-128.485
X186.45Y-129.985
X186.45Y-147.51
X186.45Y-149.01
X187.229Y-44.265
X187.229Y-52.065
X188.509Y-44.265
X188.509Y-52.065
X201.175Y-71.41
X201.175Y-72.91
X201.175Y-90.435
X201.175Y-91.935
X201.175Y-109.46
X201.175Y-110.96
X201.175Y-128.485
X201.175Y-129.985
X201.175Y-147.51
X201.175Y-149.01
X205.475Y-71.41
X205.475Y-72.91
X205.475Y-90.435
X205.475Y-91.935
X205.475Y-109.46
X205.475Y-110.96
X205.475Y-128.485
X205.475Y-129.985
X205.475Y-147.51
X205.475Y-149.01
X220.2Y-71.41
X220.2Y-72.91
X220.2Y-90.435
X220.2Y-91.935
X220.2Y-109.46
X220.2Y-110.96
X220.2Y-128.485
X220.2Y-129.985
X220.2Y-147.51
X220.2Y-149.01
X224.5Y-71.41
X224.5Y-72.91
X224.5Y-90.435
X224.5Y-91.935
X224.5Y-109.46
X224.5Y-110.96
X224.5Y-128.485
X224.5Y-129.985
X224.5Y-147.51
X224.5Y-149.01
X239.225Y-71.41
X239.225Y-72.91
X239.225Y-90.435
X239.225Y-91.935
X239.225Y-109.46
X239.225Y-110.96
X239.225Y-128.485
X239.225Y-129.985
X239.225Y-147.51
X239.225Y-149.01
X239.438Y-50.61
X243.525Y-71.41
X243.525Y-72.91
X243.525Y-90.435
X243.525Y-91.935
X243.525Y-109.46
X243.525Y-110.96
X243.525Y-128.485
X243.525Y-129.985
X243.525Y-147.51
X243.525Y-149.01
X243.557Y-50.61
X249.63Y-133.25
X249.63Y-134.55
X249.96Y-77.65
X251.23Y-133.25
X251.56Y-76.35
X251.56Y-77.65
X255.43Y-133.73
X256.87Y-133.73
X258.25Y-71.41
X258.25Y-72.91
X258.25Y-90.435
X258.25Y-91.935
X258.25Y-109.46
X258.25Y-110.96
X258.25Y-128.485
X258.25Y-129.985
X258.25Y-147.51
X258.25Y-149.01
X260.625Y-95.58
X261.89Y-133.73
X262.065Y-95.58
X262.55Y-71.41
X262.55Y-72.91
X262.55Y-90.435
X262.55Y-91.935
X262.55Y-109.46
X262.55Y-110.96
X262.55Y-128.485
X262.55Y-129.985
X262.55Y-147.51
X262.55Y-149.01
X263.33Y-133.73
T2
X38.07Y-53.58
X43.07Y-53.58
X45.65Y-42.39
X50.65Y-42.39
X53.69Y-42.39
X58.69Y-42.39
X160.699Y-45.665
X160.699Y-50.665
X177.139Y-45.665
X177.139Y-50.665
X236.91Y-47.24
X236.91Y-52.24
X260.2Y-57.54
X265.2Y-57.54
T3
X27.15Y-54.26
X34.77Y-54.26
X40.16Y-64.77
X40.16Y-72.39
X40.16Y-83.795
X40.16Y-91.415
X40.16Y-102.82
X40.16Y-110.44
X40.16Y-121.845
X40.16Y-129.465
X40.16Y-140.87
X40.16Y-148.49
X43.035Y-64.77
X43.035Y-72.39
X43.035Y-83.795
X43.035Y-91.415
X43.035Y-102.82
X43.035Y-110.44
X43.035Y-121.845
X43.035Y-129.465
X43.035Y-140.87
X43.035Y-148.49
X46.66Y-47.57
X46.66Y-55.19
X49.71Y-45.63
X49.71Y-53.25
X55.15Y-47.57
X55.15Y-55.19
X58.26Y-45.63
X58.26Y-53.25
X61.86Y-64.77
X61.86Y-72.39
X61.86Y-83.795
X61.86Y-91.415
X61.86Y-102.82
X61.86Y-110.44
X61.86Y-121.845
X61.86Y-129.465
X61.86Y-140.87
X61.86Y-148.49
X80.885Y-64.77
X80.885Y-72.39
X80.885Y-83.795
X80.885Y-91.415
X80.885Y-102.82
X80.885Y-110.44
X80.885Y-121.845
X80.885Y-129.465
X80.885Y-140.87
X80.885Y-148.49
X99.91Y-64.77
X99.91Y-72.39
X99.91Y-83.795
X99.91Y-91.415
X99.91Y-102.82
X99.91Y-110.44
X99.91Y-121.845
X99.91Y-129.465
X99.91Y-140.87
X99.91Y-148.49
X118.935Y-64.77
X118.935Y-72.39
X118.935Y-83.795
X118.935Y-91.415
X118.935Y-102.82
X118.935Y-110.44
X118.935Y-121.845
X118.935Y-129.465
X118.935Y-140.87
X118.935Y-148.49
X137.96Y-64.77
X137.96Y-72.39
X137.96Y-83.795
X137.96Y-91.415
X137.96Y-102.82
X137.96Y-110.44
X137.96Y-121.845
X137.96Y-129.465
X137.96Y-140.87
X137.96Y-148.49
X156.986Y-64.77
X156.986Y-72.39
X156.986Y-83.795
X156.986Y-91.415
X156.986Y-102.82
X156.986Y-110.44
X156.986Y-121.845
X156.986Y-129.465
X156.986Y-140.87
X156.986Y-148.49
X176.01Y-64.77
X176.01Y-72.39
X176.01Y-83.795
X176.01Y-91.415
X176.01Y-102.82
X176.01Y-110.44
X176.01Y-121.845
X176.01Y-129.465
X176.01Y-140.87
X176.01Y-148.49
X195.035Y-64.77
X195.035Y-72.39
X195.035Y-83.795
X195.035Y-91.415
X195.035Y-102.82
X195.035Y-110.44
X195.035Y-121.845
X195.035Y-129.465
X195.035Y-140.87
X195.035Y-148.49
X214.06Y-64.77
X214.06Y-72.39
X214.06Y-83.795
X214.06Y-91.415
X214.06Y-102.82
X214.06Y-110.44
X214.06Y-121.845
X214.06Y-129.465
X214.06Y-140.87
X214.06Y-148.49
X222.752Y-52.45
X223.07Y-42.34
X224.752Y-52.45
X226.752Y-52.45
X230.69Y-42.34
X233.085Y-64.77
X233.085Y-72.39
X233.085Y-83.795
X233.085Y-91.415
X233.085Y-102.82
X233.085Y-110.44
X233.085Y-121.845
X233.085Y-129.465
X233.085Y-140.87
X233.085Y-148.49
X236.21Y-44.3
X243.83Y-44.3
X245.62Y-51.8
X252.111Y-64.77
X252.111Y-72.39
X252.111Y-83.795
X252.111Y-91.415
X252.111Y-102.82
X252.111Y-110.44
X252.111Y-121.845
X252.111Y-129.465
X252.111Y-140.87
X252.111Y-148.49
X252.32Y-45.92
X252.32Y-47.92
X253.24Y-51.8
T4
X212.65Y-38.73
X212.65Y-41.27
X212.65Y-43.81
X212.65Y-46.35
X215.19Y-38.73
X215.19Y-41.27
X215.19Y-43.81
X215.19Y-46.35
X219.63Y-39.79
X219.63Y-42.33
X219.63Y-44.87
X219.63Y-47.41
X233.57Y-39.36
X233.57Y-41.9
X233.57Y-44.44
X233.57Y-46.98
X233.57Y-49.52
X233.57Y-52.06
X233.57Y-54.6
X236.11Y-39.36
X236.11Y-41.9
X236.11Y-54.6
X238.65Y-39.36
X238.65Y-54.6
X241.19Y-39.36
X241.19Y-54.6
X243.73Y-39.36
X243.73Y-54.6
X246.27Y-39.36
X246.27Y-54.6
X248.81Y-39.36
X248.81Y-54.6
X251.35Y-39.36
X251.35Y-54.6
X253.89Y-39.36
X253.89Y-54.6
X256.43Y-39.36
X256.43Y-45.71
X256.43Y-48.25
X256.43Y-54.6
X258.97Y-39.36
X258.97Y-54.6
X261.51Y-39.36
X261.51Y-54.6
X264.05Y-39.36
X264.05Y-54.6
T5
X27.41Y-42.442
X27.41Y-47.442
X41.91Y-42.442
X41.91Y-44.942
X41.91Y-47.442
T6
X134.86Y-43.68
X134.86Y-48.18
X141.36Y-43.68
X141.36Y-48.18
T7
X220.653Y-52.45
X228.852Y-52.45
T8
X28.29Y-64.54
X28.29Y-83.565
X28.29Y-102.59
X28.29Y-121.615
X28.29Y-140.64
X34.64Y-62.0
X34.64Y-81.025
X34.64Y-100.05
X34.64Y-119.075
X34.64Y-138.1
X47.315Y-64.54
X47.315Y-83.565
X47.315Y-102.59
X47.315Y-121.615
X47.315Y-140.64
X53.665Y-62.0
X53.665Y-81.025
X53.665Y-100.05
X53.665Y-119.075
X53.665Y-138.1
X66.34Y-64.54
X66.34Y-83.565
X66.34Y-102.59
X66.34Y-121.615
X66.34Y-140.64
X72.69Y-62.0
X72.69Y-81.025
X72.69Y-100.05
X72.69Y-119.075
X72.69Y-138.1
X85.365Y-64.54
X85.365Y-83.565
X85.365Y-102.59
X85.365Y-121.615
X85.365Y-140.64
X91.715Y-62.0
X91.715Y-81.025
X91.715Y-100.05
X91.715Y-119.075
X91.715Y-138.1
X104.39Y-64.54
X104.39Y-83.565
X104.39Y-102.59
X104.39Y-121.615
X104.39Y-140.64
X110.74Y-62.0
X110.74Y-81.025
X110.74Y-100.05
X110.74Y-119.075
X110.74Y-138.1
X123.415Y-64.54
X123.415Y-83.565
X123.415Y-102.59
X123.415Y-121.615
X123.415Y-140.64
X129.765Y-62.0
X129.765Y-81.025
X129.765Y-100.05
X129.765Y-119.075
X129.765Y-138.1
X142.44Y-64.54
X142.44Y-83.565
X142.44Y-102.59
X142.44Y-121.615
X142.44Y-140.64
X148.79Y-62.0
X148.79Y-81.025
X148.79Y-100.05
X148.79Y-119.075
X148.79Y-138.1
X161.465Y-64.54
X161.465Y-83.565
X161.465Y-102.59
X161.465Y-121.615
X161.465Y-140.64
X167.815Y-62.0
X167.815Y-81.025
X167.815Y-100.05
X167.815Y-119.075
X167.815Y-138.1
X180.49Y-64.54
X180.49Y-83.565
X180.49Y-102.59
X180.49Y-121.615
X180.49Y-140.64
X186.84Y-62.0
X186.84Y-81.025
X186.84Y-100.05
X186.84Y-119.075
X186.84Y-138.1
X199.515Y-64.54
X199.515Y-83.565
X199.515Y-102.59
X199.515Y-121.615
X199.515Y-140.64
X205.865Y-62.0
X205.865Y-81.025
X205.865Y-100.05
X205.865Y-119.075
X205.865Y-138.1
X218.54Y-64.54
X218.54Y-83.565
X218.54Y-102.59
X218.54Y-121.615
X218.54Y-140.64
X224.89Y-62.0
X224.89Y-81.025
X224.89Y-100.05
X224.89Y-119.075
X224.89Y-138.1
X237.565Y-64.54
X237.565Y-83.565
X237.565Y-102.59
X237.565Y-121.615
X237.565Y-140.64
X243.915Y-62.0
X243.915Y-81.025
X243.915Y-100.05
X243.915Y-119.075
X243.915Y-138.1
X256.59Y-64.54
X256.59Y-83.565
X256.59Y-102.59
X256.59Y-121.615
X256.59Y-140.64
X262.94Y-62.0
X262.94Y-81.025
X262.94Y-100.05
X262.94Y-119.075
X262.94Y-138.1
T8
G00X35.06Y-39.342
M15
G01X33.76Y-39.342
M16
G05
G00X35.06Y-50.542
M15
G01X33.76Y-50.542
M16
G05
M30
