G04 #@! TF.GenerationSoftware,KiCad,Pcbnew,9.0.2*
G04 #@! TF.CreationDate,2025-07-13T16:57:08+05:30*
G04 #@! TF.ProjectId,pcb,7063622e-6b69-4636-9164-5f7063625858,rev?*
G04 #@! TF.SameCoordinates,Original*
G04 #@! TF.FileFunction,Paste,Top*
G04 #@! TF.FilePolarity,Positive*
%FSLAX46Y46*%
G04 Gerber Fmt 4.6, Leading zero omitted, Abs format (unit mm)*
G04 Created by KiCad (PCBNEW 9.0.2) date 2025-07-13 16:57:08*
%MOMM*%
%LPD*%
G01*
G04 APERTURE LIST*
G04 Aperture macros list*
%AMRoundRect*
0 Rectangle with rounded corners*
0 $1 Rounding radius*
0 $2 $3 $4 $5 $6 $7 $8 $9 X,Y pos of 4 corners*
0 Add a 4 corners polygon primitive as box body*
4,1,4,$2,$3,$4,$5,$6,$7,$8,$9,$2,$3,0*
0 Add four circle primitives for the rounded corners*
1,1,$1+$1,$2,$3*
1,1,$1+$1,$4,$5*
1,1,$1+$1,$6,$7*
1,1,$1+$1,$8,$9*
0 Add four rect primitives between the rounded corners*
20,1,$1+$1,$2,$3,$4,$5,0*
20,1,$1+$1,$4,$5,$6,$7,0*
20,1,$1+$1,$6,$7,$8,$9,0*
20,1,$1+$1,$8,$9,$2,$3,0*%
G04 Aperture macros list end*
%ADD10R,2.000000X1.250000*%
%ADD11R,1.350000X3.800000*%
%ADD12R,0.600000X2.000000*%
%ADD13RoundRect,0.150000X-0.762500X-0.150000X0.762500X-0.150000X0.762500X0.150000X-0.762500X0.150000X0*%
%ADD14RoundRect,0.250000X0.300000X-0.300000X0.300000X0.300000X-0.300000X0.300000X-0.300000X-0.300000X0*%
%ADD15RoundRect,0.250000X-0.300000X-0.300000X0.300000X-0.300000X0.300000X0.300000X-0.300000X0.300000X0*%
%ADD16RoundRect,0.250001X0.499999X0.924999X-0.499999X0.924999X-0.499999X-0.924999X0.499999X-0.924999X0*%
%ADD17RoundRect,0.339622X-0.710378X-0.560378X0.710378X-0.560378X0.710378X0.560378X-0.710378X0.560378X0*%
%ADD18RoundRect,0.250001X-0.499999X-0.924999X0.499999X-0.924999X0.499999X0.924999X-0.499999X0.924999X0*%
%ADD19RoundRect,0.250000X0.625000X-0.400000X0.625000X0.400000X-0.625000X0.400000X-0.625000X-0.400000X0*%
%ADD20RoundRect,0.250000X-0.400000X-0.625000X0.400000X-0.625000X0.400000X0.625000X-0.400000X0.625000X0*%
%ADD21RoundRect,0.339622X-0.560378X0.710378X-0.560378X-0.710378X0.560378X-0.710378X0.560378X0.710378X0*%
%ADD22RoundRect,0.339622X0.560378X-0.710378X0.560378X0.710378X-0.560378X0.710378X-0.560378X-0.710378X0*%
%ADD23RoundRect,0.339622X0.710378X0.560378X-0.710378X0.560378X-0.710378X-0.560378X0.710378X-0.560378X0*%
G04 APERTURE END LIST*
D10*
X140735000Y-47530000D03*
X135485000Y-47530000D03*
X140735000Y-44330000D03*
X135485000Y-44330000D03*
D11*
X227260000Y-54860000D03*
X227240000Y-50060000D03*
X224752500Y-54950000D03*
X224752500Y-49950000D03*
X222252500Y-54950000D03*
X222252500Y-49950000D03*
D12*
X188492380Y-45416200D03*
X187222380Y-45416200D03*
X185952380Y-45416200D03*
X184682380Y-45416200D03*
X183412380Y-45416200D03*
X182142380Y-45416200D03*
X180872380Y-45416200D03*
X179602380Y-45416200D03*
X179602380Y-51016200D03*
X180872380Y-51016200D03*
X182142380Y-51016200D03*
X183412380Y-51016200D03*
X184682380Y-51016200D03*
X185952380Y-51016200D03*
X187222380Y-51016200D03*
X188492380Y-51016200D03*
X172028690Y-45416200D03*
X170758690Y-45416200D03*
X169488690Y-45416200D03*
X168218690Y-45416200D03*
X166948690Y-45416200D03*
X165678690Y-45416200D03*
X164408690Y-45416200D03*
X163138690Y-45416200D03*
X163138690Y-51016200D03*
X164408690Y-51016200D03*
X165678690Y-51016200D03*
X166948690Y-51016200D03*
X168218690Y-51016200D03*
X169488690Y-51016200D03*
X170758690Y-51016200D03*
X172028690Y-51016200D03*
D13*
X240370000Y-48710000D03*
X240370000Y-49660000D03*
X240370000Y-50610000D03*
X242645000Y-50610000D03*
X242645000Y-49660000D03*
X242645000Y-48710000D03*
D14*
X40160500Y-70230000D03*
X40160500Y-66930000D03*
X43035500Y-89255000D03*
X43035500Y-85955000D03*
X43035500Y-108280000D03*
X43035500Y-104980000D03*
X43035500Y-127305000D03*
X43035500Y-124005000D03*
X43035500Y-146330000D03*
X43035500Y-143030000D03*
X43035500Y-70230000D03*
X43035500Y-66930000D03*
X61860500Y-89255000D03*
X61860500Y-85955000D03*
X61860500Y-108280000D03*
X61860500Y-104980000D03*
X61860500Y-127305000D03*
X61860500Y-124005000D03*
X61860500Y-146330000D03*
X61860500Y-143030000D03*
X61860500Y-70230000D03*
X61860500Y-66930000D03*
X80885500Y-89255000D03*
X80885500Y-85955000D03*
X80885500Y-108280000D03*
X80885500Y-104980000D03*
X80885500Y-127305000D03*
X80885500Y-124005000D03*
X80885500Y-146330000D03*
X80885500Y-143030000D03*
X80885500Y-70230000D03*
X80885500Y-66930000D03*
X99910500Y-89255000D03*
X99910500Y-85955000D03*
X99910500Y-108280000D03*
X99910500Y-104980000D03*
X99910500Y-127305000D03*
X99910500Y-124005000D03*
X99910500Y-146330000D03*
X99910500Y-143030000D03*
X99910500Y-70230000D03*
X99910500Y-66930000D03*
X118935500Y-89255000D03*
X118935500Y-85955000D03*
X118935500Y-108280000D03*
X118935500Y-104980000D03*
X118935500Y-127305000D03*
X118935500Y-124005000D03*
X118935500Y-146330000D03*
X118935500Y-143030000D03*
X118935500Y-70230000D03*
X118935500Y-66930000D03*
X137960500Y-89255000D03*
X137960500Y-85955000D03*
X137960500Y-108280000D03*
X137960500Y-104980000D03*
X137960500Y-127305000D03*
X137960500Y-124005000D03*
X137960500Y-146330000D03*
X137960500Y-143030000D03*
X137960500Y-70230000D03*
X137960500Y-66930000D03*
X156985500Y-89255000D03*
X156985500Y-85955000D03*
X156985500Y-108280000D03*
X156985500Y-104980000D03*
X156985500Y-127305000D03*
X156985500Y-124005000D03*
X156985500Y-146330000D03*
X156985500Y-143030000D03*
X156985500Y-70230000D03*
X156985500Y-66930000D03*
X176010500Y-89255000D03*
X176010500Y-85955000D03*
X176010500Y-108280000D03*
X176010500Y-104980000D03*
X176010500Y-127305000D03*
X176010500Y-124005000D03*
X176010500Y-146330000D03*
X176010500Y-143030000D03*
X176010500Y-70230000D03*
X176010500Y-66930000D03*
X195035500Y-89255000D03*
X195035500Y-85955000D03*
X195035500Y-108280000D03*
X195035500Y-104980000D03*
X195035500Y-127305000D03*
X195035500Y-124005000D03*
X195035500Y-146330000D03*
X195035500Y-143030000D03*
X195035500Y-70230000D03*
X195035500Y-66930000D03*
X214060500Y-89255000D03*
X214060500Y-85955000D03*
X214060500Y-108280000D03*
X214060500Y-104980000D03*
X214060500Y-127305000D03*
X214060500Y-124005000D03*
X214060500Y-146330000D03*
X214060500Y-143030000D03*
X214060500Y-70230000D03*
X214060500Y-66930000D03*
X233085500Y-89255000D03*
X233085500Y-85955000D03*
X233085500Y-108280000D03*
X233085500Y-104980000D03*
X233085500Y-127305000D03*
X233085500Y-124005000D03*
X233085500Y-146330000D03*
X233085500Y-143030000D03*
X233085500Y-70230000D03*
X233085500Y-66930000D03*
X252110500Y-89255000D03*
X252110500Y-85955000D03*
X252110500Y-108280000D03*
X252110500Y-104980000D03*
X252110500Y-127305000D03*
X252110500Y-124005000D03*
X252110500Y-146330000D03*
X252110500Y-143030000D03*
X252110500Y-70230000D03*
X252110500Y-66930000D03*
X40160500Y-127305000D03*
X40160500Y-124005000D03*
X40160500Y-146330000D03*
X40160500Y-143030000D03*
D15*
X29310000Y-54260000D03*
X32610000Y-54260000D03*
D14*
X40160500Y-108280000D03*
X40160500Y-104980000D03*
D16*
X31095000Y-76560000D03*
X27845000Y-76560000D03*
D17*
X54240000Y-42415000D03*
X58140000Y-42365000D03*
D18*
X254525000Y-133730000D03*
X257775000Y-133730000D03*
D19*
X58260000Y-50990000D03*
X58260000Y-47890000D03*
X46660000Y-52930000D03*
X46660000Y-49830000D03*
D17*
X260750000Y-57565000D03*
X264650000Y-57515000D03*
D20*
X247880000Y-51800000D03*
X250980000Y-51800000D03*
X225330000Y-42340000D03*
X228430000Y-42340000D03*
D18*
X260985000Y-133730000D03*
X264235000Y-133730000D03*
D21*
X160673690Y-46215000D03*
X160723690Y-50115000D03*
D18*
X28095000Y-133650000D03*
X31345000Y-133650000D03*
D22*
X236935000Y-51690000D03*
X236885000Y-47790000D03*
D19*
X49710000Y-50990000D03*
X49710000Y-47890000D03*
X55150000Y-52930000D03*
X55150000Y-49830000D03*
D20*
X238470000Y-44300000D03*
X241570000Y-44300000D03*
D16*
X31365000Y-114620000D03*
X28115000Y-114620000D03*
D18*
X259720000Y-95580000D03*
X262970000Y-95580000D03*
D21*
X177113690Y-46215000D03*
X177163690Y-50115000D03*
D23*
X50100000Y-42365000D03*
X46200000Y-42415000D03*
D14*
X40160500Y-89255000D03*
X40160500Y-85955000D03*
D23*
X42520000Y-53555000D03*
X38620000Y-53605000D03*
M02*
