G04 #@! TF.GenerationSoftware,KiCad,Pcbnew,9.0.2*
G04 #@! TF.CreationDate,2025-07-13T16:57:08+05:30*
G04 #@! TF.ProjectId,pcb,7063622e-6b69-4636-9164-5f7063625858,rev?*
G04 #@! TF.SameCoordinates,Original*
G04 #@! TF.FileFunction,Copper,L2,Bot*
G04 #@! TF.FilePolarity,Positive*
%FSLAX46Y46*%
G04 Gerber Fmt 4.6, Leading zero omitted, Abs format (unit mm)*
G04 Created by KiCad (PCBNEW 9.0.2) date 2025-07-13 16:57:08*
%MOMM*%
%LPD*%
G01*
G04 APERTURE LIST*
G04 Aperture macros list*
%AMRoundRect*
0 Rectangle with rounded corners*
0 $1 Rounding radius*
0 $2 $3 $4 $5 $6 $7 $8 $9 X,Y pos of 4 corners*
0 Add a 4 corners polygon primitive as box body*
4,1,4,$2,$3,$4,$5,$6,$7,$8,$9,$2,$3,0*
0 Add four circle primitives for the rounded corners*
1,1,$1+$1,$2,$3*
1,1,$1+$1,$4,$5*
1,1,$1+$1,$6,$7*
1,1,$1+$1,$8,$9*
0 Add four rect primitives between the rounded corners*
20,1,$1+$1,$2,$3,$4,$5,0*
20,1,$1+$1,$4,$5,$6,$7,0*
20,1,$1+$1,$6,$7,$8,$9,0*
20,1,$1+$1,$8,$9,$2,$3,0*%
%AMOutline5P*
0 Free polygon, 5 corners , with rotation*
0 The origin of the aperture is its center*
0 number of corners: always 5*
0 $1 to $10 corner X, Y*
0 $11 Rotation angle, in degrees counterclockwise*
0 create outline with 5 corners*
4,1,5,$1,$2,$3,$4,$5,$6,$7,$8,$9,$10,$1,$2,$11*%
%AMOutline6P*
0 Free polygon, 6 corners , with rotation*
0 The origin of the aperture is its center*
0 number of corners: always 6*
0 $1 to $12 corner X, Y*
0 $13 Rotation angle, in degrees counterclockwise*
0 create outline with 6 corners*
4,1,6,$1,$2,$3,$4,$5,$6,$7,$8,$9,$10,$11,$12,$1,$2,$13*%
%AMOutline7P*
0 Free polygon, 7 corners , with rotation*
0 The origin of the aperture is its center*
0 number of corners: always 7*
0 $1 to $14 corner X, Y*
0 $15 Rotation angle, in degrees counterclockwise*
0 create outline with 7 corners*
4,1,7,$1,$2,$3,$4,$5,$6,$7,$8,$9,$10,$11,$12,$13,$14,$1,$2,$15*%
%AMOutline8P*
0 Free polygon, 8 corners , with rotation*
0 The origin of the aperture is its center*
0 number of corners: always 8*
0 $1 to $16 corner X, Y*
0 $17 Rotation angle, in degrees counterclockwise*
0 create outline with 8 corners*
4,1,8,$1,$2,$3,$4,$5,$6,$7,$8,$9,$10,$11,$12,$13,$14,$15,$16,$1,$2,$17*%
%AMFreePoly0*
4,1,6,1.000000,0.000000,0.500000,-0.750000,-0.500000,-0.750000,-0.500000,0.750000,0.500000,0.750000,1.000000,0.000000,1.000000,0.000000,$1*%
%AMFreePoly1*
4,1,6,0.500000,-0.750000,-0.650000,-0.750000,-0.150000,0.000000,-0.650000,0.750000,0.500000,0.750000,0.500000,-0.750000,0.500000,-0.750000,$1*%
G04 Aperture macros list end*
G04 #@! TA.AperFunction,ComponentPad*
%ADD10C,2.200000*%
G04 #@! TD*
G04 #@! TA.AperFunction,ComponentPad*
%ADD11R,3.200000X2.000000*%
G04 #@! TD*
G04 #@! TA.AperFunction,ComponentPad*
%ADD12C,2.000000*%
G04 #@! TD*
G04 #@! TA.AperFunction,ComponentPad*
%ADD13RoundRect,0.500000X0.500000X0.500000X-0.500000X0.500000X-0.500000X-0.500000X0.500000X-0.500000X0*%
G04 #@! TD*
G04 #@! TA.AperFunction,ComponentPad*
%ADD14C,1.600000*%
G04 #@! TD*
G04 #@! TA.AperFunction,ComponentPad*
%ADD15C,1.500000*%
G04 #@! TD*
G04 #@! TA.AperFunction,ComponentPad*
%ADD16O,1.400000X3.500000*%
G04 #@! TD*
G04 #@! TA.AperFunction,ComponentPad*
%ADD17C,0.500000*%
G04 #@! TD*
G04 #@! TA.AperFunction,ComponentPad*
%ADD18RoundRect,0.125000X-0.125000X0.125000X-0.125000X-0.125000X0.125000X-0.125000X0.125000X0.125000X0*%
G04 #@! TD*
G04 #@! TA.AperFunction,WasherPad*
%ADD19C,5.875000*%
G04 #@! TD*
G04 #@! TA.AperFunction,ComponentPad*
%ADD20C,1.397000*%
G04 #@! TD*
G04 #@! TA.AperFunction,ComponentPad*
%ADD21RoundRect,0.349250X0.349250X-0.349250X0.349250X0.349250X-0.349250X0.349250X-0.349250X-0.349250X0*%
G04 #@! TD*
G04 #@! TA.AperFunction,ComponentPad*
%ADD22RoundRect,0.349250X-0.349250X0.349250X-0.349250X-0.349250X0.349250X-0.349250X0.349250X0.349250X0*%
G04 #@! TD*
G04 #@! TA.AperFunction,ComponentPad*
%ADD23RoundRect,0.349250X-0.349250X-0.349250X0.349250X-0.349250X0.349250X0.349250X-0.349250X0.349250X0*%
G04 #@! TD*
G04 #@! TA.AperFunction,ComponentPad*
%ADD24RoundRect,0.347750X0.347750X-0.347750X0.347750X0.347750X-0.347750X0.347750X-0.347750X-0.347750X0*%
G04 #@! TD*
G04 #@! TA.AperFunction,SMDPad,CuDef*
%ADD25RoundRect,0.250000X0.300000X-0.300000X0.300000X0.300000X-0.300000X0.300000X-0.300000X-0.300000X0*%
G04 #@! TD*
G04 #@! TA.AperFunction,ComponentPad*
%ADD26C,1.391000*%
G04 #@! TD*
G04 #@! TA.AperFunction,ComponentPad*
%ADD27RoundRect,0.347750X-0.347750X-0.347750X0.347750X-0.347750X0.347750X0.347750X-0.347750X0.347750X0*%
G04 #@! TD*
G04 #@! TA.AperFunction,SMDPad,CuDef*
%ADD28RoundRect,0.250000X-0.300000X-0.300000X0.300000X-0.300000X0.300000X0.300000X-0.300000X0.300000X0*%
G04 #@! TD*
G04 #@! TA.AperFunction,SMDPad,CuDef*
%ADD29R,1.670000X0.820000*%
G04 #@! TD*
G04 #@! TA.AperFunction,ComponentPad*
%ADD30RoundRect,0.125000X-0.125000X-0.125000X0.125000X-0.125000X0.125000X0.125000X-0.125000X0.125000X0*%
G04 #@! TD*
G04 #@! TA.AperFunction,SMDPad,CuDef*
%ADD31Outline5P,-0.835000X0.410000X0.835000X0.410000X0.835000X-0.082000X0.507000X-0.410000X-0.835000X-0.410000X0.000000*%
G04 #@! TD*
G04 #@! TA.AperFunction,SMDPad,CuDef*
%ADD32RoundRect,0.250001X0.499999X0.924999X-0.499999X0.924999X-0.499999X-0.924999X0.499999X-0.924999X0*%
G04 #@! TD*
G04 #@! TA.AperFunction,ComponentPad*
%ADD33RoundRect,0.125000X0.125000X0.125000X-0.125000X0.125000X-0.125000X-0.125000X0.125000X-0.125000X0*%
G04 #@! TD*
G04 #@! TA.AperFunction,ComponentPad*
%ADD34RoundRect,0.250000X-0.250000X-0.250000X0.250000X-0.250000X0.250000X0.250000X-0.250000X0.250000X0*%
G04 #@! TD*
G04 #@! TA.AperFunction,SMDPad,CuDef*
%ADD35RoundRect,0.339622X-0.710378X-0.560378X0.710378X-0.560378X0.710378X0.560378X-0.710378X0.560378X0*%
G04 #@! TD*
G04 #@! TA.AperFunction,ComponentPad*
%ADD36C,1.000000*%
G04 #@! TD*
G04 #@! TA.AperFunction,SMDPad,CuDef*
%ADD37Outline5P,-0.835000X0.410000X0.835000X0.410000X0.835000X-0.082000X0.507000X-0.410000X-0.835000X-0.410000X180.000000*%
G04 #@! TD*
G04 #@! TA.AperFunction,SMDPad,CuDef*
%ADD38R,2.000000X0.600000*%
G04 #@! TD*
G04 #@! TA.AperFunction,SMDPad,CuDef*
%ADD39R,0.650000X1.560000*%
G04 #@! TD*
G04 #@! TA.AperFunction,SMDPad,CuDef*
%ADD40RoundRect,0.250001X-0.499999X-0.924999X0.499999X-0.924999X0.499999X0.924999X-0.499999X0.924999X0*%
G04 #@! TD*
G04 #@! TA.AperFunction,SMDPad,CuDef*
%ADD41RoundRect,0.250000X0.625000X-0.400000X0.625000X0.400000X-0.625000X0.400000X-0.625000X-0.400000X0*%
G04 #@! TD*
G04 #@! TA.AperFunction,SMDPad,CuDef*
%ADD42FreePoly0,270.000000*%
G04 #@! TD*
G04 #@! TA.AperFunction,SMDPad,CuDef*
%ADD43FreePoly1,270.000000*%
G04 #@! TD*
G04 #@! TA.AperFunction,SMDPad,CuDef*
%ADD44RoundRect,0.250000X-0.400000X-0.625000X0.400000X-0.625000X0.400000X0.625000X-0.400000X0.625000X0*%
G04 #@! TD*
G04 #@! TA.AperFunction,ComponentPad*
%ADD45RoundRect,0.250000X-0.250000X0.250000X-0.250000X-0.250000X0.250000X-0.250000X0.250000X0.250000X0*%
G04 #@! TD*
G04 #@! TA.AperFunction,SMDPad,CuDef*
%ADD46RoundRect,0.339622X-0.560378X0.710378X-0.560378X-0.710378X0.560378X-0.710378X0.560378X0.710378X0*%
G04 #@! TD*
G04 #@! TA.AperFunction,ComponentPad*
%ADD47RoundRect,0.250000X0.250000X-0.250000X0.250000X0.250000X-0.250000X0.250000X-0.250000X-0.250000X0*%
G04 #@! TD*
G04 #@! TA.AperFunction,SMDPad,CuDef*
%ADD48RoundRect,0.339622X0.560378X-0.710378X0.560378X0.710378X-0.560378X0.710378X-0.560378X-0.710378X0*%
G04 #@! TD*
G04 #@! TA.AperFunction,ComponentPad*
%ADD49RoundRect,0.250000X0.250000X0.250000X-0.250000X0.250000X-0.250000X-0.250000X0.250000X-0.250000X0*%
G04 #@! TD*
G04 #@! TA.AperFunction,SMDPad,CuDef*
%ADD50RoundRect,0.339622X0.710378X0.560378X-0.710378X0.560378X-0.710378X-0.560378X0.710378X-0.560378X0*%
G04 #@! TD*
G04 #@! TA.AperFunction,Conductor*
%ADD51C,0.200000*%
G04 #@! TD*
G04 #@! TA.AperFunction,Conductor*
%ADD52C,0.250000*%
G04 #@! TD*
G04 APERTURE END LIST*
D10*
X53665000Y-62000000D03*
X47315000Y-64540000D03*
X53665000Y-81025000D03*
X47315000Y-83565000D03*
X53665000Y-100050000D03*
X47315000Y-102590000D03*
X53665000Y-119075000D03*
X47315000Y-121615000D03*
X53665000Y-138100000D03*
X47315000Y-140640000D03*
X72690000Y-62000000D03*
X66340000Y-64540000D03*
X72690000Y-81025000D03*
X66340000Y-83565000D03*
X72690000Y-100050000D03*
X66340000Y-102590000D03*
X72690000Y-119075000D03*
X66340000Y-121615000D03*
X72690000Y-138100000D03*
X66340000Y-140640000D03*
X91715000Y-62000000D03*
X85365000Y-64540000D03*
X91715000Y-100050000D03*
X85365000Y-102590000D03*
X91715000Y-119075000D03*
X85365000Y-121615000D03*
X91715000Y-138100000D03*
X85365000Y-140640000D03*
X110740000Y-62000000D03*
X104390000Y-64540000D03*
X110740000Y-81025000D03*
X104390000Y-83565000D03*
X110740000Y-100050000D03*
X104390000Y-102590000D03*
X110740000Y-119075000D03*
X104390000Y-121615000D03*
X110740000Y-138100000D03*
X104390000Y-140640000D03*
X129765000Y-62000000D03*
X123415000Y-64540000D03*
X129765000Y-81025000D03*
X123415000Y-83565000D03*
X129765000Y-100050000D03*
X123415000Y-102590000D03*
X129765000Y-119075000D03*
X123415000Y-121615000D03*
X129765000Y-138100000D03*
X123415000Y-140640000D03*
X148790000Y-62000000D03*
X142440000Y-64540000D03*
X148790000Y-81025000D03*
X142440000Y-83565000D03*
X148790000Y-100050000D03*
X142440000Y-102590000D03*
X148790000Y-119075000D03*
X142440000Y-121615000D03*
X148790000Y-138100000D03*
X142440000Y-140640000D03*
X167815000Y-62000000D03*
X161465000Y-64540000D03*
X167815000Y-81025000D03*
X161465000Y-83565000D03*
X167815000Y-100050000D03*
X161465000Y-102590000D03*
X167815000Y-119075000D03*
X161465000Y-121615000D03*
X167815000Y-138100000D03*
X161465000Y-140640000D03*
X186840000Y-62000000D03*
X180490000Y-64540000D03*
X186840000Y-81025000D03*
X180490000Y-83565000D03*
X186840000Y-100050000D03*
X180490000Y-102590000D03*
X186840000Y-119075000D03*
X180490000Y-121615000D03*
X186840000Y-138100000D03*
X180490000Y-140640000D03*
X205865000Y-62000000D03*
X199515000Y-64540000D03*
X205865000Y-81025000D03*
X199515000Y-83565000D03*
X205865000Y-100050000D03*
X199515000Y-102590000D03*
X205865000Y-119075000D03*
X199515000Y-121615000D03*
X205865000Y-138100000D03*
X199515000Y-140640000D03*
X224890000Y-62000000D03*
X218540000Y-64540000D03*
X224890000Y-81025000D03*
X218540000Y-83565000D03*
X224890000Y-100050000D03*
X218540000Y-102590000D03*
X224890000Y-119075000D03*
X218540000Y-121615000D03*
X224890000Y-138100000D03*
X218540000Y-140640000D03*
X243915000Y-62000000D03*
X237565000Y-64540000D03*
X243915000Y-81025000D03*
X237565000Y-83565000D03*
X243915000Y-100050000D03*
X237565000Y-102590000D03*
X243915000Y-119075000D03*
X237565000Y-121615000D03*
X243915000Y-138100000D03*
X237565000Y-140640000D03*
X262940000Y-62000000D03*
X256590000Y-64540000D03*
X262940000Y-81025000D03*
X256590000Y-83565000D03*
X262940000Y-100050000D03*
X256590000Y-102590000D03*
X262940000Y-119075000D03*
X256590000Y-121615000D03*
X262940000Y-138100000D03*
X256590000Y-140640000D03*
X34640000Y-81025000D03*
X28290000Y-83565000D03*
X34640000Y-100050000D03*
X28290000Y-102590000D03*
X34640000Y-119075000D03*
X28290000Y-121615000D03*
X34640000Y-138100000D03*
X28290000Y-140640000D03*
D11*
X34410000Y-50542000D03*
X34410000Y-39342000D03*
D12*
X41910000Y-47442000D03*
X41910000Y-42442000D03*
D13*
X41910000Y-44942000D03*
D14*
X27410000Y-47442000D03*
D15*
X27410000Y-42442000D03*
D10*
X34640000Y-62000000D03*
X28290000Y-64540000D03*
D12*
X141360000Y-48180000D03*
X134860000Y-48180000D03*
X141360000Y-43680000D03*
X134860000Y-43680000D03*
D16*
X228852500Y-52450000D03*
X220652500Y-52450000D03*
D15*
X226752500Y-52450000D03*
X224752500Y-52450000D03*
X222752500Y-52450000D03*
D17*
X188508690Y-44265000D03*
X187228690Y-44265000D03*
X185968690Y-44265000D03*
X184698690Y-44265000D03*
X183418690Y-44265000D03*
X182148690Y-44265000D03*
X180888690Y-44265000D03*
D18*
X179608690Y-44265000D03*
D17*
X179608690Y-52065000D03*
X180888690Y-52065000D03*
X182148690Y-52065000D03*
X183418690Y-52065000D03*
X184698690Y-52065000D03*
X185968690Y-52065000D03*
X187228690Y-52065000D03*
X188508690Y-52065000D03*
D19*
X190240000Y-153890000D03*
X198240000Y-153890000D03*
X206240000Y-153890000D03*
X214240000Y-153890000D03*
X222240000Y-153890000D03*
X230240000Y-153890000D03*
X254240000Y-153890000D03*
X262240000Y-153890000D03*
X270240000Y-49890000D03*
X270240000Y-57890000D03*
X270240000Y-153890000D03*
D17*
X172045000Y-44265000D03*
X170765000Y-44265000D03*
X169505000Y-44265000D03*
X168235000Y-44265000D03*
X166955000Y-44265000D03*
X165685000Y-44265000D03*
X164425000Y-44265000D03*
D18*
X163145000Y-44265000D03*
D17*
X163145000Y-52065000D03*
X164425000Y-52065000D03*
X165685000Y-52065000D03*
X166955000Y-52065000D03*
X168235000Y-52065000D03*
X169505000Y-52065000D03*
X170765000Y-52065000D03*
X172045000Y-52065000D03*
D20*
X219630000Y-47410000D03*
X219630000Y-44870000D03*
X219630000Y-42330000D03*
D21*
X219630000Y-39790000D03*
D20*
X261510000Y-39360000D03*
X258970000Y-39360000D03*
D22*
X256430000Y-39360000D03*
X253890000Y-39360000D03*
D20*
X251350000Y-39360000D03*
X248810000Y-39360000D03*
X246270000Y-39360000D03*
X243730000Y-39360000D03*
X241190000Y-39360000D03*
X238650000Y-39360000D03*
X236110000Y-39360000D03*
X233570000Y-39360000D03*
X261510000Y-54600000D03*
D22*
X258970000Y-54600000D03*
D20*
X256430000Y-54600000D03*
X253890000Y-54600000D03*
X251350000Y-54600000D03*
X248810000Y-54600000D03*
X246270000Y-54600000D03*
X243730000Y-54600000D03*
X241190000Y-54600000D03*
X238650000Y-54600000D03*
X236110000Y-54600000D03*
X233570000Y-54600000D03*
X233570000Y-41900000D03*
X233570000Y-44440000D03*
X233570000Y-46980000D03*
X233570000Y-49520000D03*
X233570000Y-52060000D03*
X264050000Y-54600000D03*
D22*
X264050000Y-39360000D03*
D20*
X256430000Y-45710000D03*
X256430000Y-48250000D03*
X236110000Y-41900000D03*
D17*
X239437500Y-50610000D03*
X243557500Y-50610000D03*
D20*
X215190000Y-38730000D03*
X212650000Y-38730000D03*
X215190000Y-41270000D03*
X212650000Y-41270000D03*
X215190000Y-43810000D03*
X212650000Y-43810000D03*
D23*
X215190000Y-46350000D03*
D20*
X212650000Y-46350000D03*
D10*
X91715000Y-81025000D03*
X85365000Y-83565000D03*
D20*
X252320000Y-45920000D03*
D22*
X252320000Y-47920000D03*
D24*
X40160500Y-72390000D03*
D25*
X40160500Y-70230000D03*
X40160500Y-66930000D03*
D26*
X40160500Y-64770000D03*
D24*
X43035500Y-91415000D03*
D25*
X43035500Y-89255000D03*
X43035500Y-85955000D03*
D26*
X43035500Y-83795000D03*
D24*
X43035500Y-110440000D03*
D25*
X43035500Y-108280000D03*
X43035500Y-104980000D03*
D26*
X43035500Y-102820000D03*
D24*
X43035500Y-129465000D03*
D25*
X43035500Y-127305000D03*
X43035500Y-124005000D03*
D26*
X43035500Y-121845000D03*
D24*
X43035500Y-148490000D03*
D25*
X43035500Y-146330000D03*
X43035500Y-143030000D03*
D26*
X43035500Y-140870000D03*
D24*
X43035500Y-72390000D03*
D25*
X43035500Y-70230000D03*
X43035500Y-66930000D03*
D26*
X43035500Y-64770000D03*
D24*
X61860500Y-91415000D03*
D25*
X61860500Y-89255000D03*
X61860500Y-85955000D03*
D26*
X61860500Y-83795000D03*
D24*
X61860500Y-110440000D03*
D25*
X61860500Y-108280000D03*
X61860500Y-104980000D03*
D26*
X61860500Y-102820000D03*
D24*
X61860500Y-129465000D03*
D25*
X61860500Y-127305000D03*
X61860500Y-124005000D03*
D26*
X61860500Y-121845000D03*
D24*
X61860500Y-148490000D03*
D25*
X61860500Y-146330000D03*
X61860500Y-143030000D03*
D26*
X61860500Y-140870000D03*
D24*
X61860500Y-72390000D03*
D25*
X61860500Y-70230000D03*
X61860500Y-66930000D03*
D26*
X61860500Y-64770000D03*
D24*
X80885500Y-91415000D03*
D25*
X80885500Y-89255000D03*
X80885500Y-85955000D03*
D26*
X80885500Y-83795000D03*
D24*
X80885500Y-110440000D03*
D25*
X80885500Y-108280000D03*
X80885500Y-104980000D03*
D26*
X80885500Y-102820000D03*
D24*
X80885500Y-129465000D03*
D25*
X80885500Y-127305000D03*
X80885500Y-124005000D03*
D26*
X80885500Y-121845000D03*
D24*
X80885500Y-148490000D03*
D25*
X80885500Y-146330000D03*
X80885500Y-143030000D03*
D26*
X80885500Y-140870000D03*
D24*
X80885500Y-72390000D03*
D25*
X80885500Y-70230000D03*
X80885500Y-66930000D03*
D26*
X80885500Y-64770000D03*
D24*
X99910500Y-91415000D03*
D25*
X99910500Y-89255000D03*
X99910500Y-85955000D03*
D26*
X99910500Y-83795000D03*
D24*
X99910500Y-110440000D03*
D25*
X99910500Y-108280000D03*
X99910500Y-104980000D03*
D26*
X99910500Y-102820000D03*
D24*
X99910500Y-129465000D03*
D25*
X99910500Y-127305000D03*
X99910500Y-124005000D03*
D26*
X99910500Y-121845000D03*
D24*
X99910500Y-148490000D03*
D25*
X99910500Y-146330000D03*
X99910500Y-143030000D03*
D26*
X99910500Y-140870000D03*
D24*
X99910500Y-72390000D03*
D25*
X99910500Y-70230000D03*
X99910500Y-66930000D03*
D26*
X99910500Y-64770000D03*
D24*
X118935500Y-91415000D03*
D25*
X118935500Y-89255000D03*
X118935500Y-85955000D03*
D26*
X118935500Y-83795000D03*
D24*
X118935500Y-110440000D03*
D25*
X118935500Y-108280000D03*
X118935500Y-104980000D03*
D26*
X118935500Y-102820000D03*
D24*
X118935500Y-129465000D03*
D25*
X118935500Y-127305000D03*
X118935500Y-124005000D03*
D26*
X118935500Y-121845000D03*
D24*
X118935500Y-148490000D03*
D25*
X118935500Y-146330000D03*
X118935500Y-143030000D03*
D26*
X118935500Y-140870000D03*
D24*
X118935500Y-72390000D03*
D25*
X118935500Y-70230000D03*
X118935500Y-66930000D03*
D26*
X118935500Y-64770000D03*
D24*
X137960500Y-91415000D03*
D25*
X137960500Y-89255000D03*
X137960500Y-85955000D03*
D26*
X137960500Y-83795000D03*
D24*
X137960500Y-110440000D03*
D25*
X137960500Y-108280000D03*
X137960500Y-104980000D03*
D26*
X137960500Y-102820000D03*
D24*
X137960500Y-129465000D03*
D25*
X137960500Y-127305000D03*
X137960500Y-124005000D03*
D26*
X137960500Y-121845000D03*
D24*
X137960500Y-148490000D03*
D25*
X137960500Y-146330000D03*
X137960500Y-143030000D03*
D26*
X137960500Y-140870000D03*
D24*
X137960500Y-72390000D03*
D25*
X137960500Y-70230000D03*
X137960500Y-66930000D03*
D26*
X137960500Y-64770000D03*
D24*
X156985500Y-91415000D03*
D25*
X156985500Y-89255000D03*
X156985500Y-85955000D03*
D26*
X156985500Y-83795000D03*
D24*
X156985500Y-110440000D03*
D25*
X156985500Y-108280000D03*
X156985500Y-104980000D03*
D26*
X156985500Y-102820000D03*
D24*
X156985500Y-129465000D03*
D25*
X156985500Y-127305000D03*
X156985500Y-124005000D03*
D26*
X156985500Y-121845000D03*
D24*
X156985500Y-148490000D03*
D25*
X156985500Y-146330000D03*
X156985500Y-143030000D03*
D26*
X156985500Y-140870000D03*
D24*
X156985500Y-72390000D03*
D25*
X156985500Y-70230000D03*
X156985500Y-66930000D03*
D26*
X156985500Y-64770000D03*
D24*
X176010500Y-91415000D03*
D25*
X176010500Y-89255000D03*
X176010500Y-85955000D03*
D26*
X176010500Y-83795000D03*
D24*
X176010500Y-110440000D03*
D25*
X176010500Y-108280000D03*
X176010500Y-104980000D03*
D26*
X176010500Y-102820000D03*
D24*
X176010500Y-129465000D03*
D25*
X176010500Y-127305000D03*
X176010500Y-124005000D03*
D26*
X176010500Y-121845000D03*
D24*
X176010500Y-148490000D03*
D25*
X176010500Y-146330000D03*
X176010500Y-143030000D03*
D26*
X176010500Y-140870000D03*
D24*
X176010500Y-72390000D03*
D25*
X176010500Y-70230000D03*
X176010500Y-66930000D03*
D26*
X176010500Y-64770000D03*
D24*
X195035500Y-91415000D03*
D25*
X195035500Y-89255000D03*
X195035500Y-85955000D03*
D26*
X195035500Y-83795000D03*
D24*
X195035500Y-110440000D03*
D25*
X195035500Y-108280000D03*
X195035500Y-104980000D03*
D26*
X195035500Y-102820000D03*
D24*
X195035500Y-129465000D03*
D25*
X195035500Y-127305000D03*
X195035500Y-124005000D03*
D26*
X195035500Y-121845000D03*
D24*
X195035500Y-148490000D03*
D25*
X195035500Y-146330000D03*
X195035500Y-143030000D03*
D26*
X195035500Y-140870000D03*
D24*
X195035500Y-72390000D03*
D25*
X195035500Y-70230000D03*
X195035500Y-66930000D03*
D26*
X195035500Y-64770000D03*
D24*
X214060500Y-91415000D03*
D25*
X214060500Y-89255000D03*
X214060500Y-85955000D03*
D26*
X214060500Y-83795000D03*
D24*
X214060500Y-110440000D03*
D25*
X214060500Y-108280000D03*
X214060500Y-104980000D03*
D26*
X214060500Y-102820000D03*
D24*
X214060500Y-129465000D03*
D25*
X214060500Y-127305000D03*
X214060500Y-124005000D03*
D26*
X214060500Y-121845000D03*
D24*
X214060500Y-148490000D03*
D25*
X214060500Y-146330000D03*
X214060500Y-143030000D03*
D26*
X214060500Y-140870000D03*
D24*
X214060500Y-72390000D03*
D25*
X214060500Y-70230000D03*
X214060500Y-66930000D03*
D26*
X214060500Y-64770000D03*
D24*
X233085500Y-91415000D03*
D25*
X233085500Y-89255000D03*
X233085500Y-85955000D03*
D26*
X233085500Y-83795000D03*
D24*
X233085500Y-110440000D03*
D25*
X233085500Y-108280000D03*
X233085500Y-104980000D03*
D26*
X233085500Y-102820000D03*
D24*
X233085500Y-129465000D03*
D25*
X233085500Y-127305000D03*
X233085500Y-124005000D03*
D26*
X233085500Y-121845000D03*
D24*
X233085500Y-148490000D03*
D25*
X233085500Y-146330000D03*
X233085500Y-143030000D03*
D26*
X233085500Y-140870000D03*
D24*
X233085500Y-72390000D03*
D25*
X233085500Y-70230000D03*
X233085500Y-66930000D03*
D26*
X233085500Y-64770000D03*
D24*
X252110500Y-91415000D03*
D25*
X252110500Y-89255000D03*
X252110500Y-85955000D03*
D26*
X252110500Y-83795000D03*
D24*
X252110500Y-110440000D03*
D25*
X252110500Y-108280000D03*
X252110500Y-104980000D03*
D26*
X252110500Y-102820000D03*
D24*
X252110500Y-129465000D03*
D25*
X252110500Y-127305000D03*
X252110500Y-124005000D03*
D26*
X252110500Y-121845000D03*
D24*
X252110500Y-148490000D03*
D25*
X252110500Y-146330000D03*
X252110500Y-143030000D03*
D26*
X252110500Y-140870000D03*
D24*
X252110500Y-72390000D03*
D25*
X252110500Y-70230000D03*
X252110500Y-66930000D03*
D26*
X252110500Y-64770000D03*
D24*
X40160500Y-129465000D03*
D25*
X40160500Y-127305000D03*
X40160500Y-124005000D03*
D26*
X40160500Y-121845000D03*
D24*
X40160500Y-148490000D03*
D25*
X40160500Y-146330000D03*
X40160500Y-143030000D03*
D26*
X40160500Y-140870000D03*
D27*
X27150000Y-54260000D03*
D28*
X29310000Y-54260000D03*
X32610000Y-54260000D03*
D26*
X34770000Y-54260000D03*
D24*
X40160500Y-110440000D03*
D25*
X40160500Y-108280000D03*
X40160500Y-104980000D03*
D26*
X40160500Y-102820000D03*
D29*
X181665000Y-128485000D03*
D17*
X182150000Y-128485000D03*
D29*
X181665000Y-129985000D03*
D17*
X182150000Y-129985000D03*
D30*
X186450000Y-129985000D03*
D31*
X186935000Y-129985000D03*
D17*
X186450000Y-128485000D03*
D29*
X186935000Y-128485000D03*
D32*
X31095000Y-76560000D03*
D17*
X30190000Y-76560000D03*
D33*
X28750000Y-76560000D03*
D32*
X27845000Y-76560000D03*
D34*
X53690000Y-42390000D03*
D35*
X54240000Y-42415000D03*
X58140000Y-42365000D03*
D36*
X58690000Y-42390000D03*
D29*
X53760000Y-110960000D03*
D17*
X53275000Y-110960000D03*
D29*
X53760000Y-109460000D03*
D17*
X53275000Y-109460000D03*
D33*
X48975000Y-109460000D03*
D37*
X48490000Y-109460000D03*
D17*
X48975000Y-110960000D03*
D29*
X48490000Y-110960000D03*
X34735000Y-149010000D03*
D17*
X34250000Y-149010000D03*
D29*
X34735000Y-147510000D03*
D17*
X34250000Y-147510000D03*
D33*
X29950000Y-147510000D03*
D37*
X29465000Y-147510000D03*
D17*
X29950000Y-149010000D03*
D29*
X29465000Y-149010000D03*
X200690000Y-128485000D03*
D17*
X201175000Y-128485000D03*
D29*
X200690000Y-129985000D03*
D17*
X201175000Y-129985000D03*
D30*
X205475000Y-129985000D03*
D31*
X205960000Y-129985000D03*
D17*
X205475000Y-128485000D03*
D29*
X205960000Y-128485000D03*
X124590000Y-128485000D03*
D17*
X125075000Y-128485000D03*
D29*
X124590000Y-129985000D03*
D17*
X125075000Y-129985000D03*
D30*
X129375000Y-129985000D03*
D31*
X129860000Y-129985000D03*
D17*
X129375000Y-128485000D03*
D29*
X129860000Y-128485000D03*
X110835000Y-110960000D03*
D17*
X110350000Y-110960000D03*
D29*
X110835000Y-109460000D03*
D17*
X110350000Y-109460000D03*
D33*
X106050000Y-109460000D03*
D37*
X105565000Y-109460000D03*
D17*
X106050000Y-110960000D03*
D29*
X105565000Y-110960000D03*
X53760000Y-72910000D03*
D17*
X53275000Y-72910000D03*
D29*
X53760000Y-71410000D03*
D17*
X53275000Y-71410000D03*
D33*
X48975000Y-71410000D03*
D37*
X48490000Y-71410000D03*
D17*
X48975000Y-72910000D03*
D29*
X48490000Y-72910000D03*
D38*
X248930000Y-134550000D03*
D17*
X249630000Y-134550000D03*
D38*
X248930000Y-133250000D03*
D17*
X249630000Y-133250000D03*
X251230000Y-133250000D03*
D38*
X251930000Y-133250000D03*
X251930000Y-134550000D03*
D29*
X167910000Y-110960000D03*
D17*
X167425000Y-110960000D03*
D29*
X167910000Y-109460000D03*
D17*
X167425000Y-109460000D03*
D33*
X163125000Y-109460000D03*
D37*
X162640000Y-109460000D03*
D17*
X163125000Y-110960000D03*
D29*
X162640000Y-110960000D03*
D39*
X39450000Y-57040000D03*
D17*
X40400000Y-56260000D03*
D39*
X40400000Y-57040000D03*
X41350000Y-57040000D03*
X41350000Y-59740000D03*
X39450000Y-59740000D03*
D29*
X86540000Y-90435000D03*
D17*
X87025000Y-90435000D03*
D29*
X86540000Y-91935000D03*
D17*
X87025000Y-91935000D03*
D30*
X91325000Y-91935000D03*
D31*
X91810000Y-91935000D03*
D17*
X91325000Y-90435000D03*
D29*
X91810000Y-90435000D03*
D40*
X254525000Y-133730000D03*
D17*
X255430000Y-133730000D03*
D30*
X256870000Y-133730000D03*
D40*
X257775000Y-133730000D03*
D29*
X219715000Y-90435000D03*
D17*
X220200000Y-90435000D03*
D29*
X219715000Y-91935000D03*
D17*
X220200000Y-91935000D03*
D30*
X224500000Y-91935000D03*
D31*
X224985000Y-91935000D03*
D17*
X224500000Y-90435000D03*
D29*
X224985000Y-90435000D03*
D38*
X172830000Y-134550000D03*
D17*
X173530000Y-134550000D03*
D38*
X172830000Y-133250000D03*
D17*
X173530000Y-133250000D03*
X175130000Y-133250000D03*
D38*
X175830000Y-133250000D03*
X175830000Y-134550000D03*
D20*
X58260000Y-53250000D03*
D41*
X58260000Y-50990000D03*
X58260000Y-47890000D03*
D20*
X58260000Y-45630000D03*
D29*
X263034999Y-149010000D03*
D17*
X262549999Y-149010000D03*
D29*
X263034999Y-147510000D03*
D17*
X262549999Y-147510000D03*
D33*
X258249999Y-147510000D03*
D37*
X257764999Y-147510000D03*
D17*
X258249999Y-149010000D03*
D29*
X257764999Y-149010000D03*
X205960000Y-149010000D03*
D17*
X205475000Y-149010000D03*
D29*
X205960000Y-147510000D03*
D17*
X205475000Y-147510000D03*
D33*
X201175000Y-147510000D03*
D37*
X200690000Y-147510000D03*
D17*
X201175000Y-149010000D03*
D29*
X200690000Y-149010000D03*
X186935000Y-72910000D03*
D17*
X186450000Y-72910000D03*
D29*
X186935000Y-71410000D03*
D17*
X186450000Y-71410000D03*
D33*
X182150000Y-71410000D03*
D37*
X181665000Y-71410000D03*
D17*
X182150000Y-72910000D03*
D29*
X181665000Y-72910000D03*
D20*
X46660000Y-55190000D03*
D41*
X46660000Y-52930000D03*
X46660000Y-49830000D03*
D20*
X46660000Y-47570000D03*
D29*
X72785000Y-72910000D03*
D17*
X72300000Y-72910000D03*
D29*
X72785000Y-71410000D03*
D17*
X72300000Y-71410000D03*
D33*
X68000000Y-71410000D03*
D37*
X67515000Y-71410000D03*
D17*
X68000000Y-72910000D03*
D29*
X67515000Y-72910000D03*
X67515000Y-128485000D03*
D17*
X68000000Y-128485000D03*
D29*
X67515000Y-129985000D03*
D17*
X68000000Y-129985000D03*
D30*
X72300000Y-129985000D03*
D31*
X72785000Y-129985000D03*
D17*
X72300000Y-128485000D03*
D29*
X72785000Y-128485000D03*
X219715000Y-128485000D03*
D17*
X220200000Y-128485000D03*
D29*
X219715000Y-129985000D03*
D17*
X220200000Y-129985000D03*
D30*
X224500000Y-129985000D03*
D31*
X224985000Y-129985000D03*
D17*
X224500000Y-128485000D03*
D29*
X224985000Y-128485000D03*
X29465000Y-90435000D03*
D17*
X29950000Y-90435000D03*
D29*
X29465000Y-91935000D03*
D17*
X29950000Y-91935000D03*
D30*
X34250000Y-91935000D03*
D31*
X34735000Y-91935000D03*
D17*
X34250000Y-90435000D03*
D29*
X34735000Y-90435000D03*
X48490000Y-90435000D03*
D17*
X48975000Y-90435000D03*
D29*
X48490000Y-91935000D03*
D17*
X48975000Y-91935000D03*
D30*
X53275000Y-91935000D03*
D31*
X53760000Y-91935000D03*
D17*
X53275000Y-90435000D03*
D29*
X53760000Y-90435000D03*
X181665000Y-90435000D03*
D17*
X182150000Y-90435000D03*
D29*
X181665000Y-91935000D03*
D17*
X182150000Y-91935000D03*
D30*
X186450000Y-91935000D03*
D31*
X186935000Y-91935000D03*
D17*
X186450000Y-90435000D03*
D29*
X186935000Y-90435000D03*
X91810000Y-72910000D03*
D17*
X91325000Y-72910000D03*
D29*
X91810000Y-71410000D03*
D17*
X91325000Y-71410000D03*
D33*
X87025000Y-71410000D03*
D37*
X86540000Y-71410000D03*
D17*
X87025000Y-72910000D03*
D29*
X86540000Y-72910000D03*
D34*
X260200000Y-57540000D03*
D35*
X260750000Y-57565000D03*
X264650000Y-57515000D03*
D36*
X265200000Y-57540000D03*
D42*
X43900000Y-56560000D03*
D43*
X43900000Y-58010000D03*
D29*
X110835000Y-149010000D03*
D17*
X110350000Y-149010000D03*
D29*
X110835000Y-147510000D03*
D17*
X110350000Y-147510000D03*
D33*
X106050000Y-147510000D03*
D37*
X105565000Y-147510000D03*
D17*
X106050000Y-149010000D03*
D29*
X105565000Y-149010000D03*
X162640000Y-128485000D03*
D17*
X163125000Y-128485000D03*
D29*
X162640000Y-129985000D03*
D17*
X163125000Y-129985000D03*
D30*
X167425000Y-129985000D03*
D31*
X167910000Y-129985000D03*
D17*
X167425000Y-128485000D03*
D29*
X167910000Y-128485000D03*
D20*
X245620000Y-51800000D03*
D44*
X247880000Y-51800000D03*
X250980000Y-51800000D03*
D20*
X253240000Y-51800000D03*
D29*
X110835000Y-72910000D03*
D17*
X110350000Y-72910000D03*
D29*
X110835000Y-71410000D03*
D17*
X110350000Y-71410000D03*
D33*
X106050000Y-71410000D03*
D37*
X105565000Y-71410000D03*
D17*
X106050000Y-72910000D03*
D29*
X105565000Y-72910000D03*
D20*
X223070000Y-42340000D03*
D44*
X225330000Y-42340000D03*
X228430000Y-42340000D03*
D20*
X230690000Y-42340000D03*
D29*
X263034999Y-72910000D03*
D17*
X262549999Y-72910000D03*
D29*
X263034999Y-71410000D03*
D17*
X262549999Y-71410000D03*
D33*
X258249999Y-71410000D03*
D37*
X257764999Y-71410000D03*
D17*
X258249999Y-72910000D03*
D29*
X257764999Y-72910000D03*
X238739999Y-128485000D03*
D17*
X239224999Y-128485000D03*
D29*
X238739999Y-129985000D03*
D17*
X239224999Y-129985000D03*
D30*
X243524999Y-129985000D03*
D31*
X244009999Y-129985000D03*
D17*
X243524999Y-128485000D03*
D29*
X244009999Y-128485000D03*
X148885000Y-149010000D03*
D17*
X148400000Y-149010000D03*
D29*
X148885000Y-147510000D03*
D17*
X148400000Y-147510000D03*
D33*
X144100000Y-147510000D03*
D37*
X143615000Y-147510000D03*
D17*
X144100000Y-149010000D03*
D29*
X143615000Y-149010000D03*
X257764999Y-90435000D03*
D17*
X258249999Y-90435000D03*
D29*
X257764999Y-91935000D03*
D17*
X258249999Y-91935000D03*
D30*
X262549999Y-91935000D03*
D31*
X263034999Y-91935000D03*
D17*
X262549999Y-90435000D03*
D29*
X263034999Y-90435000D03*
X186935000Y-110960000D03*
D17*
X186450000Y-110960000D03*
D29*
X186935000Y-109460000D03*
D17*
X186450000Y-109460000D03*
D33*
X182150000Y-109460000D03*
D37*
X181665000Y-109460000D03*
D17*
X182150000Y-110960000D03*
D29*
X181665000Y-110960000D03*
X34735000Y-110960000D03*
D17*
X34250000Y-110960000D03*
D29*
X34735000Y-109460000D03*
D17*
X34250000Y-109460000D03*
D33*
X29950000Y-109460000D03*
D37*
X29465000Y-109460000D03*
D17*
X29950000Y-110960000D03*
D29*
X29465000Y-110960000D03*
D40*
X260985000Y-133730000D03*
D17*
X261890000Y-133730000D03*
D30*
X263330000Y-133730000D03*
D40*
X264235000Y-133730000D03*
D29*
X263034999Y-110960000D03*
D17*
X262549999Y-110960000D03*
D29*
X263034999Y-109460000D03*
D17*
X262549999Y-109460000D03*
D33*
X258249999Y-109460000D03*
D37*
X257764999Y-109460000D03*
D17*
X258249999Y-110960000D03*
D29*
X257764999Y-110960000D03*
X34735000Y-72910000D03*
D17*
X34250000Y-72910000D03*
D29*
X34735000Y-71410000D03*
D17*
X34250000Y-71410000D03*
D33*
X29950000Y-71410000D03*
D37*
X29465000Y-71410000D03*
D17*
X29950000Y-72910000D03*
D29*
X29465000Y-72910000D03*
X91810000Y-110960000D03*
D17*
X91325000Y-110960000D03*
D29*
X91810000Y-109460000D03*
D17*
X91325000Y-109460000D03*
D33*
X87025000Y-109460000D03*
D37*
X86540000Y-109460000D03*
D17*
X87025000Y-110960000D03*
D29*
X86540000Y-110960000D03*
X105565000Y-90435000D03*
D17*
X106050000Y-90435000D03*
D29*
X105565000Y-91935000D03*
D17*
X106050000Y-91935000D03*
D30*
X110350000Y-91935000D03*
D31*
X110835000Y-91935000D03*
D17*
X110350000Y-90435000D03*
D29*
X110835000Y-90435000D03*
X244009999Y-149010000D03*
D17*
X243524999Y-149010000D03*
D29*
X244009999Y-147510000D03*
D17*
X243524999Y-147510000D03*
D33*
X239224999Y-147510000D03*
D37*
X238739999Y-147510000D03*
D17*
X239224999Y-149010000D03*
D29*
X238739999Y-149010000D03*
X124590000Y-90435000D03*
D17*
X125075000Y-90435000D03*
D29*
X124590000Y-91935000D03*
D17*
X125075000Y-91935000D03*
D30*
X129375000Y-91935000D03*
D31*
X129860000Y-91935000D03*
D17*
X129375000Y-90435000D03*
D29*
X129860000Y-90435000D03*
D38*
X40090000Y-134550000D03*
D17*
X40790000Y-134550000D03*
D38*
X40090000Y-133250000D03*
D17*
X40790000Y-133250000D03*
X42390000Y-133250000D03*
D38*
X43090000Y-133250000D03*
X43090000Y-134550000D03*
D29*
X244009999Y-72910000D03*
D17*
X243524999Y-72910000D03*
D29*
X244009999Y-71410000D03*
D17*
X243524999Y-71410000D03*
D33*
X239224999Y-71410000D03*
D37*
X238739999Y-71410000D03*
D17*
X239224999Y-72910000D03*
D29*
X238739999Y-72910000D03*
X224985000Y-72910000D03*
D17*
X224500000Y-72910000D03*
D29*
X224985000Y-71410000D03*
D17*
X224500000Y-71410000D03*
D33*
X220200000Y-71410000D03*
D37*
X219715000Y-71410000D03*
D17*
X220200000Y-72910000D03*
D29*
X219715000Y-72910000D03*
D45*
X160698690Y-45665000D03*
D46*
X160673690Y-46215000D03*
X160723690Y-50115000D03*
D36*
X160698690Y-50665000D03*
D29*
X143615000Y-128485000D03*
D17*
X144100000Y-128485000D03*
D29*
X143615000Y-129985000D03*
D17*
X144100000Y-129985000D03*
D30*
X148400000Y-129985000D03*
D31*
X148885000Y-129985000D03*
D17*
X148400000Y-128485000D03*
D29*
X148885000Y-128485000D03*
X48490000Y-128485000D03*
D17*
X48975000Y-128485000D03*
D29*
X48490000Y-129985000D03*
D17*
X48975000Y-129985000D03*
D30*
X53275000Y-129985000D03*
D31*
X53760000Y-129985000D03*
D17*
X53275000Y-128485000D03*
D29*
X53760000Y-128485000D03*
X72785000Y-149010000D03*
D17*
X72300000Y-149010000D03*
D29*
X72785000Y-147510000D03*
D17*
X72300000Y-147510000D03*
D33*
X68000000Y-147510000D03*
D37*
X67515000Y-147510000D03*
D17*
X68000000Y-149010000D03*
D29*
X67515000Y-149010000D03*
D38*
X175760000Y-76350000D03*
D17*
X175060000Y-76350000D03*
D38*
X175760000Y-77650000D03*
D17*
X175060000Y-77650000D03*
X173460000Y-77650000D03*
D38*
X172760000Y-77650000D03*
X172760000Y-76350000D03*
X252260000Y-76350000D03*
D17*
X251560000Y-76350000D03*
D38*
X252260000Y-77650000D03*
D17*
X251560000Y-77650000D03*
X249960000Y-77650000D03*
D38*
X249260000Y-77650000D03*
X249260000Y-76350000D03*
D40*
X28095000Y-133650000D03*
D17*
X29000000Y-133650000D03*
D30*
X30440000Y-133650000D03*
D40*
X31345000Y-133650000D03*
D47*
X236910000Y-52240000D03*
D48*
X236935000Y-51690000D03*
X236885000Y-47790000D03*
D36*
X236910000Y-47240000D03*
D29*
X224985000Y-149010000D03*
D17*
X224500000Y-149010000D03*
D29*
X224985000Y-147510000D03*
D17*
X224500000Y-147510000D03*
D33*
X220200000Y-147510000D03*
D37*
X219715000Y-147510000D03*
D17*
X220200000Y-149010000D03*
D29*
X219715000Y-149010000D03*
X29465000Y-128485000D03*
D17*
X29950000Y-128485000D03*
D29*
X29465000Y-129985000D03*
D17*
X29950000Y-129985000D03*
D30*
X34250000Y-129985000D03*
D31*
X34735000Y-129985000D03*
D17*
X34250000Y-128485000D03*
D29*
X34735000Y-128485000D03*
D20*
X49710000Y-53250000D03*
D41*
X49710000Y-50990000D03*
X49710000Y-47890000D03*
D20*
X49710000Y-45630000D03*
D29*
X162640000Y-90435000D03*
D17*
X163125000Y-90435000D03*
D29*
X162640000Y-91935000D03*
D17*
X163125000Y-91935000D03*
D30*
X167425000Y-91935000D03*
D31*
X167910000Y-91935000D03*
D17*
X167425000Y-90435000D03*
D29*
X167910000Y-90435000D03*
X72785000Y-110960000D03*
D17*
X72300000Y-110960000D03*
D29*
X72785000Y-109460000D03*
D17*
X72300000Y-109460000D03*
D33*
X68000000Y-109460000D03*
D37*
X67515000Y-109460000D03*
D17*
X68000000Y-110960000D03*
D29*
X67515000Y-110960000D03*
X148885000Y-72910000D03*
D17*
X148400000Y-72910000D03*
D29*
X148885000Y-71410000D03*
D17*
X148400000Y-71410000D03*
D33*
X144100000Y-71410000D03*
D37*
X143615000Y-71410000D03*
D17*
X144100000Y-72910000D03*
D29*
X143615000Y-72910000D03*
X67515000Y-90435000D03*
D17*
X68000000Y-90435000D03*
D29*
X67515000Y-91935000D03*
D17*
X68000000Y-91935000D03*
D30*
X72300000Y-91935000D03*
D31*
X72785000Y-91935000D03*
D17*
X72300000Y-90435000D03*
D29*
X72785000Y-90435000D03*
D20*
X55150000Y-55190000D03*
D41*
X55150000Y-52930000D03*
X55150000Y-49830000D03*
D20*
X55150000Y-47570000D03*
X236210000Y-44300000D03*
D44*
X238470000Y-44300000D03*
X241570000Y-44300000D03*
D20*
X243830000Y-44300000D03*
D29*
X129860000Y-72910000D03*
D17*
X129375000Y-72910000D03*
D29*
X129860000Y-71410000D03*
D17*
X129375000Y-71410000D03*
D33*
X125075000Y-71410000D03*
D37*
X124590000Y-71410000D03*
D17*
X125075000Y-72910000D03*
D29*
X124590000Y-72910000D03*
X224985000Y-110960000D03*
D17*
X224500000Y-110960000D03*
D29*
X224985000Y-109460000D03*
D17*
X224500000Y-109460000D03*
D33*
X220200000Y-109460000D03*
D37*
X219715000Y-109460000D03*
D17*
X220200000Y-110960000D03*
D29*
X219715000Y-110960000D03*
X86540000Y-128485000D03*
D17*
X87025000Y-128485000D03*
D29*
X86540000Y-129985000D03*
D17*
X87025000Y-129985000D03*
D30*
X91325000Y-129985000D03*
D31*
X91810000Y-129985000D03*
D17*
X91325000Y-128485000D03*
D29*
X91810000Y-128485000D03*
D38*
X118647344Y-76350000D03*
D17*
X117947344Y-76350000D03*
D38*
X118647344Y-77650000D03*
D17*
X117947344Y-77650000D03*
X116347344Y-77650000D03*
D38*
X115647344Y-77650000D03*
X115647344Y-76350000D03*
D29*
X200690000Y-90435000D03*
D17*
X201175000Y-90435000D03*
D29*
X200690000Y-91935000D03*
D17*
X201175000Y-91935000D03*
D30*
X205475000Y-91935000D03*
D31*
X205960000Y-91935000D03*
D17*
X205475000Y-90435000D03*
D29*
X205960000Y-90435000D03*
D32*
X31365000Y-114620000D03*
D17*
X30460000Y-114620000D03*
D33*
X29020000Y-114620000D03*
D32*
X28115000Y-114620000D03*
D29*
X167910000Y-149010000D03*
D17*
X167425000Y-149010000D03*
D29*
X167910000Y-147510000D03*
D17*
X167425000Y-147510000D03*
D33*
X163125000Y-147510000D03*
D37*
X162640000Y-147510000D03*
D17*
X163125000Y-149010000D03*
D29*
X162640000Y-149010000D03*
X129860000Y-149010000D03*
D17*
X129375000Y-149010000D03*
D29*
X129860000Y-147510000D03*
D17*
X129375000Y-147510000D03*
D33*
X125075000Y-147510000D03*
D37*
X124590000Y-147510000D03*
D17*
X125075000Y-149010000D03*
D29*
X124590000Y-149010000D03*
D40*
X259720000Y-95580000D03*
D17*
X260625000Y-95580000D03*
D30*
X262065000Y-95580000D03*
D40*
X262970000Y-95580000D03*
D45*
X177138690Y-45665000D03*
D46*
X177113690Y-46215000D03*
X177163690Y-50115000D03*
D36*
X177138690Y-50665000D03*
D29*
X143615000Y-90435000D03*
D17*
X144100000Y-90435000D03*
D29*
X143615000Y-91935000D03*
D17*
X144100000Y-91935000D03*
D30*
X148400000Y-91935000D03*
D31*
X148885000Y-91935000D03*
D17*
X148400000Y-90435000D03*
D29*
X148885000Y-90435000D03*
D49*
X50650000Y-42390000D03*
D50*
X50100000Y-42365000D03*
X46200000Y-42415000D03*
D36*
X45650000Y-42390000D03*
D29*
X205960000Y-110960000D03*
D17*
X205475000Y-110960000D03*
D29*
X205960000Y-109460000D03*
D17*
X205475000Y-109460000D03*
D33*
X201175000Y-109460000D03*
D37*
X200690000Y-109460000D03*
D17*
X201175000Y-110960000D03*
D29*
X200690000Y-110960000D03*
X186935000Y-149010000D03*
D17*
X186450000Y-149010000D03*
D29*
X186935000Y-147510000D03*
D17*
X186450000Y-147510000D03*
D33*
X182150000Y-147510000D03*
D37*
X181665000Y-147510000D03*
D17*
X182150000Y-149010000D03*
D29*
X181665000Y-149010000D03*
X148885000Y-110960000D03*
D17*
X148400000Y-110960000D03*
D29*
X148885000Y-109460000D03*
D17*
X148400000Y-109460000D03*
D33*
X144100000Y-109460000D03*
D37*
X143615000Y-109460000D03*
D17*
X144100000Y-110960000D03*
D29*
X143615000Y-110960000D03*
D24*
X40160500Y-91415000D03*
D25*
X40160500Y-89255000D03*
X40160500Y-85955000D03*
D26*
X40160500Y-83795000D03*
D49*
X43070000Y-53580000D03*
D50*
X42520000Y-53555000D03*
X38620000Y-53605000D03*
D36*
X38070000Y-53580000D03*
D38*
X43010000Y-76350000D03*
D17*
X42310000Y-76350000D03*
D38*
X43010000Y-77650000D03*
D17*
X42310000Y-77650000D03*
X40710000Y-77650000D03*
D38*
X40010000Y-77650000D03*
X40010000Y-76350000D03*
D29*
X53760000Y-149010000D03*
D17*
X53275000Y-149010000D03*
D29*
X53760000Y-147510000D03*
D17*
X53275000Y-147510000D03*
D33*
X48975000Y-147510000D03*
D37*
X48490000Y-147510000D03*
D17*
X48975000Y-149010000D03*
D29*
X48490000Y-149010000D03*
X257764999Y-128485000D03*
D17*
X258249999Y-128485000D03*
D29*
X257764999Y-129985000D03*
D17*
X258249999Y-129985000D03*
D30*
X262549999Y-129985000D03*
D31*
X263034999Y-129985000D03*
D17*
X262549999Y-128485000D03*
D29*
X263034999Y-128485000D03*
X238739999Y-90435000D03*
D17*
X239224999Y-90435000D03*
D29*
X238739999Y-91935000D03*
D17*
X239224999Y-91935000D03*
D30*
X243524999Y-91935000D03*
D31*
X244009999Y-91935000D03*
D17*
X243524999Y-90435000D03*
D29*
X244009999Y-90435000D03*
D38*
X115670000Y-134550000D03*
D17*
X116370000Y-134550000D03*
D38*
X115670000Y-133250000D03*
D17*
X116370000Y-133250000D03*
X117970000Y-133250000D03*
D38*
X118670000Y-133250000D03*
X118670000Y-134550000D03*
D29*
X91810000Y-149010000D03*
D17*
X91325000Y-149010000D03*
D29*
X91810000Y-147510000D03*
D17*
X91325000Y-147510000D03*
D33*
X87025000Y-147510000D03*
D37*
X86540000Y-147510000D03*
D17*
X87025000Y-149010000D03*
D29*
X86540000Y-149010000D03*
X167910000Y-72910000D03*
D17*
X167425000Y-72910000D03*
D29*
X167910000Y-71410000D03*
D17*
X167425000Y-71410000D03*
D33*
X163125000Y-71410000D03*
D37*
X162640000Y-71410000D03*
D17*
X163125000Y-72910000D03*
D29*
X162640000Y-72910000D03*
X105565000Y-128485000D03*
D17*
X106050000Y-128485000D03*
D29*
X105565000Y-129985000D03*
D17*
X106050000Y-129985000D03*
D30*
X110350000Y-129985000D03*
D31*
X110835000Y-129985000D03*
D17*
X110350000Y-128485000D03*
D29*
X110835000Y-128485000D03*
X129860000Y-110960000D03*
D17*
X129375000Y-110960000D03*
D29*
X129860000Y-109460000D03*
D17*
X129375000Y-109460000D03*
D33*
X125075000Y-109460000D03*
D37*
X124590000Y-109460000D03*
D17*
X125075000Y-110960000D03*
D29*
X124590000Y-110960000D03*
X244009999Y-110960000D03*
D17*
X243524999Y-110960000D03*
D29*
X244009999Y-109460000D03*
D17*
X243524999Y-109460000D03*
D33*
X239224999Y-109460000D03*
D37*
X238739999Y-109460000D03*
D17*
X239224999Y-110960000D03*
D29*
X238739999Y-110960000D03*
X205960000Y-72910000D03*
D17*
X205475000Y-72910000D03*
D29*
X205960000Y-71410000D03*
D17*
X205475000Y-71410000D03*
D33*
X201175000Y-71410000D03*
D37*
X200690000Y-71410000D03*
D17*
X201175000Y-72910000D03*
D29*
X200690000Y-72910000D03*
D51*
X45497401Y-59250000D02*
X60035382Y-59250000D01*
X40160500Y-121845000D02*
X40160500Y-124005000D01*
X41390000Y-140050588D02*
X41390000Y-122348596D01*
X187228690Y-40404956D02*
X187228690Y-44265000D01*
X40160500Y-83795000D02*
X40160500Y-85955000D01*
X40737765Y-83795000D02*
X40160500Y-83795000D01*
X40160500Y-83795000D02*
X40754836Y-83795000D01*
X40688849Y-63050000D02*
X43278162Y-63050000D01*
X40934082Y-64770000D02*
X40160500Y-64770000D01*
X40160500Y-63578349D02*
X40160500Y-64770000D01*
X61060500Y-58224882D02*
X61060500Y-41891522D01*
X40160500Y-102820000D02*
X40678016Y-102820000D01*
X63552022Y-39400000D02*
X186223733Y-39400000D01*
X41310500Y-84367734D02*
X41310500Y-102187516D01*
X40160500Y-121845000D02*
X40886403Y-121845000D01*
X40535250Y-140870000D02*
X40570588Y-140870000D01*
X44200000Y-60547401D02*
X44200000Y-62128162D01*
X40160500Y-102820000D02*
X40160500Y-104980000D01*
X40160500Y-102820000D02*
X41210294Y-102820000D01*
X40160500Y-141244750D02*
X40160500Y-143030000D01*
X41310500Y-83239336D02*
X41310500Y-65146417D01*
X40160500Y-64770000D02*
X40160500Y-66930000D01*
X41620000Y-121375545D02*
X41620000Y-103229705D01*
X41150545Y-121845000D02*
X40160500Y-121845000D01*
X41200250Y-64880250D02*
G75*
G02*
X41310493Y-65146417I-266150J-266150D01*
G01*
X63552022Y-39400000D02*
G75*
G03*
X61790243Y-40129743I-22J-2491500D01*
G01*
X41310500Y-102187516D02*
G75*
G02*
X41125245Y-102634745I-632500J16D01*
G01*
X41150000Y-140630000D02*
G75*
G02*
X40570588Y-140869995I-579400J579400D01*
G01*
X41390000Y-140050588D02*
G75*
G02*
X41150003Y-140630003I-819400J-12D01*
G01*
X43930000Y-62780000D02*
G75*
G02*
X43278162Y-63049984I-651800J651800D01*
G01*
X60760250Y-58949750D02*
G75*
G02*
X60035382Y-59249993I-724850J724850D01*
G01*
X186934345Y-39694345D02*
G75*
G03*
X186223733Y-39399989I-710645J-710655D01*
G01*
X40535250Y-140870000D02*
G75*
G03*
X40160500Y-141244750I-50J-374700D01*
G01*
X44200000Y-62128162D02*
G75*
G02*
X43930011Y-62780011I-921800J-38D01*
G01*
X41500000Y-102940000D02*
G75*
G03*
X41210294Y-102820002I-289700J-289700D01*
G01*
X61060500Y-58224882D02*
G75*
G02*
X60760255Y-58949755I-1025100J-18D01*
G01*
X40315250Y-63204750D02*
G75*
G03*
X40160521Y-63578349I373550J-373550D01*
G01*
X41142750Y-83962750D02*
G75*
G02*
X41310486Y-84367734I-404950J-404950D01*
G01*
X41620000Y-121375545D02*
G75*
G02*
X41482487Y-121707487I-469500J45D01*
G01*
X41242500Y-121992500D02*
G75*
G02*
X41390001Y-122348596I-356100J-356100D01*
G01*
X41147750Y-83632250D02*
G75*
G02*
X40754836Y-83795015I-392950J392950D01*
G01*
X186934345Y-39694345D02*
G75*
G02*
X187228711Y-40404956I-710645J-710655D01*
G01*
X41310500Y-83239336D02*
G75*
G02*
X41147739Y-83632239I-555700J36D01*
G01*
X41142750Y-83962750D02*
G75*
G03*
X40737765Y-83795014I-404950J-404950D01*
G01*
X61790250Y-40129750D02*
G75*
G03*
X61060509Y-41891522I1761750J-1761750D01*
G01*
X41125250Y-102634750D02*
G75*
G02*
X40678016Y-102820007I-447250J447250D01*
G01*
X45497401Y-59250000D02*
G75*
G03*
X44580000Y-59630000I-1J-1297400D01*
G01*
X41500000Y-102940000D02*
G75*
G02*
X41619998Y-103229705I-289700J-289700D01*
G01*
X44580000Y-59630000D02*
G75*
G03*
X44200000Y-60547401I917400J-917400D01*
G01*
X41242500Y-121992500D02*
G75*
G03*
X40886403Y-121844999I-356100J-356100D01*
G01*
X41200250Y-64880250D02*
G75*
G03*
X40934082Y-64770007I-266150J-266150D01*
G01*
X41482500Y-121707500D02*
G75*
G02*
X41150545Y-121845019I-332000J332000D01*
G01*
X40688849Y-63050000D02*
G75*
G03*
X40315235Y-63204735I-49J-528300D01*
G01*
X41710500Y-84366027D02*
X41710500Y-101933158D01*
X43035500Y-102820000D02*
X43035500Y-104980000D01*
X43035500Y-83795000D02*
X43035500Y-85955000D01*
X41710500Y-83326399D02*
X41710500Y-65264207D01*
X43035500Y-121845000D02*
X42295000Y-121845000D01*
X45786690Y-59650000D02*
X60230529Y-59650000D01*
X44660000Y-60776690D02*
X44660000Y-63967659D01*
X43035500Y-64770000D02*
X43035500Y-66930000D01*
X41790000Y-122382738D02*
X41790000Y-138743798D01*
X43035500Y-102820000D02*
X42532132Y-102820000D01*
X42179100Y-83795000D02*
X43035500Y-83795000D01*
X42295000Y-121845000D02*
X42157500Y-121707500D01*
X43035500Y-121845000D02*
X43035500Y-124005000D01*
X43035500Y-102820000D02*
X42597341Y-102820000D01*
X171268266Y-39800000D02*
X63866667Y-39800000D01*
X42020000Y-103332132D02*
X42020000Y-121375545D01*
X61460500Y-42206167D02*
X61460500Y-58420029D01*
X42200000Y-121845000D02*
X42295000Y-121845000D01*
X43035500Y-141750701D02*
X43035500Y-143030000D01*
X42281527Y-83795000D02*
X43035500Y-83795000D01*
X172045000Y-40576733D02*
X172045000Y-44265000D01*
X42037824Y-121912175D02*
X41947500Y-122002500D01*
X43035500Y-64770000D02*
X43857659Y-64770000D01*
X42204707Y-64770000D02*
X43035500Y-64770000D01*
X42204707Y-64770000D02*
G75*
G03*
X41855248Y-64914748I-7J-494200D01*
G01*
X44990000Y-59980000D02*
G75*
G03*
X44659996Y-60776690I796700J-796700D01*
G01*
X62165250Y-40504750D02*
G75*
G03*
X61460486Y-42206167I1701450J-1701450D01*
G01*
X42412750Y-140247250D02*
G75*
G02*
X43035499Y-141750701I-1503450J-1503450D01*
G01*
X41877750Y-83962250D02*
G75*
G03*
X41710511Y-84366027I403750J-403750D01*
G01*
X44660000Y-63967659D02*
G75*
G02*
X44425032Y-64535032I-802400J-41D01*
G01*
X44425000Y-64535000D02*
G75*
G02*
X43857659Y-64769954I-567300J567400D01*
G01*
X45786690Y-59650000D02*
G75*
G03*
X44990003Y-59980003I10J-1126700D01*
G01*
X41710500Y-83326399D02*
G75*
G03*
X41847750Y-83657750I468600J-1D01*
G01*
X61460500Y-58420029D02*
G75*
G02*
X61100241Y-59289741I-1230000J29D01*
G01*
X41847750Y-83657750D02*
G75*
G03*
X42179100Y-83795000I331350J331350D01*
G01*
X42532132Y-102820000D02*
G75*
G03*
X42169991Y-102969991I-32J-512100D01*
G01*
X42020000Y-121375545D02*
G75*
G03*
X42157513Y-121707487I469500J45D01*
G01*
X63866667Y-39800000D02*
G75*
G03*
X62165260Y-40504760I33J-2406200D01*
G01*
X41947500Y-122002500D02*
G75*
G03*
X41790016Y-122382738I380200J-380200D01*
G01*
X42170000Y-102970000D02*
G75*
G03*
X42020013Y-103332132I362100J-362100D01*
G01*
X171817500Y-40027500D02*
G75*
G03*
X171268266Y-39800014I-549200J-549200D01*
G01*
X41855250Y-64914750D02*
G75*
G03*
X41710503Y-65264207I349450J-349450D01*
G01*
X42200000Y-121845000D02*
G75*
G03*
X42037814Y-121912165I0J-229400D01*
G01*
X61100250Y-59289750D02*
G75*
G02*
X60230529Y-59650012I-869750J869750D01*
G01*
X41790000Y-138743798D02*
G75*
G03*
X42412750Y-140247250I2126200J-2D01*
G01*
X42281527Y-83795000D02*
G75*
G03*
X41877742Y-83962242I-27J-571000D01*
G01*
X41710500Y-101933158D02*
G75*
G03*
X41970238Y-102560262I886800J-42D01*
G01*
X171817500Y-40027500D02*
G75*
G02*
X172044986Y-40576733I-549200J-549200D01*
G01*
X41970250Y-102560250D02*
G75*
G03*
X42597341Y-102819983I627050J627050D01*
G01*
X60600000Y-102790000D02*
X61850500Y-102790000D01*
X60879411Y-64740000D02*
X61850500Y-64740000D01*
X60623345Y-140840000D02*
X61850500Y-140840000D01*
X60655000Y-121815000D02*
X61850500Y-121815000D01*
X60060000Y-65559411D02*
X60060000Y-82715129D01*
X60675000Y-83765000D02*
X60367500Y-83457500D01*
X61860500Y-85955000D02*
X61860500Y-83795000D01*
X61860500Y-104980000D02*
X61860500Y-102820000D01*
X60600000Y-102790000D02*
X60330000Y-103060000D01*
X60600000Y-102790000D02*
X60330000Y-102520000D01*
X60060000Y-103711837D02*
X60060000Y-120866949D01*
X61860500Y-42674451D02*
X61860500Y-64770000D01*
X170765000Y-41284012D02*
X170765000Y-44265000D01*
X60357500Y-122112500D02*
X60655000Y-121815000D01*
X60675000Y-83765000D02*
X61850500Y-83765000D01*
X60060000Y-101868162D02*
X60060000Y-84814870D01*
X61860500Y-143030000D02*
X61860500Y-140870000D01*
X60617500Y-121827500D02*
X60345000Y-121555000D01*
X64334951Y-40200000D02*
X169680987Y-40200000D01*
X61860500Y-64770000D02*
X61860500Y-66930000D01*
X60675000Y-83765000D02*
X60367500Y-84072500D01*
X61860500Y-124005000D02*
X61860500Y-121845000D01*
X60642500Y-121827500D02*
X60655000Y-121815000D01*
X60060000Y-122830728D02*
X60060000Y-140276654D01*
X60300000Y-64980000D02*
G75*
G03*
X60060005Y-65559411I579400J-579400D01*
G01*
X64334951Y-40200000D02*
G75*
G03*
X62585235Y-40924735I-51J-2474400D01*
G01*
X60225000Y-140675000D02*
G75*
G03*
X60623345Y-140839952I398300J398400D01*
G01*
X60367500Y-84072500D02*
G75*
G03*
X60059988Y-84814870I742400J-742400D01*
G01*
X60330000Y-103060000D02*
G75*
G03*
X60060016Y-103711837I651800J-651800D01*
G01*
X60060000Y-120866949D02*
G75*
G03*
X60345014Y-121554986I973100J49D01*
G01*
X60060000Y-82715129D02*
G75*
G03*
X60367509Y-83457491I1049900J29D01*
G01*
X60060000Y-140276654D02*
G75*
G03*
X60224987Y-140675013I563300J-46D01*
G01*
X60357500Y-122112500D02*
G75*
G03*
X60060012Y-122830728I718200J-718200D01*
G01*
X170447500Y-40517500D02*
G75*
G03*
X169680987Y-40200005I-766500J-766500D01*
G01*
X170447500Y-40517500D02*
G75*
G02*
X170764995Y-41284012I-766500J-766500D01*
G01*
X62585250Y-40924750D02*
G75*
G03*
X61860521Y-42674451I1749650J-1749650D01*
G01*
X60617500Y-121827500D02*
G75*
G03*
X60642500Y-121827500I12500J12502D01*
G01*
X60879411Y-64740000D02*
G75*
G03*
X60299997Y-64979997I-11J-819400D01*
G01*
X60060000Y-101868162D02*
G75*
G03*
X60329989Y-102520011I921800J-38D01*
G01*
X79839411Y-64800000D02*
X80810500Y-64800000D01*
X79020000Y-103771837D02*
X79020000Y-120926949D01*
X80885500Y-64770000D02*
X80885500Y-66930000D01*
X79615000Y-121875000D02*
X79317500Y-122172500D01*
X80885500Y-43868255D02*
X80885500Y-64770000D01*
X79020000Y-140336654D02*
X79020000Y-122890728D01*
X79327500Y-83517500D02*
X79635000Y-83825000D01*
X80885500Y-124005000D02*
X80885500Y-121845000D01*
X79615000Y-121875000D02*
X80810500Y-121875000D01*
X79577500Y-121887500D02*
X79305000Y-121615000D01*
X80885500Y-85955000D02*
X80885500Y-83795000D01*
X79635000Y-83825000D02*
X80810500Y-83825000D01*
X79020000Y-82775129D02*
X79020000Y-65619411D01*
X79020000Y-101928162D02*
X79020000Y-84874870D01*
X79327500Y-84132500D02*
X79635000Y-83825000D01*
X169505000Y-41257236D02*
X169505000Y-44265000D01*
X84153755Y-40600000D02*
X168847763Y-40600000D01*
X79602500Y-121887500D02*
X79615000Y-121875000D01*
X79560000Y-102850000D02*
X80810500Y-102850000D01*
X79560000Y-102850000D02*
X79290000Y-102580000D01*
X80885500Y-104980000D02*
X80885500Y-102820000D01*
X80885500Y-143030000D02*
X80885500Y-140870000D01*
X79560000Y-102850000D02*
X79290000Y-103120000D01*
X79583345Y-140900000D02*
X80810500Y-140900000D01*
X79577500Y-121887500D02*
G75*
G03*
X79602500Y-121887500I12500J12502D01*
G01*
X79185000Y-140735000D02*
G75*
G03*
X79583345Y-140899952I398300J398400D01*
G01*
X79020000Y-101928162D02*
G75*
G03*
X79289989Y-102580011I921800J-38D01*
G01*
X79020000Y-82775129D02*
G75*
G03*
X79327509Y-83517491I1049900J29D01*
G01*
X81842750Y-41557250D02*
G75*
G03*
X80885482Y-43868255I2311050J-2311050D01*
G01*
X169312500Y-40792500D02*
G75*
G02*
X169504985Y-41257236I-464700J-464700D01*
G01*
X79317500Y-122172500D02*
G75*
G03*
X79020012Y-122890728I718200J-718200D01*
G01*
X79260000Y-65040000D02*
G75*
G03*
X79020005Y-65619411I579400J-579400D01*
G01*
X79290000Y-103120000D02*
G75*
G03*
X79020016Y-103771837I651800J-651800D01*
G01*
X79839411Y-64800000D02*
G75*
G03*
X79259997Y-65039997I-11J-819400D01*
G01*
X79020000Y-120926949D02*
G75*
G03*
X79305014Y-121614986I973100J49D01*
G01*
X79020000Y-140336654D02*
G75*
G03*
X79184987Y-140735013I563300J-46D01*
G01*
X169312500Y-40792500D02*
G75*
G03*
X168847763Y-40600015I-464700J-464700D01*
G01*
X84153755Y-40600000D02*
G75*
G03*
X81842763Y-41557263I45J-3268300D01*
G01*
X79327500Y-84132500D02*
G75*
G03*
X79019988Y-84874870I742400J-742400D01*
G01*
X167458266Y-41000000D02*
X102197169Y-41000000D01*
X98755000Y-83735000D02*
X99930500Y-83735000D01*
X99910500Y-64770000D02*
X99910500Y-66930000D01*
X98447500Y-83427500D02*
X98755000Y-83735000D01*
X98959411Y-64710000D02*
X99930500Y-64710000D01*
X99910500Y-85955000D02*
X99910500Y-83795000D01*
X99910500Y-124005000D02*
X99910500Y-121845000D01*
X98680000Y-102760000D02*
X98410000Y-102490000D01*
X98140000Y-140246654D02*
X98140000Y-122800728D01*
X98140000Y-103681837D02*
X98140000Y-120836949D01*
X168235000Y-41776733D02*
X168235000Y-44265000D01*
X98703345Y-140810000D02*
X99930500Y-140810000D01*
X98140000Y-82685129D02*
X98140000Y-65529411D01*
X98680000Y-102760000D02*
X98410000Y-103030000D01*
X98735000Y-121785000D02*
X99930500Y-121785000D01*
X99910500Y-64770000D02*
X99910500Y-43286669D01*
X98735000Y-121785000D02*
X98437500Y-122082500D01*
X98680000Y-102760000D02*
X99930500Y-102760000D01*
X99910500Y-143030000D02*
X99910500Y-140870000D01*
X98447500Y-84042500D02*
X98755000Y-83735000D01*
X99910500Y-104980000D02*
X99910500Y-102820000D01*
X98697500Y-121797500D02*
X98425000Y-121525000D01*
X98140000Y-101838162D02*
X98140000Y-84784870D01*
X98722500Y-121797500D02*
X98735000Y-121785000D01*
X98140000Y-140246654D02*
G75*
G03*
X98304987Y-140645013I563300J-46D01*
G01*
X98959411Y-64710000D02*
G75*
G03*
X98379997Y-64949997I-11J-819400D01*
G01*
X102197169Y-41000000D02*
G75*
G03*
X100580259Y-41669759I31J-2286700D01*
G01*
X98140000Y-120836949D02*
G75*
G03*
X98425014Y-121524986I973100J49D01*
G01*
X98447500Y-84042500D02*
G75*
G03*
X98139988Y-84784870I742400J-742400D01*
G01*
X98437500Y-122082500D02*
G75*
G03*
X98140012Y-122800728I718200J-718200D01*
G01*
X100580250Y-41669750D02*
G75*
G03*
X99910487Y-43286669I1616950J-1616950D01*
G01*
X168007500Y-41227500D02*
G75*
G02*
X168234986Y-41776733I-549200J-549200D01*
G01*
X98140000Y-101838162D02*
G75*
G03*
X98409989Y-102490011I921800J-38D01*
G01*
X98305000Y-140645000D02*
G75*
G03*
X98703345Y-140809952I398300J398400D01*
G01*
X98410000Y-103030000D02*
G75*
G03*
X98140016Y-103681837I651800J-651800D01*
G01*
X168007500Y-41227500D02*
G75*
G03*
X167458266Y-41000014I-549200J-549200D01*
G01*
X98140000Y-82685129D02*
G75*
G03*
X98447509Y-83427491I1049900J29D01*
G01*
X98697500Y-121797500D02*
G75*
G03*
X98722500Y-121797500I12500J12502D01*
G01*
X98380000Y-64950000D02*
G75*
G03*
X98140005Y-65529411I579400J-579400D01*
G01*
X117735000Y-121845000D02*
X118930500Y-121845000D01*
X118935500Y-104980000D02*
X118935500Y-102820000D01*
X117140000Y-120896949D02*
X117140000Y-103741837D01*
X166955000Y-42313302D02*
X166955000Y-44265000D01*
X118935500Y-124005000D02*
X118935500Y-121845000D01*
X117140000Y-101898162D02*
X117140000Y-84844870D01*
X117447500Y-84102500D02*
X117755000Y-83795000D01*
X117680000Y-102820000D02*
X117410000Y-103090000D01*
X117680000Y-102820000D02*
X118930500Y-102820000D01*
X166041697Y-41400000D02*
X121640410Y-41400000D01*
X117410000Y-102550000D02*
X117680000Y-102820000D01*
X118935500Y-64770000D02*
X118935500Y-66930000D01*
X118935500Y-44104910D02*
X118935500Y-64770000D01*
X118935500Y-85955000D02*
X118935500Y-83795000D01*
X117425000Y-121585000D02*
X117697500Y-121857500D01*
X118935500Y-143030000D02*
X118935500Y-140870000D01*
X117959411Y-64770000D02*
X118930500Y-64770000D01*
X117755000Y-83795000D02*
X117447500Y-83487500D01*
X117735000Y-121845000D02*
X117437500Y-122142500D01*
X117703345Y-140870000D02*
X118930500Y-140870000D01*
X117140000Y-65589411D02*
X117140000Y-82745129D01*
X117755000Y-83795000D02*
X118930500Y-83795000D01*
X117140000Y-140306654D02*
X117140000Y-122860728D01*
X117735000Y-121845000D02*
X117722500Y-121857500D01*
X117380000Y-65010000D02*
G75*
G03*
X117140005Y-65589411I579400J-579400D01*
G01*
X117447500Y-84102500D02*
G75*
G03*
X117139988Y-84844870I742400J-742400D01*
G01*
X166687500Y-41667500D02*
G75*
G03*
X166041697Y-41400001I-645800J-645800D01*
G01*
X117305000Y-140705000D02*
G75*
G03*
X117703345Y-140869952I398300J398400D01*
G01*
X117959411Y-64770000D02*
G75*
G03*
X117379997Y-65009997I-11J-819400D01*
G01*
X117437500Y-122142500D02*
G75*
G03*
X117140012Y-122860728I718200J-718200D01*
G01*
X117697500Y-121857500D02*
G75*
G03*
X117722500Y-121857500I12500J12502D01*
G01*
X117410000Y-103090000D02*
G75*
G03*
X117140016Y-103741837I651800J-651800D01*
G01*
X117140000Y-101898162D02*
G75*
G03*
X117409989Y-102550011I921800J-38D01*
G01*
X166687500Y-41667500D02*
G75*
G02*
X166954999Y-42313302I-645800J-645800D01*
G01*
X117140000Y-120896949D02*
G75*
G03*
X117425014Y-121584986I973100J49D01*
G01*
X117140000Y-140306654D02*
G75*
G03*
X117304987Y-140705013I563300J-46D01*
G01*
X121640410Y-41400000D02*
G75*
G03*
X119727747Y-42192247I-10J-2704900D01*
G01*
X119727750Y-42192250D02*
G75*
G03*
X118935504Y-44104910I1912650J-1912650D01*
G01*
X117140000Y-82745129D02*
G75*
G03*
X117447509Y-83487491I1049900J29D01*
G01*
X136490000Y-102530000D02*
X136760000Y-102800000D01*
X164839982Y-41800000D02*
X139547255Y-41800000D01*
X136815000Y-121825000D02*
X136802500Y-121837500D01*
X137960500Y-143030000D02*
X137960500Y-140870000D01*
X137960500Y-64770000D02*
X137960500Y-43386755D01*
X136220000Y-65569411D02*
X136220000Y-82725129D01*
X137960500Y-64770000D02*
X137960500Y-66930000D01*
X136835000Y-83775000D02*
X136527500Y-83467500D01*
X136490000Y-103070000D02*
X136760000Y-102800000D01*
X136783345Y-140850000D02*
X138010500Y-140850000D01*
X136527500Y-84082500D02*
X136835000Y-83775000D01*
X136220000Y-103721837D02*
X136220000Y-120876949D01*
X137960500Y-104980000D02*
X137960500Y-102820000D01*
X136220000Y-140286654D02*
X136220000Y-122840728D01*
X136815000Y-121825000D02*
X138010500Y-121825000D01*
X136835000Y-83775000D02*
X138010500Y-83775000D01*
X165685000Y-42645017D02*
X165685000Y-44265000D01*
X137960500Y-124005000D02*
X137960500Y-121845000D01*
X136815000Y-121825000D02*
X136517500Y-122122500D01*
X136760000Y-102800000D02*
X138010500Y-102800000D01*
X137039411Y-64750000D02*
X138010500Y-64750000D01*
X136220000Y-101878162D02*
X136220000Y-84824870D01*
X136505000Y-121565000D02*
X136777500Y-121837500D01*
X137960500Y-85955000D02*
X137960500Y-83795000D01*
X138425250Y-42264750D02*
G75*
G03*
X137960452Y-43386755I1121950J-1122050D01*
G01*
X136777500Y-121837500D02*
G75*
G03*
X136802500Y-121837500I12500J12502D01*
G01*
X136220000Y-101878162D02*
G75*
G03*
X136489989Y-102530011I921800J-38D01*
G01*
X136220000Y-82725129D02*
G75*
G03*
X136527509Y-83467491I1049900J29D01*
G01*
X136517500Y-122122500D02*
G75*
G03*
X136220012Y-122840728I718200J-718200D01*
G01*
X139547255Y-41800000D02*
G75*
G03*
X138425284Y-42264784I45J-1586700D01*
G01*
X136490000Y-103070000D02*
G75*
G03*
X136220016Y-103721837I651800J-651800D01*
G01*
X136220000Y-120876949D02*
G75*
G03*
X136505014Y-121564986I973100J49D01*
G01*
X136220000Y-140286654D02*
G75*
G03*
X136384987Y-140685013I563300J-46D01*
G01*
X136527500Y-84082500D02*
G75*
G03*
X136219988Y-84824870I742400J-742400D01*
G01*
X137039411Y-64750000D02*
G75*
G03*
X136459997Y-64989997I-11J-819400D01*
G01*
X136385000Y-140685000D02*
G75*
G03*
X136783345Y-140849952I398300J398400D01*
G01*
X136460000Y-64990000D02*
G75*
G03*
X136220005Y-65569411I579400J-579400D01*
G01*
X165437500Y-42047500D02*
G75*
G02*
X165684993Y-42645017I-597500J-597500D01*
G01*
X165437500Y-42047500D02*
G75*
G03*
X164839982Y-41800007I-597500J-597500D01*
G01*
X155567500Y-122182500D02*
X155865000Y-121885000D01*
X155810000Y-102860000D02*
X155540000Y-103130000D01*
X158530000Y-63711593D02*
X158530000Y-43719325D01*
X155270000Y-101938162D02*
X155270000Y-84884870D01*
X155865000Y-121885000D02*
X157060500Y-121885000D01*
X155885000Y-83835000D02*
X155577500Y-83527500D01*
X155852500Y-121897500D02*
X155865000Y-121885000D01*
X155827500Y-121897500D02*
X155555000Y-121625000D01*
X155810000Y-102860000D02*
X157060500Y-102860000D01*
X156985500Y-85955000D02*
X156985500Y-83795000D01*
X155885000Y-83835000D02*
X155577500Y-84142500D01*
X156985500Y-124005000D02*
X156985500Y-121845000D01*
X156985500Y-65232250D02*
X156985500Y-66930000D01*
X156985500Y-143030000D02*
X156985500Y-140870000D01*
X156089411Y-64810000D02*
X157060500Y-64810000D01*
X155270000Y-103781837D02*
X155270000Y-120936949D01*
X155833345Y-140910000D02*
X157060500Y-140910000D01*
X155270000Y-122900728D02*
X155270000Y-140346654D01*
X164425000Y-43164515D02*
X164425000Y-44265000D01*
X163460484Y-42200000D02*
X160049325Y-42200000D01*
X155885000Y-83835000D02*
X157060500Y-83835000D01*
X155270000Y-65629411D02*
X155270000Y-82785129D01*
X156985500Y-104980000D02*
X156985500Y-102820000D01*
X155810000Y-102860000D02*
X155540000Y-102590000D01*
X157447750Y-64770000D02*
X157471593Y-64770000D01*
X155270000Y-120936949D02*
G75*
G03*
X155555014Y-121624986I973100J49D01*
G01*
X157447750Y-64770000D02*
G75*
G03*
X156985500Y-65232250I-50J-462200D01*
G01*
X155510000Y-65050000D02*
G75*
G03*
X155270005Y-65629411I579400J-579400D01*
G01*
X155270000Y-140346654D02*
G75*
G03*
X155434987Y-140745013I563300J-46D01*
G01*
X156089411Y-64810000D02*
G75*
G03*
X155509997Y-65049997I-11J-819400D01*
G01*
X158530000Y-63711593D02*
G75*
G02*
X158220002Y-64460002I-1058400J-7D01*
G01*
X155435000Y-140745000D02*
G75*
G03*
X155833345Y-140909952I398300J398400D01*
G01*
X155270000Y-82785129D02*
G75*
G03*
X155577509Y-83527491I1049900J29D01*
G01*
X158975000Y-42645000D02*
G75*
G03*
X158530010Y-43719325I1074300J-1074300D01*
G01*
X155827500Y-121897500D02*
G75*
G03*
X155852500Y-121897500I12500J12502D01*
G01*
X155540000Y-103130000D02*
G75*
G03*
X155270016Y-103781837I651800J-651800D01*
G01*
X160049325Y-42200000D02*
G75*
G03*
X158974993Y-42644993I-25J-1519300D01*
G01*
X164142500Y-42482500D02*
G75*
G02*
X164424994Y-43164515I-682000J-682000D01*
G01*
X164142500Y-42482500D02*
G75*
G03*
X163460484Y-42200006I-682000J-682000D01*
G01*
X155577500Y-84142500D02*
G75*
G03*
X155269988Y-84884870I742400J-742400D01*
G01*
X158220000Y-64460000D02*
G75*
G02*
X157471593Y-64769997I-748400J748400D01*
G01*
X155270000Y-101938162D02*
G75*
G03*
X155539989Y-102590011I921800J-38D01*
G01*
X155567500Y-122182500D02*
G75*
G03*
X155270012Y-122900728I718200J-718200D01*
G01*
X174813345Y-140920000D02*
X176040500Y-140920000D01*
X174557500Y-84152500D02*
X174865000Y-83845000D01*
X174250000Y-82795129D02*
X174250000Y-65639411D01*
X174547500Y-122192500D02*
X174845000Y-121895000D01*
X174807500Y-121907500D02*
X174535000Y-121635000D01*
X185968690Y-40728388D02*
X185968690Y-44265000D01*
X176010500Y-85955000D02*
X176010500Y-83795000D01*
X174557500Y-83537500D02*
X174865000Y-83845000D01*
X176010500Y-124005000D02*
X176010500Y-121845000D01*
X176010500Y-64770000D02*
X176010500Y-66930000D01*
X174845000Y-121895000D02*
X176040500Y-121895000D01*
X175139021Y-60550000D02*
X174270624Y-60550000D01*
X176010500Y-64770000D02*
X176010500Y-61421478D01*
X174250000Y-101948162D02*
X174250000Y-84894870D01*
X175021751Y-39860000D02*
X185100301Y-39860000D01*
X174250000Y-122910728D02*
X174250000Y-140356654D01*
X174250000Y-103791837D02*
X174250000Y-120946949D01*
X176010500Y-104980000D02*
X176010500Y-102820000D01*
X174790000Y-102870000D02*
X174520000Y-103140000D01*
X174865000Y-83845000D02*
X176040500Y-83845000D01*
X176010500Y-143030000D02*
X176010500Y-140870000D01*
X174790000Y-102870000D02*
X176040500Y-102870000D01*
X174832500Y-121907500D02*
X174845000Y-121895000D01*
X173400000Y-41481751D02*
X173400000Y-59679375D01*
X175069411Y-64820000D02*
X176040500Y-64820000D01*
X174790000Y-102870000D02*
X174520000Y-102600000D01*
X175069411Y-64820000D02*
G75*
G03*
X174489997Y-65059997I-11J-819400D01*
G01*
X185714345Y-40114345D02*
G75*
G02*
X185968698Y-40728388I-614045J-614055D01*
G01*
X174250000Y-140356654D02*
G75*
G03*
X174414987Y-140755013I563300J-46D01*
G01*
X174415000Y-140755000D02*
G75*
G03*
X174813345Y-140919952I398300J398400D01*
G01*
X173400000Y-59679375D02*
G75*
G03*
X173654993Y-60295007I870600J-25D01*
G01*
X174547500Y-122192500D02*
G75*
G03*
X174250012Y-122910728I718200J-718200D01*
G01*
X174250000Y-101948162D02*
G75*
G03*
X174519989Y-102600011I921800J-38D01*
G01*
X173875000Y-40335000D02*
G75*
G03*
X173400021Y-41481751I1146700J-1146700D01*
G01*
X174557500Y-84152500D02*
G75*
G03*
X174249988Y-84894870I742400J-742400D01*
G01*
X174250000Y-120946949D02*
G75*
G03*
X174535014Y-121634986I973100J49D01*
G01*
X173655000Y-60295000D02*
G75*
G03*
X174270624Y-60549990I615600J615600D01*
G01*
X174250000Y-82795129D02*
G75*
G03*
X174557509Y-83537491I1049900J29D01*
G01*
X175755250Y-60805250D02*
G75*
G02*
X176010509Y-61421478I-616250J-616250D01*
G01*
X175755250Y-60805250D02*
G75*
G03*
X175139021Y-60549991I-616250J-616250D01*
G01*
X174807500Y-121907500D02*
G75*
G03*
X174832500Y-121907500I12500J12502D01*
G01*
X175021751Y-39860000D02*
G75*
G03*
X173874985Y-40334985I-51J-1621700D01*
G01*
X174490000Y-65060000D02*
G75*
G03*
X174250005Y-65639411I579400J-579400D01*
G01*
X185714345Y-40114345D02*
G75*
G03*
X185100301Y-39860002I-614045J-614055D01*
G01*
X174520000Y-103140000D02*
G75*
G03*
X174250016Y-103791837I651800J-651800D01*
G01*
X193847500Y-121927500D02*
X193575000Y-121655000D01*
X193853345Y-140940000D02*
X195080500Y-140940000D01*
X195035500Y-85955000D02*
X195035500Y-83795000D01*
X195035500Y-64770000D02*
X195035500Y-66930000D01*
X195035500Y-124005000D02*
X195035500Y-121845000D01*
X173800000Y-41563259D02*
X173800000Y-59433015D01*
X193905000Y-83865000D02*
X195080500Y-83865000D01*
X193597500Y-84172500D02*
X193905000Y-83865000D01*
X194109411Y-64840000D02*
X195080500Y-64840000D01*
X193885000Y-121915000D02*
X195080500Y-121915000D01*
X184698690Y-41168388D02*
X184698690Y-44265000D01*
X195035500Y-143030000D02*
X195035500Y-140870000D01*
X193597500Y-83557500D02*
X193905000Y-83865000D01*
X193587500Y-122212500D02*
X193885000Y-121915000D01*
X193290000Y-101968162D02*
X193290000Y-84914870D01*
X193872500Y-121927500D02*
X193885000Y-121915000D01*
X195035500Y-64770000D02*
X195035500Y-61388505D01*
X193830000Y-102890000D02*
X195080500Y-102890000D01*
X193290000Y-122930728D02*
X193290000Y-140376654D01*
X183830301Y-40300000D02*
X175063259Y-40300000D01*
X195035500Y-104980000D02*
X195035500Y-102820000D01*
X193796994Y-60150000D02*
X174516984Y-60150000D01*
X193830000Y-102890000D02*
X193560000Y-102620000D01*
X193290000Y-103811837D02*
X193290000Y-120966949D01*
X193290000Y-82815129D02*
X193290000Y-65659411D01*
X193830000Y-102890000D02*
X193560000Y-103160000D01*
X194672750Y-60512750D02*
G75*
G02*
X195035498Y-61388505I-875750J-875750D01*
G01*
X193290000Y-140376654D02*
G75*
G03*
X193454987Y-140775013I563300J-46D01*
G01*
X193560000Y-103160000D02*
G75*
G03*
X193290016Y-103811837I651800J-651800D01*
G01*
X194109411Y-64840000D02*
G75*
G03*
X193529997Y-65079997I-11J-819400D01*
G01*
X184444345Y-40554345D02*
G75*
G02*
X184698698Y-41168388I-614045J-614055D01*
G01*
X193847500Y-121927500D02*
G75*
G03*
X193872500Y-121927500I12500J12502D01*
G01*
X173800000Y-59433015D02*
G75*
G03*
X174010004Y-59939996I717000J15D01*
G01*
X193587500Y-122212500D02*
G75*
G03*
X193290012Y-122930728I718200J-718200D01*
G01*
X184444345Y-40554345D02*
G75*
G03*
X183830301Y-40300002I-614045J-614055D01*
G01*
X193530000Y-65080000D02*
G75*
G03*
X193290005Y-65659411I579400J-579400D01*
G01*
X174010000Y-59940000D02*
G75*
G03*
X174516984Y-60150006I507000J507000D01*
G01*
X194672750Y-60512750D02*
G75*
G03*
X193796994Y-60150002I-875750J-875750D01*
G01*
X193290000Y-120966949D02*
G75*
G03*
X193575014Y-121654986I973100J49D01*
G01*
X193290000Y-82815129D02*
G75*
G03*
X193597509Y-83557491I1049900J29D01*
G01*
X193455000Y-140775000D02*
G75*
G03*
X193853345Y-140939952I398300J398400D01*
G01*
X175063259Y-40300000D02*
G75*
G03*
X174170033Y-40670033I41J-1263200D01*
G01*
X174170000Y-40670000D02*
G75*
G03*
X173799954Y-41563259I893200J-893300D01*
G01*
X193597500Y-84172500D02*
G75*
G03*
X193289988Y-84914870I742400J-742400D01*
G01*
X193290000Y-101968162D02*
G75*
G03*
X193559989Y-102620011I921800J-38D01*
G01*
X212982500Y-121847500D02*
X212995000Y-121835000D01*
X214060500Y-64770000D02*
X214060500Y-60501980D01*
X212707500Y-83477500D02*
X213015000Y-83785000D01*
X212957500Y-121847500D02*
X212685000Y-121575000D01*
X212995000Y-121835000D02*
X214190500Y-121835000D01*
X175326690Y-40700000D02*
X182567372Y-40700000D01*
X212940000Y-102810000D02*
X214190500Y-102810000D01*
X214060500Y-64770000D02*
X214060500Y-66930000D01*
X212995000Y-121835000D02*
X212697500Y-122132500D01*
X213015000Y-83785000D02*
X214190500Y-83785000D01*
X212707500Y-84092500D02*
X213015000Y-83785000D01*
X212400000Y-82735129D02*
X212400000Y-65579411D01*
X212963345Y-140860000D02*
X214190500Y-140860000D01*
X214060500Y-85955000D02*
X214060500Y-83795000D01*
X212400000Y-101888162D02*
X212400000Y-84834870D01*
X174200000Y-41826690D02*
X174200000Y-59101299D01*
X212400000Y-140296654D02*
X212400000Y-122850728D01*
X174848700Y-59750000D02*
X213308519Y-59750000D01*
X214060500Y-124005000D02*
X214060500Y-121845000D01*
X214060500Y-143030000D02*
X214060500Y-140870000D01*
X212940000Y-102810000D02*
X212670000Y-103080000D01*
X214060500Y-104980000D02*
X214060500Y-102820000D01*
X183418690Y-41551317D02*
X183418690Y-44265000D01*
X212940000Y-102810000D02*
X212670000Y-102540000D01*
X212400000Y-103731837D02*
X212400000Y-120886949D01*
X213219411Y-64760000D02*
X214190500Y-64760000D01*
X213219411Y-64760000D02*
G75*
G03*
X212639997Y-64999997I-11J-819400D01*
G01*
X212957500Y-121847500D02*
G75*
G03*
X212982500Y-121847500I12500J12502D01*
G01*
X212400000Y-82735129D02*
G75*
G03*
X212707509Y-83477491I1049900J29D01*
G01*
X183169345Y-40949345D02*
G75*
G02*
X183418686Y-41551317I-601945J-601955D01*
G01*
X213840250Y-59970250D02*
G75*
G02*
X214060508Y-60501980I-531750J-531750D01*
G01*
X212670000Y-103080000D02*
G75*
G03*
X212400016Y-103731837I651800J-651800D01*
G01*
X175326690Y-40700000D02*
G75*
G03*
X174530003Y-41030003I10J-1126700D01*
G01*
X174390000Y-59560000D02*
G75*
G03*
X174848700Y-59750000I458700J458700D01*
G01*
X183169345Y-40949345D02*
G75*
G03*
X182567372Y-40700014I-601945J-601955D01*
G01*
X212400000Y-101888162D02*
G75*
G03*
X212669989Y-102540011I921800J-38D01*
G01*
X174200000Y-59101299D02*
G75*
G03*
X174390000Y-59560000I648700J-1D01*
G01*
X212697500Y-122132500D02*
G75*
G03*
X212400012Y-122850728I718200J-718200D01*
G01*
X212640000Y-65000000D02*
G75*
G03*
X212400005Y-65579411I579400J-579400D01*
G01*
X212565000Y-140695000D02*
G75*
G03*
X212963345Y-140859952I398300J398400D01*
G01*
X174530000Y-41030000D02*
G75*
G03*
X174199996Y-41826690I796700J-796700D01*
G01*
X212707500Y-84092500D02*
G75*
G03*
X212399988Y-84834870I742400J-742400D01*
G01*
X212400000Y-120886949D02*
G75*
G03*
X212685014Y-121574986I973100J49D01*
G01*
X212400000Y-140296654D02*
G75*
G03*
X212564987Y-140695013I563300J-46D01*
G01*
X213840250Y-59970250D02*
G75*
G03*
X213308519Y-59749992I-531750J-531750D01*
G01*
X182148690Y-41981317D02*
X182148690Y-44265000D01*
X174600000Y-58547659D02*
X174600000Y-42017695D01*
X233085500Y-64770000D02*
X233085500Y-66930000D01*
X231400000Y-122970728D02*
X231400000Y-140416654D01*
X231940000Y-102930000D02*
X231670000Y-103200000D01*
X232015000Y-83905000D02*
X231707500Y-83597500D01*
X231995000Y-121955000D02*
X231697500Y-122252500D01*
X231270000Y-64172512D02*
X231270000Y-59981629D01*
X233085500Y-143030000D02*
X233085500Y-140870000D01*
X231940000Y-102930000D02*
X231670000Y-102660000D01*
X231995000Y-121955000D02*
X233190500Y-121955000D01*
X233085500Y-104980000D02*
X233085500Y-102820000D01*
X231940000Y-102930000D02*
X233190500Y-102930000D01*
X231867487Y-64770000D02*
X233085500Y-64770000D01*
X231400000Y-103851837D02*
X231400000Y-121006949D01*
X232219411Y-64880000D02*
X233190500Y-64880000D01*
X232015000Y-83905000D02*
X233190500Y-83905000D01*
X231400000Y-84954870D02*
X231400000Y-102008162D01*
X231995000Y-121955000D02*
X231982500Y-121967500D01*
X231707500Y-84212500D02*
X232015000Y-83905000D01*
X233085500Y-124005000D02*
X233085500Y-121845000D01*
X230638370Y-59350000D02*
X175402340Y-59350000D01*
X231963345Y-140980000D02*
X233190500Y-140980000D01*
X231957500Y-121967500D02*
X231685000Y-121695000D01*
X233085500Y-85955000D02*
X233085500Y-83795000D01*
X231400000Y-65699411D02*
X231400000Y-82855129D01*
X181297372Y-41130000D02*
X175487695Y-41130000D01*
X181899345Y-41379345D02*
G75*
G02*
X182148686Y-41981317I-601945J-601955D01*
G01*
X231400000Y-102008162D02*
G75*
G03*
X231669989Y-102660011I921800J-38D01*
G01*
X231085000Y-59535000D02*
G75*
G03*
X230638370Y-59350012I-446600J-446600D01*
G01*
X232219411Y-64880000D02*
G75*
G03*
X231639997Y-65119997I-11J-819400D01*
G01*
X231270000Y-64172512D02*
G75*
G03*
X231445004Y-64594996I597500J12D01*
G01*
X231565000Y-140815000D02*
G75*
G03*
X231963345Y-140979952I398300J398400D01*
G01*
X231400000Y-82855129D02*
G75*
G03*
X231707509Y-83597491I1049900J29D01*
G01*
X231445000Y-64595000D02*
G75*
G03*
X231867487Y-64770005I422500J422500D01*
G01*
X231085000Y-59535000D02*
G75*
G02*
X231269988Y-59981629I-446600J-446600D01*
G01*
X231670000Y-103200000D02*
G75*
G03*
X231400016Y-103851837I651800J-651800D01*
G01*
X231640000Y-65120000D02*
G75*
G03*
X231400005Y-65699411I579400J-579400D01*
G01*
X181899345Y-41379345D02*
G75*
G03*
X181297372Y-41130014I-601945J-601955D01*
G01*
X174600000Y-58547659D02*
G75*
G03*
X174834988Y-59115012I802300J-41D01*
G01*
X174835000Y-59115000D02*
G75*
G03*
X175402340Y-59349983I567300J567300D01*
G01*
X174860000Y-41390000D02*
G75*
G03*
X174599998Y-42017695I627700J-627700D01*
G01*
X231400000Y-121006949D02*
G75*
G03*
X231685014Y-121694986I973100J49D01*
G01*
X175487695Y-41130000D02*
G75*
G03*
X174860001Y-41390001I5J-887700D01*
G01*
X231400000Y-140416654D02*
G75*
G03*
X231564987Y-140815013I563300J-46D01*
G01*
X231957500Y-121967500D02*
G75*
G03*
X231982500Y-121967500I12500J12502D01*
G01*
X231697500Y-122252500D02*
G75*
G03*
X231400012Y-122970728I718200J-718200D01*
G01*
X231707500Y-84212500D02*
G75*
G03*
X231399988Y-84954870I742400J-742400D01*
G01*
X252110500Y-64770000D02*
X252110500Y-59736122D01*
X250320000Y-101898162D02*
X250320000Y-84844870D01*
X252110500Y-121845000D02*
X252110500Y-124005000D01*
X180225154Y-41590000D02*
X175904766Y-41590000D01*
X252110500Y-83795000D02*
X251369870Y-83795000D01*
X250860000Y-102820000D02*
X250590000Y-102550000D01*
X250860000Y-102820000D02*
X250590000Y-103090000D01*
X175000000Y-42494766D02*
X175000000Y-58284228D01*
X252110500Y-83795000D02*
X251164099Y-83795000D01*
X250320000Y-103741837D02*
X250320000Y-120896949D01*
X250915000Y-121845000D02*
X250572500Y-122187500D01*
X252110500Y-121845000D02*
X250915000Y-121845000D01*
X250230000Y-140153015D02*
X250230000Y-123014368D01*
X250860000Y-102820000D02*
X252110500Y-102820000D01*
X252110500Y-140870000D02*
X252110500Y-143030000D01*
X251223847Y-64770000D02*
X252110500Y-64770000D01*
X250877500Y-121857500D02*
X250605000Y-121585000D01*
X175665771Y-58950000D02*
X251324377Y-58950000D01*
X252110500Y-64770000D02*
X252110500Y-66930000D01*
X250780000Y-83410900D02*
X250780000Y-65213847D01*
X252110500Y-83795000D02*
X252110500Y-85955000D01*
X252110500Y-102820000D02*
X252110500Y-104980000D01*
X252110500Y-140870000D02*
X250946984Y-140870000D01*
X250902500Y-121857500D02*
X250915000Y-121845000D01*
X180888690Y-42253535D02*
X180888690Y-44265000D01*
X250230000Y-140153015D02*
G75*
G03*
X250440004Y-140659996I717000J15D01*
G01*
X251880250Y-59180250D02*
G75*
G03*
X251324377Y-58950009I-555850J-555850D01*
G01*
X180694345Y-41784345D02*
G75*
G02*
X180888678Y-42253535I-469145J-469155D01*
G01*
X250590000Y-103090000D02*
G75*
G03*
X250320016Y-103741837I651800J-651800D01*
G01*
X250572500Y-122187500D02*
G75*
G03*
X250229987Y-123014368I826900J-826900D01*
G01*
X175000000Y-58284228D02*
G75*
G03*
X175195008Y-58754992I665800J28D01*
G01*
X250320000Y-101898162D02*
G75*
G03*
X250589989Y-102550011I921800J-38D01*
G01*
X251880250Y-59180250D02*
G75*
G02*
X252110491Y-59736122I-555850J-555850D01*
G01*
X175195000Y-58755000D02*
G75*
G03*
X175665771Y-58950012I470800J470800D01*
G01*
X180694345Y-41784345D02*
G75*
G03*
X180225154Y-41590022I-469145J-469155D01*
G01*
X251369870Y-83795000D02*
G75*
G03*
X250627509Y-84102509I30J-1049900D01*
G01*
X250627500Y-84102500D02*
G75*
G03*
X250319988Y-84844870I742400J-742400D01*
G01*
X250440000Y-140660000D02*
G75*
G03*
X250946984Y-140870006I507000J507000D01*
G01*
X251223847Y-64770000D02*
G75*
G03*
X250909986Y-64899986I-47J-443800D01*
G01*
X250910000Y-64900000D02*
G75*
G03*
X250780020Y-65213847I313800J-313800D01*
G01*
X175904766Y-41590000D02*
G75*
G03*
X175265010Y-41855010I34J-904800D01*
G01*
X250780000Y-83410900D02*
G75*
G03*
X250892500Y-83682500I384100J0D01*
G01*
X250320000Y-120896949D02*
G75*
G03*
X250605014Y-121584986I973100J49D01*
G01*
X250892500Y-83682500D02*
G75*
G03*
X251164099Y-83795000I271600J271600D01*
G01*
X250877500Y-121857500D02*
G75*
G03*
X250902500Y-121857500I12500J12502D01*
G01*
X175265000Y-41855000D02*
G75*
G03*
X174999986Y-42494766I639800J-639800D01*
G01*
X244532340Y-57910000D02*
X257290086Y-57910000D01*
X262982000Y-69261580D02*
X262982000Y-65722648D01*
X261913351Y-64654000D02*
X259004021Y-64654000D01*
X257990000Y-58609913D02*
X257990000Y-63639978D01*
X264944000Y-70733106D02*
X264944000Y-80480328D01*
X263731419Y-70011000D02*
X264221893Y-70011000D01*
X264254328Y-81170000D02*
X263029736Y-81170000D01*
X243730000Y-57107659D02*
X243730000Y-54600000D01*
X264732500Y-70222500D02*
G75*
G02*
X264943997Y-70733106I-510600J-510600D01*
G01*
X262982000Y-69261580D02*
G75*
G03*
X263201494Y-69791506I749400J-20D01*
G01*
X264732500Y-70222500D02*
G75*
G03*
X264221893Y-70011003I-510600J-510600D01*
G01*
X243965000Y-57675000D02*
G75*
G03*
X244532340Y-57909983I567300J567300D01*
G01*
X257785000Y-58115000D02*
G75*
G02*
X257989994Y-58609913I-494900J-494900D01*
G01*
X262669000Y-64967000D02*
G75*
G02*
X262982021Y-65722648I-755700J-755700D01*
G01*
X243730000Y-57107659D02*
G75*
G03*
X243964988Y-57675012I802300J-41D01*
G01*
X262669000Y-64967000D02*
G75*
G03*
X261913351Y-64654020I-755600J-755600D01*
G01*
X264944000Y-80480328D02*
G75*
G02*
X264741992Y-80967992I-689700J28D01*
G01*
X257785000Y-58115000D02*
G75*
G03*
X257290086Y-57910006I-494900J-494900D01*
G01*
X258287000Y-64357000D02*
G75*
G03*
X259004021Y-64653991I717000J717000D01*
G01*
X264742000Y-80968000D02*
G75*
G02*
X264254328Y-81170012I-487700J487700D01*
G01*
X257990000Y-63639978D02*
G75*
G03*
X258286994Y-64357006I1014000J-22D01*
G01*
X263201500Y-69791500D02*
G75*
G03*
X263731419Y-70010992I529900J529900D01*
G01*
X251350000Y-56003725D02*
X251350000Y-54600000D01*
X259190000Y-57403553D02*
X259190000Y-62652195D01*
X264901593Y-100050000D02*
X262940000Y-100050000D01*
X264714617Y-68630000D02*
X265362304Y-68630000D01*
X264182000Y-68097382D02*
X264182000Y-64645560D01*
X265611629Y-87901629D02*
X265655000Y-87945000D01*
X251896274Y-56550000D02*
X258336446Y-56550000D01*
X264881378Y-83445000D02*
X265524479Y-83445000D01*
X264906984Y-87640000D02*
X264980000Y-87640000D01*
X265960000Y-88681335D02*
X265960000Y-98991593D01*
X266250000Y-69517695D02*
X266250000Y-82719479D01*
X262990439Y-63454000D02*
X259991804Y-63454000D01*
X264190000Y-84136378D02*
X264190000Y-86923015D01*
X265650000Y-99740000D02*
G75*
G02*
X264901593Y-100049997I-748400J748400D01*
G01*
X264392500Y-83647500D02*
G75*
G03*
X264189991Y-84136378I488900J-488900D01*
G01*
X259190000Y-62652195D02*
G75*
G03*
X259424842Y-63219158I801800J-5D01*
G01*
X259424843Y-63219157D02*
G75*
G03*
X259991804Y-63453998I566957J566957D01*
G01*
X265655000Y-87945000D02*
G75*
G02*
X265959985Y-88681335I-736300J-736300D01*
G01*
X258940000Y-56800000D02*
G75*
G03*
X258336446Y-56550022I-603500J-603500D01*
G01*
X265611629Y-87901629D02*
G75*
G03*
X264980000Y-87640012I-631629J-631671D01*
G01*
X264190000Y-86923015D02*
G75*
G03*
X264400004Y-87429996I717000J15D01*
G01*
X264400000Y-87430000D02*
G75*
G03*
X264906984Y-87640006I507000J507000D01*
G01*
X266037500Y-83232500D02*
G75*
G02*
X265524479Y-83444992I-513000J513000D01*
G01*
X251510000Y-56390000D02*
G75*
G03*
X251896274Y-56550011I386300J386300D01*
G01*
X264338000Y-68474000D02*
G75*
G03*
X264714617Y-68629993I376600J376600D01*
G01*
X263833000Y-63803000D02*
G75*
G02*
X264182016Y-64645560I-842600J-842600D01*
G01*
X265990000Y-68890000D02*
G75*
G02*
X266250002Y-69517695I-627700J-627700D01*
G01*
X263833000Y-63803000D02*
G75*
G03*
X262990439Y-63453984I-842600J-842600D01*
G01*
X264881378Y-83445000D02*
G75*
G03*
X264392506Y-83647506I22J-691400D01*
G01*
X258940000Y-56800000D02*
G75*
G02*
X259190019Y-57403553I-603600J-603600D01*
G01*
X264182000Y-68097382D02*
G75*
G03*
X264337995Y-68474005I532600J-18D01*
G01*
X266250000Y-82719479D02*
G75*
G02*
X266037506Y-83232506I-725500J-21D01*
G01*
X265990000Y-68890000D02*
G75*
G03*
X265362304Y-68629998I-627700J-627700D01*
G01*
X251350000Y-56003725D02*
G75*
G03*
X251510008Y-56389992I546300J25D01*
G01*
X265960000Y-98991593D02*
G75*
G02*
X265650002Y-99740002I-1058400J-7D01*
G01*
X265850000Y-69997695D02*
X265850000Y-82288470D01*
X264516055Y-69110000D02*
X264962304Y-69110000D01*
X263782000Y-68375944D02*
X263782000Y-65130915D01*
X263932000Y-87782000D02*
X263935441Y-87785441D01*
X261388000Y-100972027D02*
X261388000Y-98976256D01*
X262074256Y-98290000D02*
X264173812Y-98290000D01*
X265960000Y-107210918D02*
X265960000Y-117871489D01*
X262005972Y-101590000D02*
X263547867Y-101590000D01*
X257970588Y-56970000D02*
X249612340Y-56970000D01*
X263674000Y-87159132D02*
X263674000Y-83852180D01*
X262505084Y-63854000D02*
X259838163Y-63854000D01*
X258790000Y-57789411D02*
X258790000Y-62805836D01*
X264756489Y-119075000D02*
X262940000Y-119075000D01*
X265420000Y-97043812D02*
X265420000Y-88910624D01*
X264640416Y-106750000D02*
X265499081Y-106750000D01*
X248810000Y-56167659D02*
X248810000Y-54600000D01*
X264582180Y-82944000D02*
X265194470Y-82944000D01*
X265164558Y-88294558D02*
X265165000Y-88295000D01*
X264060000Y-106169583D02*
X264060000Y-102102132D01*
X258790000Y-62805836D02*
G75*
G03*
X259097011Y-63546989I1048200J36D01*
G01*
X263935441Y-87785441D02*
G75*
G03*
X264550000Y-88040005I614559J614541D01*
G01*
X265420000Y-97043812D02*
G75*
G02*
X265054996Y-97924996I-1246200J12D01*
G01*
X261388000Y-100972027D02*
G75*
G03*
X261569008Y-101408992I618000J27D01*
G01*
X261589000Y-98491000D02*
G75*
G03*
X261387982Y-98976256I485300J-485300D01*
G01*
X265825000Y-106885000D02*
G75*
G02*
X265959992Y-107210918I-325900J-325900D01*
G01*
X265165000Y-88295000D02*
G75*
G02*
X265419990Y-88910624I-615600J-615600D01*
G01*
X265850000Y-82288470D02*
G75*
G02*
X265658008Y-82752008I-655500J-30D01*
G01*
X265607500Y-118722500D02*
G75*
G02*
X264756489Y-119074996I-851000J851000D01*
G01*
X265055000Y-97925000D02*
G75*
G02*
X264173812Y-98290005I-881200J881200D01*
G01*
X259097000Y-63547000D02*
G75*
G03*
X259838163Y-63854015I741200J741200D01*
G01*
X262074256Y-98290000D02*
G75*
G03*
X261589013Y-98491013I44J-686300D01*
G01*
X249045000Y-56735000D02*
G75*
G03*
X249612340Y-56969983I567300J567300D01*
G01*
X265590000Y-69370000D02*
G75*
G03*
X264962304Y-69109998I-627700J-627700D01*
G01*
X265825000Y-106885000D02*
G75*
G03*
X265499081Y-106750008I-325900J-325900D01*
G01*
X265590000Y-69370000D02*
G75*
G02*
X265850002Y-69997695I-627700J-627700D01*
G01*
X265960000Y-117871489D02*
G75*
G02*
X265607503Y-118722503I-1203500J-11D01*
G01*
X258550000Y-57210000D02*
G75*
G03*
X257970588Y-56970005I-579400J-579400D01*
G01*
X263782000Y-68375944D02*
G75*
G03*
X263997034Y-68894966I734000J44D01*
G01*
X263910000Y-101740000D02*
G75*
G02*
X264059987Y-102102132I-362100J-362100D01*
G01*
X264582180Y-82944000D02*
G75*
G03*
X263940006Y-83210006I20J-908200D01*
G01*
X263910000Y-101740000D02*
G75*
G03*
X263547867Y-101590013I-362100J-362100D01*
G01*
X248810000Y-56167659D02*
G75*
G03*
X249044988Y-56735012I802300J-41D01*
G01*
X258550000Y-57210000D02*
G75*
G02*
X258789995Y-57789411I-579400J-579400D01*
G01*
X265164558Y-88294558D02*
G75*
G03*
X264550000Y-88039995I-614558J-614542D01*
G01*
X263674000Y-87159132D02*
G75*
G03*
X263932010Y-87781990I880900J32D01*
G01*
X264230000Y-106580000D02*
G75*
G03*
X264640416Y-106749993I410400J410400D01*
G01*
X261569000Y-101409000D02*
G75*
G03*
X262005972Y-101590011I437000J437000D01*
G01*
X265658000Y-82752000D02*
G75*
G02*
X265194470Y-82943988I-463500J463500D01*
G01*
X263408000Y-64228000D02*
G75*
G02*
X263781993Y-65130915I-902900J-902900D01*
G01*
X263997000Y-68895000D02*
G75*
G03*
X264516055Y-69110018I519100J519100D01*
G01*
X264060000Y-106169583D02*
G75*
G03*
X264229995Y-106580005I580400J-17D01*
G01*
X263940000Y-83210000D02*
G75*
G03*
X263673992Y-83852180I642200J-642200D01*
G01*
X263408000Y-64228000D02*
G75*
G03*
X262505084Y-63854007I-902900J-902900D01*
G01*
X264045612Y-82544000D02*
X264640831Y-82544000D01*
X260890000Y-101243517D02*
X260890000Y-98743050D01*
X263660000Y-106646654D02*
X263660000Y-102489705D01*
X264996654Y-107210000D02*
X264223345Y-107210000D01*
X265020000Y-89156984D02*
X265020000Y-96762806D01*
X262218908Y-117250000D02*
X264586949Y-117250000D01*
X262992806Y-120710000D02*
X262201837Y-120710000D01*
X246270000Y-56627659D02*
X246270000Y-54600000D01*
X262940000Y-136356984D02*
X262940000Y-138100000D01*
X264452304Y-135640000D02*
X263656984Y-135640000D01*
X263382000Y-65479702D02*
X263382000Y-68847642D01*
X259438163Y-64254000D02*
X262156297Y-64254000D01*
X261280000Y-119788162D02*
X261280000Y-118188908D01*
X265560000Y-116276949D02*
X265560000Y-107773345D01*
X264195000Y-125425000D02*
X264220294Y-125450294D01*
X264391593Y-69510000D02*
X264044357Y-69510000D01*
X265340000Y-126422340D02*
X265340000Y-134752304D01*
X265450000Y-81734831D02*
X265450000Y-70568406D01*
X258390000Y-58232340D02*
X258390000Y-63205836D01*
X265105000Y-125855000D02*
X265039705Y-125789705D01*
X263250294Y-102080000D02*
X261726482Y-102080000D01*
X261863050Y-97770000D02*
X264012806Y-97770000D01*
X247072340Y-57430000D02*
X257587659Y-57430000D01*
X264000000Y-124954228D02*
X264000000Y-121717193D01*
X263274000Y-87627417D02*
X263274000Y-83315612D01*
X264086582Y-88440000D02*
X264303015Y-88440000D01*
X265213000Y-82307000D02*
G75*
G02*
X264640831Y-82544013I-572200J572200D01*
G01*
X263500000Y-82770000D02*
G75*
G03*
X263274005Y-83315612I545600J-545600D01*
G01*
X265140000Y-69820000D02*
G75*
G02*
X265449997Y-70568406I-748400J-748400D01*
G01*
X263705000Y-121005000D02*
G75*
G03*
X262992806Y-120709997I-712200J-712200D01*
G01*
X261280000Y-119788162D02*
G75*
G03*
X261549989Y-120440011I921800J-38D01*
G01*
X263023000Y-64613000D02*
G75*
G02*
X263381999Y-65479702I-866700J-866700D01*
G01*
X261550000Y-120440000D02*
G75*
G03*
X262201837Y-120709984I651800J651800D01*
G01*
X262218908Y-117250000D02*
G75*
G03*
X261554997Y-117524997I-8J-938900D01*
G01*
X263274000Y-87627417D02*
G75*
G03*
X263512005Y-88201995I812600J17D01*
G01*
X261555000Y-117525000D02*
G75*
G03*
X261280004Y-118188908I663900J-663900D01*
G01*
X263576000Y-69316000D02*
G75*
G03*
X264044357Y-69510018I468400J468400D01*
G01*
X258390000Y-63205836D02*
G75*
G03*
X258697011Y-63946989I1048200J36D01*
G01*
X265560000Y-116276949D02*
G75*
G02*
X265274986Y-116964986I-973100J49D01*
G01*
X246270000Y-56627659D02*
G75*
G03*
X246504988Y-57195012I802300J-41D01*
G01*
X265340000Y-134752304D02*
G75*
G02*
X265079999Y-135379999I-887700J4D01*
G01*
X265395000Y-107375000D02*
G75*
G03*
X264996654Y-107210019I-398300J-398300D01*
G01*
X258155000Y-57665000D02*
G75*
G02*
X258389983Y-58232340I-567300J-567300D01*
G01*
X265140000Y-69820000D02*
G75*
G03*
X264391593Y-69510003I-748400J-748400D01*
G01*
X264045612Y-82544000D02*
G75*
G03*
X263499996Y-82769996I-12J-771600D01*
G01*
X263540000Y-102200000D02*
G75*
G03*
X263250294Y-102080002I-289700J-289700D01*
G01*
X261863050Y-97770000D02*
G75*
G03*
X261174985Y-98054985I-50J-973000D01*
G01*
X263512000Y-88202000D02*
G75*
G03*
X264086582Y-88440007I574600J574600D01*
G01*
X263540000Y-102200000D02*
G75*
G02*
X263659998Y-102489705I-289700J-289700D01*
G01*
X261175000Y-98055000D02*
G75*
G03*
X260890021Y-98743050I688000J-688000D01*
G01*
X264220294Y-125450294D02*
G75*
G03*
X264630000Y-125620003I409706J409694D01*
G01*
X265450000Y-81734831D02*
G75*
G02*
X265212991Y-82306991I-809200J31D01*
G01*
X263023000Y-64613000D02*
G75*
G03*
X262156297Y-64254001I-866700J-866700D01*
G01*
X265039705Y-125789705D02*
G75*
G03*
X264630000Y-125619997I-409705J-409695D01*
G01*
X264810000Y-88650000D02*
G75*
G03*
X264303015Y-88439994I-507000J-507000D01*
G01*
X265275000Y-116965000D02*
G75*
G02*
X264586949Y-117250020I-688100J688100D01*
G01*
X258155000Y-57665000D02*
G75*
G03*
X257587659Y-57430017I-567300J-567300D01*
G01*
X260890000Y-101243517D02*
G75*
G03*
X261135005Y-101834995I836500J17D01*
G01*
X265080000Y-135380000D02*
G75*
G02*
X264452304Y-135640002I-627700J627700D01*
G01*
X263656984Y-135640000D02*
G75*
G03*
X263150004Y-135850004I16J-717000D01*
G01*
X263705000Y-121005000D02*
G75*
G02*
X264000003Y-121717193I-712200J-712200D01*
G01*
X264000000Y-124954228D02*
G75*
G03*
X264195008Y-125424992I665800J28D01*
G01*
X261135000Y-101835000D02*
G75*
G03*
X261726482Y-102080007I591500J591500D01*
G01*
X265105000Y-125855000D02*
G75*
G02*
X265339983Y-126422340I-567300J-567300D01*
G01*
X264810000Y-88650000D02*
G75*
G02*
X265020006Y-89156984I-507000J-507000D01*
G01*
X265395000Y-107375000D02*
G75*
G02*
X265559952Y-107773345I-398400J-398300D01*
G01*
X264725000Y-97475000D02*
G75*
G02*
X264012806Y-97770003I-712200J712200D01*
G01*
X246505000Y-57195000D02*
G75*
G03*
X247072340Y-57429983I567300J567300D01*
G01*
X263660000Y-106646654D02*
G75*
G03*
X263824987Y-107045013I563300J-46D01*
G01*
X265020000Y-96762806D02*
G75*
G02*
X264724998Y-97474998I-1007200J6D01*
G01*
X258697000Y-63947000D02*
G75*
G03*
X259438163Y-64254015I741200J741200D01*
G01*
X263150000Y-135850000D02*
G75*
G03*
X262939994Y-136356984I507000J-507000D01*
G01*
X263382000Y-68847642D02*
G75*
G03*
X263576012Y-69315988I662400J42D01*
G01*
X263825000Y-107045000D02*
G75*
G03*
X264223345Y-107209952I398300J398400D01*
G01*
X47315000Y-69074773D02*
X47315000Y-64540000D01*
X46179773Y-70210000D02*
X42835500Y-70210000D01*
X43035500Y-70230000D02*
X43035500Y-72390000D01*
X47315000Y-69074773D02*
G75*
G02*
X46982508Y-69877508I-1135200J-27D01*
G01*
X46982500Y-69877500D02*
G75*
G02*
X46179773Y-70209989I-802700J802700D01*
G01*
X61860500Y-72390000D02*
X61860500Y-70230000D01*
X66340000Y-69254020D02*
X66340000Y-64540000D01*
X65384020Y-70210000D02*
X61860500Y-70210000D01*
X66060000Y-69930000D02*
G75*
G02*
X65384020Y-70210008I-676000J676000D01*
G01*
X66340000Y-69254020D02*
G75*
G02*
X66059994Y-69929994I-956000J20D01*
G01*
X85365000Y-69108916D02*
X85365000Y-64540000D01*
X84263916Y-70210000D02*
X80885500Y-70210000D01*
X80885500Y-72390000D02*
X80885500Y-70230000D01*
X85042500Y-69887500D02*
G75*
G02*
X84263916Y-70210007I-778600J778600D01*
G01*
X85365000Y-69108916D02*
G75*
G02*
X85042495Y-69887495I-1101100J16D01*
G01*
X104390000Y-69202806D02*
X104390000Y-64540000D01*
X103382806Y-70210000D02*
X99910500Y-70210000D01*
X99910500Y-72390000D02*
X99910500Y-70230000D01*
X104095000Y-69915000D02*
G75*
G02*
X103382806Y-70210003I-712200J712200D01*
G01*
X104390000Y-69202806D02*
G75*
G02*
X104094998Y-69914998I-1007200J6D01*
G01*
X122365129Y-70210000D02*
X118935500Y-70210000D01*
X118935500Y-72390000D02*
X118935500Y-70230000D01*
X123415000Y-69160129D02*
X123415000Y-64540000D01*
X123415000Y-69160129D02*
G75*
G02*
X123107491Y-69902491I-1049900J29D01*
G01*
X123107500Y-69902500D02*
G75*
G02*
X122365129Y-70210012I-742400J742400D01*
G01*
X142440000Y-69271091D02*
X142440000Y-64540000D01*
X141501091Y-70210000D02*
X137960500Y-70210000D01*
X137960500Y-72390000D02*
X137960500Y-70230000D01*
X142440000Y-69271091D02*
G75*
G02*
X142165003Y-69935003I-938900J-9D01*
G01*
X142165000Y-69935000D02*
G75*
G02*
X141501091Y-70209996I-663900J663900D01*
G01*
X160534626Y-70210000D02*
X156985500Y-70210000D01*
X161465000Y-69279626D02*
X161465000Y-64540000D01*
X156985500Y-72390000D02*
X156985500Y-70230000D01*
X161465000Y-69279626D02*
G75*
G02*
X161192492Y-69937492I-930400J26D01*
G01*
X161192500Y-69937500D02*
G75*
G02*
X160534626Y-70210011I-657900J657900D01*
G01*
X180490000Y-69015025D02*
X180490000Y-64540000D01*
X179295025Y-70210000D02*
X176010500Y-70210000D01*
X176010500Y-72390000D02*
X176010500Y-70230000D01*
X180140000Y-69860000D02*
G75*
G02*
X179295025Y-70210010I-845000J845000D01*
G01*
X180490000Y-69015025D02*
G75*
G02*
X180139993Y-69859993I-1195000J25D01*
G01*
X199515000Y-69074773D02*
X199515000Y-64540000D01*
X198379773Y-70210000D02*
X195035500Y-70210000D01*
X195035500Y-70230000D02*
X195035500Y-72390000D01*
X199515000Y-69074773D02*
G75*
G02*
X199182508Y-69877508I-1135200J-27D01*
G01*
X199182500Y-69877500D02*
G75*
G02*
X198379773Y-70209989I-802700J802700D01*
G01*
X214060500Y-72390000D02*
X214060500Y-70230000D01*
X218540000Y-69032096D02*
X218540000Y-64540000D01*
X217362096Y-70210000D02*
X214060500Y-70210000D01*
X218195000Y-69865000D02*
G75*
G02*
X217362096Y-70209998I-832900J832900D01*
G01*
X218540000Y-69032096D02*
G75*
G02*
X218195001Y-69865001I-1177900J-4D01*
G01*
X237565000Y-69006489D02*
X237565000Y-64540000D01*
X233085500Y-70230000D02*
X233085500Y-72390000D01*
X236361489Y-70210000D02*
X233085500Y-70210000D01*
X237212500Y-69857500D02*
G75*
G02*
X236361489Y-70209996I-851000J851000D01*
G01*
X237565000Y-69006489D02*
G75*
G02*
X237212503Y-69857503I-1203500J-11D01*
G01*
X255582806Y-70210000D02*
X252110500Y-70210000D01*
X252110500Y-72390000D02*
X252110500Y-70230000D01*
X256590000Y-69202806D02*
X256590000Y-64540000D01*
X256590000Y-69202806D02*
G75*
G02*
X256294998Y-69914998I-1007200J6D01*
G01*
X256295000Y-69915000D02*
G75*
G02*
X255582806Y-70210003I-712200J712200D01*
G01*
X47315000Y-88108309D02*
X47315000Y-83565000D01*
X46188309Y-89235000D02*
X42835500Y-89235000D01*
X43035500Y-91415000D02*
X43035500Y-89255000D01*
X46985000Y-88905000D02*
G75*
G02*
X46188309Y-89235004I-796700J796700D01*
G01*
X47315000Y-88108309D02*
G75*
G02*
X46984997Y-88904997I-1126700J9D01*
G01*
X61860500Y-91415000D02*
X61860500Y-89255000D01*
X66340000Y-88219271D02*
X66340000Y-83565000D01*
X65324271Y-89235000D02*
X61860500Y-89235000D01*
X66042500Y-88937500D02*
G75*
G02*
X65324271Y-89234988I-718200J718200D01*
G01*
X66340000Y-88219271D02*
G75*
G02*
X66042508Y-88937508I-1015700J-29D01*
G01*
X84323664Y-89235000D02*
X80885500Y-89235000D01*
X85365000Y-88193664D02*
X85365000Y-83565000D01*
X80885500Y-91415000D02*
X80885500Y-89255000D01*
X85365000Y-88193664D02*
G75*
G02*
X85060010Y-88930010I-1041300J-36D01*
G01*
X85060000Y-88930000D02*
G75*
G02*
X84323664Y-89234985I-736300J736300D01*
G01*
X104390000Y-88407053D02*
X104390000Y-83565000D01*
X99910500Y-91415000D02*
X99910500Y-89255000D01*
X103562053Y-89235000D02*
X99910500Y-89235000D01*
X104147500Y-88992500D02*
G75*
G02*
X103562053Y-89234951I-585400J585500D01*
G01*
X104390000Y-88407053D02*
G75*
G02*
X104147534Y-88992534I-828000J-47D01*
G01*
X123415000Y-88279020D02*
X123415000Y-83565000D01*
X122459020Y-89235000D02*
X118935500Y-89235000D01*
X118935500Y-91415000D02*
X118935500Y-89255000D01*
X123415000Y-88279020D02*
G75*
G02*
X123134994Y-88954994I-956000J20D01*
G01*
X123135000Y-88955000D02*
G75*
G02*
X122459020Y-89235008I-676000J676000D01*
G01*
X142440000Y-88389982D02*
X142440000Y-83565000D01*
X141594982Y-89235000D02*
X137960500Y-89235000D01*
X137960500Y-91415000D02*
X137960500Y-89255000D01*
X142192500Y-88987500D02*
G75*
G02*
X141594982Y-89234993I-597500J597500D01*
G01*
X142440000Y-88389982D02*
G75*
G02*
X142192505Y-88987505I-845000J-18D01*
G01*
X160560233Y-89235000D02*
X156985500Y-89235000D01*
X156985500Y-91415000D02*
X156985500Y-89255000D01*
X161465000Y-88330233D02*
X161465000Y-83565000D01*
X161200000Y-88970000D02*
G75*
G02*
X160560233Y-89235014I-639800J639800D01*
G01*
X161465000Y-88330233D02*
G75*
G02*
X161199990Y-88969990I-904800J33D01*
G01*
X180490000Y-88287555D02*
X180490000Y-83565000D01*
X176010500Y-91415000D02*
X176010500Y-89255000D01*
X179542555Y-89235000D02*
X176010500Y-89235000D01*
X180212500Y-88957500D02*
G75*
G02*
X179542555Y-89234982I-669900J669900D01*
G01*
X180490000Y-88287555D02*
G75*
G02*
X180212513Y-88957513I-947400J-45D01*
G01*
X195035500Y-91415000D02*
X195035500Y-89255000D01*
X199515000Y-88210735D02*
X199515000Y-83565000D01*
X198490735Y-89235000D02*
X195035500Y-89235000D01*
X199515000Y-88210735D02*
G75*
G02*
X199214989Y-88934989I-1024300J35D01*
G01*
X199215000Y-88935000D02*
G75*
G02*
X198490735Y-89235015I-724300J724300D01*
G01*
X217421845Y-89235000D02*
X214060500Y-89235000D01*
X218540000Y-88116845D02*
X218540000Y-83565000D01*
X214060500Y-89255000D02*
X214060500Y-91415000D01*
X218212500Y-88907500D02*
G75*
G02*
X217421845Y-89235019I-790700J790700D01*
G01*
X218540000Y-88116845D02*
G75*
G02*
X218212487Y-88907487I-1118200J45D01*
G01*
X237565000Y-88261949D02*
X237565000Y-83565000D01*
X233085500Y-89255000D02*
X233085500Y-91415000D01*
X236591949Y-89235000D02*
X233085500Y-89235000D01*
X237280000Y-88950000D02*
G75*
G02*
X236591949Y-89235020I-688100J688100D01*
G01*
X237565000Y-88261949D02*
G75*
G02*
X237279986Y-88949986I-973100J49D01*
G01*
X252110500Y-91415000D02*
X252110500Y-89255000D01*
X255608413Y-89235000D02*
X252110500Y-89235000D01*
X256590000Y-88253413D02*
X256590000Y-83565000D01*
X256590000Y-88253413D02*
G75*
G02*
X256302496Y-88947496I-981600J13D01*
G01*
X256302500Y-88947500D02*
G75*
G02*
X255608413Y-89235006I-694100J694100D01*
G01*
X40160500Y-110440000D02*
X40160500Y-108280000D01*
X29348406Y-107980000D02*
X40080500Y-107980000D01*
X28290000Y-106921593D02*
X28290000Y-102590000D01*
X28600000Y-107670000D02*
G75*
G03*
X29348406Y-107979997I748400J748400D01*
G01*
X28290000Y-106921593D02*
G75*
G03*
X28599998Y-107670002I1058400J-7D01*
G01*
X46469982Y-108260000D02*
X42835500Y-108260000D01*
X47315000Y-107414982D02*
X47315000Y-102590000D01*
X43035500Y-110440000D02*
X43035500Y-108280000D01*
X47315000Y-107414982D02*
G75*
G02*
X47067505Y-108012505I-845000J-18D01*
G01*
X47067500Y-108012500D02*
G75*
G02*
X46469982Y-108259993I-597500J597500D01*
G01*
X65196238Y-108260000D02*
X61860500Y-108260000D01*
X61860500Y-110440000D02*
X61860500Y-108280000D01*
X66340000Y-107116238D02*
X66340000Y-102590000D01*
X66340000Y-107116238D02*
G75*
G02*
X66004989Y-107924989I-1143800J38D01*
G01*
X66005000Y-107925000D02*
G75*
G02*
X65196238Y-108260016I-808800J808800D01*
G01*
X80885500Y-110440000D02*
X80885500Y-108280000D01*
X85365000Y-107278413D02*
X85365000Y-102590000D01*
X84383413Y-108260000D02*
X80885500Y-108260000D01*
X85077500Y-107972500D02*
G75*
G02*
X84383413Y-108260006I-694100J694100D01*
G01*
X85365000Y-107278413D02*
G75*
G02*
X85077496Y-107972496I-981600J13D01*
G01*
X104390000Y-107389375D02*
X104390000Y-102590000D01*
X103519375Y-108260000D02*
X99910500Y-108260000D01*
X99910500Y-110440000D02*
X99910500Y-108280000D01*
X104390000Y-107389375D02*
G75*
G02*
X104135007Y-108005007I-870600J-25D01*
G01*
X104135000Y-108005000D02*
G75*
G02*
X103519375Y-108259990I-615600J615600D01*
G01*
X122672408Y-108260000D02*
X118935500Y-108260000D01*
X118935500Y-110440000D02*
X118935500Y-108280000D01*
X123415000Y-107517408D02*
X123415000Y-102590000D01*
X123415000Y-107517408D02*
G75*
G02*
X123197497Y-108042497I-742600J8D01*
G01*
X123197500Y-108042500D02*
G75*
G02*
X122672408Y-108260004I-525100J525100D01*
G01*
X141620588Y-108260000D02*
X137960500Y-108260000D01*
X137960500Y-110440000D02*
X137960500Y-108280000D01*
X142440000Y-107440588D02*
X142440000Y-102590000D01*
X142200000Y-108020000D02*
G75*
G02*
X141620588Y-108259995I-579400J579400D01*
G01*
X142440000Y-107440588D02*
G75*
G02*
X142200003Y-108020003I-819400J-12D01*
G01*
X161465000Y-107244271D02*
X161465000Y-102590000D01*
X160449271Y-108260000D02*
X156985500Y-108260000D01*
X156985500Y-110440000D02*
X156985500Y-108280000D01*
X161167500Y-107962500D02*
G75*
G02*
X160449271Y-108259988I-718200J718200D01*
G01*
X161465000Y-107244271D02*
G75*
G02*
X161167508Y-107962508I-1015700J-29D01*
G01*
X176010500Y-110440000D02*
X176010500Y-108280000D01*
X179568162Y-108260000D02*
X176010500Y-108260000D01*
X180490000Y-107338162D02*
X180490000Y-102590000D01*
X180490000Y-107338162D02*
G75*
G02*
X180220011Y-107990011I-921800J-38D01*
G01*
X180220000Y-107990000D02*
G75*
G02*
X179568162Y-108259984I-651800J651800D01*
G01*
X198533413Y-108260000D02*
X195035500Y-108260000D01*
X195035500Y-110440000D02*
X195035500Y-108280000D01*
X199515000Y-107278413D02*
X199515000Y-102590000D01*
X199227500Y-107972500D02*
G75*
G02*
X198533413Y-108260006I-694100J694100D01*
G01*
X199515000Y-107278413D02*
G75*
G02*
X199227496Y-107972496I-981600J13D01*
G01*
X217515735Y-108260000D02*
X214060500Y-108260000D01*
X214060500Y-110440000D02*
X214060500Y-108280000D01*
X218540000Y-107235735D02*
X218540000Y-102590000D01*
X218240000Y-107960000D02*
G75*
G02*
X217515735Y-108260015I-724300J724300D01*
G01*
X218540000Y-107235735D02*
G75*
G02*
X218239989Y-107959989I-1024300J35D01*
G01*
X237565000Y-107090631D02*
X237565000Y-102590000D01*
X233085500Y-110440000D02*
X233085500Y-108280000D01*
X236395631Y-108260000D02*
X233085500Y-108260000D01*
X237565000Y-107090631D02*
G75*
G02*
X237222491Y-107917491I-1169400J31D01*
G01*
X237222500Y-107917500D02*
G75*
G02*
X236395631Y-108260013I-826900J826900D01*
G01*
X256590000Y-107047954D02*
X256590000Y-102590000D01*
X255377954Y-108260000D02*
X252110500Y-108260000D01*
X252110500Y-110440000D02*
X252110500Y-108280000D01*
X256590000Y-107047954D02*
G75*
G02*
X256234984Y-107904984I-1212100J54D01*
G01*
X256235000Y-107905000D02*
G75*
G02*
X255377954Y-108260022I-857100J857100D01*
G01*
X40160500Y-127305000D02*
X40160500Y-129465000D01*
X43035500Y-127305000D02*
X43035500Y-129465000D01*
X46205380Y-127285000D02*
X42835500Y-127285000D01*
X47315000Y-126175380D02*
X47315000Y-121615000D01*
X46990000Y-126960000D02*
G75*
G02*
X46205380Y-127284992I-784600J784600D01*
G01*
X47315000Y-126175380D02*
G75*
G02*
X46990006Y-126960006I-1109600J-20D01*
G01*
X61860500Y-129465000D02*
X61860500Y-127305000D01*
X65409626Y-127285000D02*
X61860500Y-127285000D01*
X66340000Y-126354626D02*
X66340000Y-121615000D01*
X66340000Y-126354626D02*
G75*
G02*
X66067492Y-127012492I-930400J26D01*
G01*
X66067500Y-127012500D02*
G75*
G02*
X65409626Y-127285011I-657900J657900D01*
G01*
X84494375Y-127285000D02*
X80885500Y-127285000D01*
X80885500Y-129465000D02*
X80885500Y-127305000D01*
X85365000Y-126414375D02*
X85365000Y-121615000D01*
X85365000Y-126414375D02*
G75*
G02*
X85110007Y-127030007I-870600J-25D01*
G01*
X85110000Y-127030000D02*
G75*
G02*
X84494375Y-127284990I-615600J615600D01*
G01*
X103510840Y-127285000D02*
X99910500Y-127285000D01*
X104390000Y-126405840D02*
X104390000Y-121615000D01*
X99910500Y-129465000D02*
X99910500Y-127305000D01*
X104132500Y-127027500D02*
G75*
G02*
X103510840Y-127285017I-621700J621700D01*
G01*
X104390000Y-126405840D02*
G75*
G02*
X104132488Y-127027488I-879200J40D01*
G01*
X118935500Y-129465000D02*
X118935500Y-127305000D01*
X122527304Y-127285000D02*
X118935500Y-127285000D01*
X123415000Y-126397304D02*
X123415000Y-121615000D01*
X123155000Y-127025000D02*
G75*
G02*
X122527304Y-127285002I-627700J627700D01*
G01*
X123415000Y-126397304D02*
G75*
G02*
X123154999Y-127024999I-887700J4D01*
G01*
X137960500Y-129465000D02*
X137960500Y-127305000D01*
X142440000Y-126320484D02*
X142440000Y-121615000D01*
X141475484Y-127285000D02*
X137960500Y-127285000D01*
X142157500Y-127002500D02*
G75*
G02*
X141475484Y-127284994I-682000J682000D01*
G01*
X142440000Y-126320484D02*
G75*
G02*
X142157504Y-127002504I-964500J-16D01*
G01*
X161465000Y-125885172D02*
X161465000Y-121615000D01*
X156985500Y-129465000D02*
X156985500Y-127305000D01*
X160065172Y-127285000D02*
X156985500Y-127285000D01*
X161465000Y-125885172D02*
G75*
G02*
X161055008Y-126875008I-1399800J-28D01*
G01*
X161055000Y-126875000D02*
G75*
G02*
X160065172Y-127284989I-989800J989800D01*
G01*
X176010500Y-129465000D02*
X176010500Y-127305000D01*
X180490000Y-126320484D02*
X180490000Y-121615000D01*
X179525484Y-127285000D02*
X176010500Y-127285000D01*
X180207500Y-127002500D02*
G75*
G02*
X179525484Y-127284994I-682000J682000D01*
G01*
X180490000Y-126320484D02*
G75*
G02*
X180207504Y-127002504I-964500J-16D01*
G01*
X195035500Y-129465000D02*
X195035500Y-127305000D01*
X199515000Y-126226593D02*
X199515000Y-121615000D01*
X198456593Y-127285000D02*
X195035500Y-127285000D01*
X199515000Y-126226593D02*
G75*
G02*
X199205002Y-126975002I-1058400J-7D01*
G01*
X199205000Y-126975000D02*
G75*
G02*
X198456593Y-127284997I-748400J748400D01*
G01*
X214060500Y-129465000D02*
X214060500Y-127305000D01*
X217694982Y-127285000D02*
X214060500Y-127285000D01*
X218540000Y-126439982D02*
X218540000Y-121615000D01*
X218540000Y-126439982D02*
G75*
G02*
X218292505Y-127037505I-845000J-18D01*
G01*
X218292500Y-127037500D02*
G75*
G02*
X217694982Y-127284993I-597500J597500D01*
G01*
X236694375Y-127285000D02*
X233085500Y-127285000D01*
X237565000Y-126414375D02*
X237565000Y-121615000D01*
X233085500Y-129465000D02*
X233085500Y-127305000D01*
X237565000Y-126414375D02*
G75*
G02*
X237310007Y-127030007I-870600J-25D01*
G01*
X237310000Y-127030000D02*
G75*
G02*
X236694375Y-127284990I-615600J615600D01*
G01*
X252110500Y-129465000D02*
X252110500Y-127305000D01*
X255642555Y-127285000D02*
X252110500Y-127285000D01*
X256590000Y-126337555D02*
X256590000Y-121615000D01*
X256590000Y-126337555D02*
G75*
G02*
X256312513Y-127007513I-947400J-45D01*
G01*
X256312500Y-127007500D02*
G75*
G02*
X255642555Y-127284982I-669900J669900D01*
G01*
X30331636Y-145725000D02*
X39127700Y-145725000D01*
X29365477Y-145750000D02*
X30271281Y-145750000D01*
X40160500Y-146757799D02*
X40160500Y-148490000D01*
X28290000Y-144674522D02*
X28290000Y-140640000D01*
X30301459Y-145737500D02*
G75*
G02*
X30271281Y-145749980I-30159J30200D01*
G01*
X28290000Y-144674522D02*
G75*
G03*
X28605007Y-145434993I1075500J22D01*
G01*
X28605000Y-145435000D02*
G75*
G03*
X29365477Y-145750009I760500J760500D01*
G01*
X39858000Y-146027500D02*
G75*
G02*
X40160500Y-146757799I-730300J-730300D01*
G01*
X39858000Y-146027500D02*
G75*
G03*
X39127700Y-145725000I-730300J-730300D01*
G01*
X30331636Y-145725000D02*
G75*
G03*
X30301436Y-145737477I-36J-42700D01*
G01*
X46469982Y-146310000D02*
X42835500Y-146310000D01*
X47315000Y-145464982D02*
X47315000Y-140640000D01*
X43035500Y-146330000D02*
X43035500Y-148490000D01*
X47315000Y-145464982D02*
G75*
G02*
X47067505Y-146062505I-845000J-18D01*
G01*
X47067500Y-146062500D02*
G75*
G02*
X46469982Y-146309993I-597500J597500D01*
G01*
X61860500Y-148490000D02*
X61860500Y-146330000D01*
X66340000Y-145319878D02*
X66340000Y-140640000D01*
X65349878Y-146310000D02*
X61860500Y-146310000D01*
X66050000Y-146020000D02*
G75*
G02*
X65349878Y-146309991I-700100J700100D01*
G01*
X66340000Y-145319878D02*
G75*
G02*
X66050006Y-146020006I-990100J-22D01*
G01*
X80885500Y-148490000D02*
X80885500Y-146330000D01*
X85365000Y-145379626D02*
X85365000Y-140640000D01*
X84434626Y-146310000D02*
X80885500Y-146310000D01*
X85365000Y-145379626D02*
G75*
G02*
X85092492Y-146037492I-930400J26D01*
G01*
X85092500Y-146037500D02*
G75*
G02*
X84434626Y-146310011I-657900J657900D01*
G01*
X99910500Y-148490000D02*
X99910500Y-146330000D01*
X104390000Y-145524730D02*
X104390000Y-140640000D01*
X103604730Y-146310000D02*
X99910500Y-146310000D01*
X104390000Y-145524730D02*
G75*
G02*
X104159991Y-146079991I-785300J30D01*
G01*
X104160000Y-146080000D02*
G75*
G02*
X103604730Y-146310013I-555300J555300D01*
G01*
X118935500Y-147138895D02*
X118935500Y-148490000D01*
X122552911Y-146310000D02*
X118935500Y-146310000D01*
X118935500Y-147021104D02*
X118935500Y-146330000D01*
X123415000Y-145447911D02*
X123415000Y-140640000D01*
X123415000Y-145447911D02*
G75*
G02*
X123162497Y-146057497I-862100J11D01*
G01*
X118952750Y-147097250D02*
G75*
G03*
X118935498Y-147138895I41650J-41650D01*
G01*
X123162500Y-146057500D02*
G75*
G02*
X122552911Y-146310005I-609600J609600D01*
G01*
X118952750Y-147062750D02*
G75*
G02*
X118952750Y-147097250I-17250J-17250D01*
G01*
X118935500Y-147021104D02*
G75*
G03*
X118952751Y-147062749I58900J4D01*
G01*
X141569375Y-146310000D02*
X137960500Y-146310000D01*
X142440000Y-145439375D02*
X142440000Y-140640000D01*
X137960500Y-148490000D02*
X137960500Y-146330000D01*
X142185000Y-146055000D02*
G75*
G02*
X141569375Y-146309990I-615600J615600D01*
G01*
X142440000Y-145439375D02*
G75*
G02*
X142185007Y-146055007I-870600J-25D01*
G01*
X160585840Y-146310000D02*
X156985500Y-146310000D01*
X156985500Y-148490000D02*
X156985500Y-146330000D01*
X161465000Y-145430840D02*
X161465000Y-140640000D01*
X161465000Y-145430840D02*
G75*
G02*
X161207488Y-146052488I-879200J40D01*
G01*
X161207500Y-146052500D02*
G75*
G02*
X160585840Y-146310017I-621700J621700D01*
G01*
X179636446Y-146310000D02*
X176010500Y-146310000D01*
X176010500Y-148490000D02*
X176010500Y-146330000D01*
X180490000Y-145456446D02*
X180490000Y-140640000D01*
X180240000Y-146060000D02*
G75*
G02*
X179636446Y-146310019I-603600J603600D01*
G01*
X180490000Y-145456446D02*
G75*
G02*
X180239986Y-146059986I-853600J46D01*
G01*
X195035500Y-148490000D02*
X195035500Y-146330000D01*
X199515000Y-145225987D02*
X199515000Y-140640000D01*
X198430987Y-146310000D02*
X195035500Y-146310000D01*
X199515000Y-145225987D02*
G75*
G02*
X199197504Y-145992504I-1084000J-13D01*
G01*
X199197500Y-145992500D02*
G75*
G02*
X198430987Y-146309995I-766500J766500D01*
G01*
X214060500Y-148490000D02*
X214060500Y-146330000D01*
X218540000Y-145439375D02*
X218540000Y-140640000D01*
X217669375Y-146310000D02*
X214060500Y-146310000D01*
X218285000Y-146055000D02*
G75*
G02*
X217669375Y-146309990I-615600J615600D01*
G01*
X218540000Y-145439375D02*
G75*
G02*
X218285007Y-146055007I-870600J-25D01*
G01*
X217679999Y-57039999D02*
X217972824Y-56747175D01*
X218040000Y-56490000D02*
X218040000Y-50538700D01*
X214010000Y-48934020D02*
X214010000Y-44134350D01*
X182148690Y-56358664D02*
X182148690Y-52065000D01*
X217391299Y-49890000D02*
X214965979Y-49890000D01*
X183190025Y-57400000D02*
X216810883Y-57400000D01*
X241190000Y-56358664D02*
X241190000Y-54600000D01*
X214334350Y-43810000D02*
X215190000Y-43810000D01*
X240148664Y-57400000D02*
X219303259Y-57400000D01*
X218040000Y-56490000D02*
X218040000Y-56585000D01*
X218040000Y-56490000D02*
X218040000Y-56575000D01*
X218100104Y-56720104D02*
X218410000Y-57030000D01*
X218040000Y-56585000D02*
G75*
G02*
X217972835Y-56747186I-229400J0D01*
G01*
X182148690Y-56358664D02*
G75*
G03*
X182453678Y-57095012I1041310J-36D01*
G01*
X217850000Y-50080000D02*
G75*
G03*
X217391299Y-49890000I-458700J-458700D01*
G01*
X240885000Y-57095000D02*
G75*
G02*
X240148664Y-57399985I-736300J736300D01*
G01*
X241190000Y-56358664D02*
G75*
G02*
X240885010Y-57095010I-1041300J-36D01*
G01*
X217679999Y-57039999D02*
G75*
G02*
X216810883Y-57399992I-869099J869099D01*
G01*
X217850000Y-50080000D02*
G75*
G02*
X218040000Y-50538700I-458700J-458700D01*
G01*
X218040000Y-56575000D02*
G75*
G03*
X218100106Y-56720102I205200J0D01*
G01*
X218410000Y-57030000D02*
G75*
G03*
X219303259Y-57400017I893300J893300D01*
G01*
X182453690Y-57095000D02*
G75*
G03*
X183190025Y-57399993I736310J736300D01*
G01*
X214290000Y-49610000D02*
G75*
G03*
X214965979Y-49890008I676000J676000D01*
G01*
X214105000Y-43905000D02*
G75*
G03*
X214010021Y-44134350I229300J-229300D01*
G01*
X214010000Y-48934020D02*
G75*
G03*
X214290006Y-49609994I956000J20D01*
G01*
X214334350Y-43810000D02*
G75*
G03*
X214104985Y-43904985I-50J-324300D01*
G01*
X48280000Y-48201629D02*
X48280000Y-52823223D01*
X46660000Y-47570000D02*
X46660000Y-49830000D01*
X49710000Y-53250000D02*
X48706776Y-53250000D01*
X49710000Y-53250000D02*
X49710000Y-50990000D01*
X46292000Y-47442000D02*
X41910000Y-47442000D01*
X47648370Y-47570000D02*
X46660000Y-47570000D01*
X48095000Y-47755000D02*
G75*
G02*
X48279988Y-48201629I-446600J-446600D01*
G01*
X48280000Y-52823223D02*
G75*
G03*
X48405007Y-53124993I426800J23D01*
G01*
X48405000Y-53125000D02*
G75*
G03*
X48706776Y-53250010I301800J301800D01*
G01*
X48095000Y-47755000D02*
G75*
G03*
X47648370Y-47570012I-446600J-446600D01*
G01*
X55150000Y-47570000D02*
X55150000Y-49830000D01*
X56630000Y-52857365D02*
X56630000Y-47918492D01*
X43630068Y-42442000D02*
X41910000Y-42442000D01*
X44190000Y-43001931D02*
X44190000Y-43814730D01*
X44975269Y-44600000D02*
X54433015Y-44600000D01*
X57022634Y-53250000D02*
X58260000Y-53250000D01*
X55150000Y-47570000D02*
X55150000Y-45316984D01*
X58260000Y-53250000D02*
X58260000Y-50990000D01*
X56402928Y-47570000D02*
X55150000Y-47570000D01*
X56525000Y-47665000D02*
X56425000Y-47565000D01*
X54940000Y-44810000D02*
G75*
G02*
X55150006Y-45316984I-507000J-507000D01*
G01*
X56745000Y-53135000D02*
G75*
G03*
X57022634Y-53249986I277600J277600D01*
G01*
X56425000Y-47565000D02*
G75*
G03*
X56415000Y-47565000I-5000J-4997D01*
G01*
X44026000Y-42606000D02*
G75*
G03*
X43630068Y-42442013I-395900J-395900D01*
G01*
X56630000Y-52857365D02*
G75*
G03*
X56744990Y-53135010I392600J-35D01*
G01*
X44420000Y-44370000D02*
G75*
G03*
X44975269Y-44600013I555300J555300D01*
G01*
X56525000Y-47665000D02*
G75*
G02*
X56630003Y-47918492I-253500J-253500D01*
G01*
X44190000Y-43814730D02*
G75*
G03*
X44420009Y-44369991I785300J30D01*
G01*
X44026000Y-42606000D02*
G75*
G02*
X44189987Y-43001931I-395900J-395900D01*
G01*
X56415000Y-47565000D02*
G75*
G02*
X56402928Y-47570012I-12100J12100D01*
G01*
X54940000Y-44810000D02*
G75*
G03*
X54433015Y-44599994I-507000J-507000D01*
G01*
D52*
X223070000Y-42340000D02*
X225330000Y-42340000D01*
X230927157Y-44310000D02*
X223995979Y-44310000D01*
X46660000Y-55190000D02*
X55150000Y-55190000D01*
X46660000Y-55190000D02*
X46660000Y-52930000D01*
X164877383Y-49400000D02*
X171481654Y-49400000D01*
X211705484Y-52065000D02*
X188508690Y-52065000D01*
X164425000Y-50900000D02*
X164425000Y-52065000D01*
X55150000Y-55190000D02*
X55150000Y-52930000D01*
X164425000Y-50041378D02*
X164425000Y-50900000D01*
X253582720Y-53550000D02*
X232804974Y-53550000D01*
X164425000Y-49852383D02*
X164425000Y-50900000D01*
X223040000Y-43354020D02*
X223040000Y-41920000D01*
X231610000Y-52355025D02*
X231610000Y-44992842D01*
X212660000Y-46360000D02*
X212650000Y-46350000D01*
X163733621Y-49350000D02*
X161488690Y-49350000D01*
X172045000Y-49963345D02*
X172045000Y-52065000D01*
X212670000Y-46384142D02*
X212670000Y-51100484D01*
X253890000Y-53857279D02*
X253890000Y-54600000D01*
X223320000Y-44030000D02*
G75*
G03*
X223995979Y-44310008I676000J676000D01*
G01*
X253800000Y-53640000D02*
G75*
G02*
X253890009Y-53857279I-217300J-217300D01*
G01*
X231960000Y-53200000D02*
G75*
G03*
X232804974Y-53550010I845000J845000D01*
G01*
X164222500Y-49552500D02*
G75*
G03*
X163733621Y-49349991I-488900J-488900D01*
G01*
X164557500Y-49532500D02*
G75*
G03*
X164424993Y-49852383I319900J-319900D01*
G01*
X223040000Y-43354020D02*
G75*
G03*
X223320006Y-44029994I956000J20D01*
G01*
X231610000Y-52355025D02*
G75*
G03*
X231960007Y-53199993I1195000J25D01*
G01*
X253800000Y-53640000D02*
G75*
G03*
X253582720Y-53549991I-217300J-217300D01*
G01*
X231410000Y-44510000D02*
G75*
G03*
X230927157Y-44310018I-482800J-482800D01*
G01*
X171880000Y-49565000D02*
G75*
G03*
X171481654Y-49400019I-398300J-398300D01*
G01*
X164222500Y-49552500D02*
G75*
G02*
X164425009Y-50041378I-488900J-488900D01*
G01*
X212670000Y-51100484D02*
G75*
G02*
X212387504Y-51782504I-964500J-16D01*
G01*
X212387500Y-51782500D02*
G75*
G02*
X211705484Y-52064994I-682000J682000D01*
G01*
X171880000Y-49565000D02*
G75*
G02*
X172044952Y-49963345I-398400J-398300D01*
G01*
X231410000Y-44510000D02*
G75*
G02*
X231609982Y-44992842I-482800J-482800D01*
G01*
X212660000Y-46360000D02*
G75*
G02*
X212669983Y-46384142I-24100J-24100D01*
G01*
X164877383Y-49400000D02*
G75*
G03*
X164557505Y-49532505I17J-452400D01*
G01*
D51*
X237565000Y-145464982D02*
X237565000Y-140640000D01*
X233085500Y-148490000D02*
X233085500Y-146330000D01*
X236719982Y-146310000D02*
X233085500Y-146310000D01*
X237317500Y-146062500D02*
G75*
G02*
X236719982Y-146309993I-597500J597500D01*
G01*
X237565000Y-145464982D02*
G75*
G02*
X237317505Y-146062505I-845000J-18D01*
G01*
X256590000Y-145456446D02*
X256590000Y-140640000D01*
X252110500Y-148490000D02*
X252110500Y-146330000D01*
X255736446Y-146310000D02*
X252110500Y-146310000D01*
X256340000Y-146060000D02*
G75*
G02*
X255736446Y-146310019I-603600J603600D01*
G01*
X256590000Y-145456446D02*
G75*
G02*
X256339986Y-146059986I-853600J46D01*
G01*
X60660500Y-57841953D02*
X60660500Y-41696375D01*
X34770000Y-54260000D02*
X32610000Y-54260000D01*
X46447193Y-58850000D02*
X59652453Y-58850000D01*
X44364522Y-51820000D02*
X37751335Y-51820000D01*
X45440000Y-52895477D02*
X45440000Y-57842806D01*
X36710000Y-52861335D02*
X36710000Y-53696654D01*
X187674443Y-39000000D02*
X63356875Y-39000000D01*
X36146654Y-54260000D02*
X34770000Y-54260000D01*
X188508690Y-39834246D02*
X188508690Y-44265000D01*
X45735000Y-58555000D02*
G75*
G03*
X46447193Y-58850003I712200J712200D01*
G01*
X37751335Y-51820000D02*
G75*
G03*
X37014990Y-52124990I-35J-1041300D01*
G01*
X37015000Y-52125000D02*
G75*
G03*
X36710015Y-52861335I736300J-736300D01*
G01*
X60365250Y-58554750D02*
G75*
G02*
X59652453Y-58849981I-712750J712750D01*
G01*
X63356875Y-39000000D02*
G75*
G03*
X61450257Y-39789757I25J-2696400D01*
G01*
X45125000Y-52135000D02*
G75*
G03*
X44364522Y-51819991I-760500J-760500D01*
G01*
X45440000Y-57842806D02*
G75*
G03*
X45735002Y-58554998I1007200J6D01*
G01*
X60660500Y-57841953D02*
G75*
G02*
X60365264Y-58554764I-1008000J-47D01*
G01*
X61450250Y-39789750D02*
G75*
G03*
X60660490Y-41696375I1906650J-1906650D01*
G01*
X45125000Y-52135000D02*
G75*
G02*
X45440009Y-52895477I-760500J-760500D01*
G01*
X36710000Y-53696654D02*
G75*
G02*
X36544984Y-54094984I-563400J54D01*
G01*
X188264345Y-39244345D02*
G75*
G02*
X188508645Y-39834246I-589945J-589855D01*
G01*
X188264345Y-39244345D02*
G75*
G03*
X187674443Y-38999955I-589945J-589855D01*
G01*
X36545000Y-54095000D02*
G75*
G02*
X36146654Y-54260023I-398400J398400D01*
G01*
X241190000Y-39985497D02*
X241190000Y-39360000D01*
X212650000Y-42107365D02*
X212650000Y-41270000D01*
X217910771Y-38785000D02*
X231581758Y-38785000D01*
X217245000Y-42047616D02*
X217245000Y-39450771D01*
X232000000Y-39203241D02*
X232000000Y-39968426D01*
X216792616Y-42500000D02*
X213042634Y-42500000D01*
X240816997Y-40358500D02*
X232390073Y-40358500D01*
X217910771Y-38785000D02*
G75*
G03*
X217440008Y-38980008I29J-665800D01*
G01*
X241190000Y-39985497D02*
G75*
G02*
X241080751Y-40249251I-373000J-3D01*
G01*
X241080750Y-40249250D02*
G75*
G02*
X240816997Y-40358499I-263750J263750D01*
G01*
X212650000Y-42107365D02*
G75*
G03*
X212764990Y-42385010I392600J-35D01*
G01*
X217112500Y-42367500D02*
G75*
G02*
X216792616Y-42500007I-319900J319900D01*
G01*
X232114250Y-40244250D02*
G75*
G03*
X232390073Y-40358511I275850J275850D01*
G01*
X212765000Y-42385000D02*
G75*
G03*
X213042634Y-42499986I277600J277600D01*
G01*
X232000000Y-39968426D02*
G75*
G03*
X232114258Y-40244242I390100J26D01*
G01*
X217245000Y-42047616D02*
G75*
G02*
X217112495Y-42367495I-452400J16D01*
G01*
X231877500Y-38907500D02*
G75*
G03*
X231581758Y-38785017I-295700J-295700D01*
G01*
X231877500Y-38907500D02*
G75*
G02*
X231999983Y-39203241I-295700J-295700D01*
G01*
X217440000Y-38980000D02*
G75*
G03*
X217244988Y-39450771I470800J-470800D01*
G01*
X211319913Y-43810000D02*
X212650000Y-43810000D01*
X210620000Y-48451299D02*
X210620000Y-44509913D01*
X185968690Y-49765771D02*
X185968690Y-52065000D01*
X209971299Y-49100000D02*
X186634461Y-49100000D01*
X210430000Y-48910000D02*
G75*
G02*
X209971299Y-49100000I-458700J458700D01*
G01*
X211319913Y-43810000D02*
G75*
G03*
X210824996Y-44014996I-13J-699900D01*
G01*
X210825000Y-44015000D02*
G75*
G03*
X210620006Y-44509913I494900J-494900D01*
G01*
X186163690Y-49295000D02*
G75*
G03*
X185968652Y-49765771I470710J-470800D01*
G01*
X210620000Y-48451299D02*
G75*
G02*
X210430000Y-48910000I-648700J-1D01*
G01*
X186634461Y-49100000D02*
G75*
G03*
X186163703Y-49295013I39J-665800D01*
G01*
D52*
X68871837Y-146130000D02*
X76288751Y-146130000D01*
X163075000Y-147510000D02*
X163075000Y-146872591D01*
X27430000Y-72635702D02*
X27430000Y-75578000D01*
X97390000Y-147979030D02*
X97390000Y-149150796D01*
X122410000Y-76866446D02*
X122410000Y-71978700D01*
X182100000Y-147510000D02*
X180220624Y-147510000D01*
X254963517Y-77720000D02*
X251975000Y-77720000D01*
X141410000Y-148602548D02*
X141410000Y-148809375D01*
X250980000Y-51800000D02*
X250980000Y-50859913D01*
X50009012Y-146100000D02*
X57765527Y-146100000D01*
X262549999Y-91935000D02*
X262549999Y-95159999D01*
X121556446Y-77720000D02*
X119072344Y-77720000D01*
X179608690Y-47090986D02*
X179608690Y-44265000D01*
X220150000Y-147510000D02*
X218044558Y-147510000D01*
X250980000Y-51800000D02*
X253240000Y-51800000D01*
X116948198Y-149680000D02*
X121793517Y-149680000D01*
X106251022Y-146548977D02*
X106310000Y-146490000D01*
X218404055Y-39790000D02*
X219630000Y-39790000D01*
X44991593Y-77720000D02*
X42735000Y-77720000D01*
X256614055Y-147510000D02*
X258199999Y-147510000D01*
X244746776Y-50160000D02*
X250280086Y-50160000D01*
X161477659Y-44265000D02*
X163145000Y-44265000D01*
X184698690Y-48371317D02*
X184698690Y-52065000D01*
X216815441Y-149730000D02*
X212154558Y-149730000D01*
X145057193Y-146030000D02*
X152312685Y-146030000D01*
X29090000Y-114554000D02*
X28444000Y-114554000D01*
X178791091Y-77720000D02*
X176185000Y-77720000D01*
X46784055Y-71400000D02*
X48965000Y-71400000D01*
X240780416Y-44300000D02*
X241570000Y-44300000D01*
X172346801Y-129985000D02*
X167425000Y-129985000D01*
X243830000Y-44300000D02*
X252763309Y-44300000D01*
X254872806Y-149700000D02*
X249761629Y-149700000D01*
X29900000Y-147125000D02*
X29900000Y-147510000D01*
X248344375Y-129985000D02*
X243524999Y-129985000D01*
X103630000Y-148741091D02*
X103630000Y-148448908D01*
X41050000Y-58230000D02*
X41200000Y-58080000D01*
X255800000Y-76883517D02*
X255800000Y-72212340D01*
X217430000Y-149115441D02*
X217430000Y-148124558D01*
X40179999Y-61089999D02*
X40136378Y-61133621D01*
X87342499Y-146417499D02*
X87231326Y-146528673D01*
X229472598Y-146070000D02*
X221481543Y-146070000D01*
X66313553Y-147510000D02*
X67950000Y-147510000D01*
X28052000Y-110446707D02*
X28052000Y-114162000D01*
X115955000Y-130719055D02*
X115955000Y-133110000D01*
X262803812Y-43690000D02*
X260130832Y-43690000D01*
X160670000Y-148585477D02*
X160670000Y-149101299D01*
X177747555Y-44265000D02*
X179608690Y-44265000D01*
X179350000Y-148380624D02*
X179350000Y-148879375D01*
X192810000Y-149187867D02*
X192810000Y-147189619D01*
X28298000Y-76446000D02*
X28836000Y-76446000D01*
X259602512Y-54600000D02*
X258970000Y-54600000D01*
X258650000Y-44010000D02*
X258970000Y-44330000D01*
X144050000Y-147510000D02*
X144050000Y-147037193D01*
X29950000Y-70423345D02*
X29950000Y-71410000D01*
X40510000Y-60293309D02*
X40510000Y-59151837D01*
X220539999Y-146459999D02*
X220383345Y-146616654D01*
X97919203Y-149680000D02*
X102691091Y-149680000D01*
X86975000Y-147510000D02*
X85369913Y-147510000D01*
X191700380Y-146080000D02*
X182970624Y-146080000D01*
X115220944Y-129985000D02*
X110350000Y-129985000D01*
X45300883Y-149730000D02*
X38688700Y-149730000D01*
X36606030Y-146150000D02*
X30907193Y-146150000D01*
X39450000Y-57717867D02*
X39450000Y-57040000D01*
X260200000Y-55197487D02*
X260200000Y-57540000D01*
X230770000Y-147367401D02*
X230770000Y-148870588D01*
X231589411Y-149690000D02*
X235641801Y-149690000D01*
X243830000Y-44300000D02*
X241570000Y-44300000D01*
X135300000Y-148570380D02*
X135300000Y-147262045D01*
X264235000Y-130582487D02*
X264235000Y-133730000D01*
X123058700Y-71330000D02*
X124995000Y-71330000D01*
X49199003Y-146460996D02*
X49242500Y-146417500D01*
X198084228Y-149700000D02*
X193322132Y-149700000D01*
X67950000Y-147051837D02*
X67950000Y-147510000D01*
X253890000Y-39360000D02*
X253890000Y-43173309D01*
X201125000Y-147510000D02*
X201125000Y-147049159D01*
X41050000Y-58230000D02*
X39962132Y-58230000D01*
X65089999Y-149329999D02*
X65124124Y-149295875D01*
X65460000Y-148363553D02*
X65460000Y-148485000D01*
X173490000Y-147307903D02*
X173490000Y-148862304D01*
X256602340Y-71410000D02*
X257764999Y-71410000D01*
X211540000Y-149115441D02*
X211540000Y-147621040D01*
X86975000Y-147147500D02*
X86975000Y-147510000D01*
X264050000Y-42443812D02*
X264050000Y-39360000D01*
X84670000Y-148644522D02*
X84670000Y-148209913D01*
X160698690Y-45043969D02*
X160698690Y-45665000D01*
X258970000Y-50639669D02*
X258970000Y-44850832D01*
X182100000Y-147510000D02*
X182100000Y-146950624D01*
X256430000Y-39360000D02*
X256430000Y-42802304D01*
X37483162Y-69860000D02*
X30513345Y-69860000D01*
X173115000Y-130753198D02*
X173115000Y-133110000D01*
X177113690Y-44898865D02*
X177113690Y-46215000D01*
X154839203Y-149750000D02*
X160021299Y-149750000D01*
X38405000Y-62504012D02*
X38405000Y-68938162D01*
X237331837Y-147510000D02*
X239174999Y-147510000D01*
X59080000Y-147414472D02*
X59080000Y-148880588D01*
X46050000Y-72134055D02*
X46050000Y-76661593D01*
X244320000Y-50586776D02*
X244320000Y-51518370D01*
X217670000Y-45359878D02*
X217670000Y-40524055D01*
X180395771Y-71410000D02*
X181665000Y-71410000D01*
X180037703Y-47520000D02*
X183847372Y-47520000D01*
X116180000Y-147665182D02*
X116180000Y-148911801D01*
X263637512Y-129985000D02*
X263034999Y-129985000D01*
X163075000Y-147510000D02*
X161745477Y-147510000D01*
X140539375Y-149680000D02*
X136409619Y-149680000D01*
X249215000Y-130855624D02*
X249215000Y-133110000D01*
X220150000Y-147510000D02*
X220150000Y-147180000D01*
X179730000Y-72075771D02*
X179730000Y-76781091D01*
X236410000Y-148921801D02*
X236410000Y-148431837D01*
X174377695Y-149750000D02*
X178479375Y-149750000D01*
X114694817Y-146180000D02*
X107058406Y-146180000D01*
X28655702Y-71410000D02*
X29900000Y-71410000D01*
X125025000Y-147510000D02*
X123176274Y-147510000D01*
X240002947Y-145910000D02*
X248139878Y-145910000D01*
X38722499Y-61737499D02*
X38753621Y-61706378D01*
X243688370Y-52150000D02*
X237345000Y-52150000D01*
X256430000Y-39360000D02*
X253890000Y-39360000D01*
X29038707Y-109460000D02*
X29465000Y-109460000D01*
X122630000Y-148843517D02*
X122630000Y-148056274D01*
X106000000Y-147510000D02*
X104568908Y-147510000D01*
X78030000Y-149242010D02*
X78030000Y-147871248D01*
X95460969Y-146050000D02*
X88229723Y-146050000D01*
X41350000Y-57717867D02*
X41350000Y-57040000D01*
X78507989Y-149720000D02*
X83594522Y-149720000D01*
X198750000Y-148244055D02*
X198750000Y-149034228D01*
X202004159Y-146170000D02*
X210088959Y-146170000D01*
X41050000Y-58230000D02*
X40780000Y-58500000D01*
X255880000Y-148244055D02*
X255880000Y-148692806D01*
X41837157Y-57040000D02*
X41350000Y-57040000D01*
X239090380Y-40783500D02*
X231781421Y-40783500D01*
X249130000Y-149068370D02*
X249130000Y-146900121D01*
X142502548Y-147510000D02*
X144050000Y-147510000D01*
X125316681Y-146393318D02*
X125342500Y-146367500D01*
X216679878Y-46350000D02*
X215190000Y-46350000D01*
X231440000Y-40199705D02*
X231440000Y-40442078D01*
X48925000Y-147122500D02*
X48925000Y-147510000D01*
X257877451Y-43690000D02*
X257317695Y-43690000D01*
X106000000Y-147155000D02*
X106000000Y-147510000D01*
X239174999Y-146737948D02*
X239174999Y-147510000D01*
X30194999Y-146444999D02*
X30172236Y-146467763D01*
X172312096Y-146130000D02*
X163817591Y-146130000D01*
X38040000Y-147583969D02*
X38040000Y-149081299D01*
X47229913Y-147510000D02*
X48925000Y-147510000D01*
X240200000Y-41893119D02*
X240200000Y-43719583D01*
X154310000Y-148027314D02*
X154310000Y-149220796D01*
X42520000Y-56357157D02*
X42520000Y-53555000D01*
X231030294Y-39790000D02*
X219630000Y-39790000D01*
X257689669Y-51920000D02*
X253250000Y-51920000D01*
X126109012Y-146050000D02*
X134087954Y-146050000D01*
X125025000Y-147097500D02*
X125025000Y-147510000D01*
X59899411Y-149700000D02*
X64196740Y-149700000D01*
X201125000Y-147510000D02*
X199484055Y-147510000D01*
X46530000Y-148500883D02*
X46530000Y-148209913D01*
X264060000Y-130160000D02*
G75*
G03*
X263637512Y-129984995I-422500J-422500D01*
G01*
X96825000Y-146615000D02*
G75*
G02*
X97389987Y-147979030I-1364000J-1364000D01*
G01*
X46265000Y-71615000D02*
G75*
G03*
X46049952Y-72134055I519000J-519100D01*
G01*
X115740000Y-130200000D02*
G75*
G03*
X115220944Y-129984952I-519100J-519000D01*
G01*
X122790000Y-147670000D02*
G75*
G03*
X122629989Y-148056274I386300J-386300D01*
G01*
X180395771Y-71410000D02*
G75*
G03*
X179925008Y-71605008I29J-665800D01*
G01*
X160985000Y-147825000D02*
G75*
G03*
X160669991Y-148585477I760500J-760500D01*
G01*
X240370000Y-44130000D02*
G75*
G03*
X240780416Y-44299993I410400J410400D01*
G01*
X179605000Y-147765000D02*
G75*
G03*
X179350010Y-148380624I615600J-615600D01*
G01*
X240200000Y-43719583D02*
G75*
G03*
X240369995Y-44130005I580400J-17D01*
G01*
X244445000Y-50285000D02*
G75*
G03*
X244319990Y-50586776I301800J-301800D01*
G01*
X30172236Y-146467763D02*
G75*
G03*
X29900007Y-147125000I657264J-657237D01*
G01*
X264060000Y-130160000D02*
G75*
G02*
X264235005Y-130582487I-422500J-422500D01*
G01*
X211115000Y-146595000D02*
G75*
G02*
X211539983Y-147621040I-1026000J-1026000D01*
G01*
X50009012Y-146100000D02*
G75*
G03*
X49242496Y-146417496I-12J-1084000D01*
G01*
X58695000Y-146485000D02*
G75*
G03*
X57765527Y-146099988I-929500J-929500D01*
G01*
X115740000Y-130200000D02*
G75*
G02*
X115955018Y-130719055I-519100J-519100D01*
G01*
X211115000Y-146595000D02*
G75*
G03*
X210088959Y-146170017I-1026000J-1026000D01*
G01*
X199484055Y-147510000D02*
G75*
G03*
X198965034Y-147725034I45J-734000D01*
G01*
X179455000Y-77445000D02*
G75*
G02*
X178791091Y-77719996I-663900J663900D01*
G01*
X84355000Y-149405000D02*
G75*
G02*
X83594522Y-149720009I-760500J760500D01*
G01*
X198750000Y-149034228D02*
G75*
G02*
X198554992Y-149504992I-665800J28D01*
G01*
X135300000Y-148570380D02*
G75*
G03*
X135624994Y-149355006I1109600J-20D01*
G01*
X134945000Y-146405000D02*
G75*
G03*
X134087954Y-146050019I-857000J-857000D01*
G01*
X173145000Y-146475000D02*
G75*
G02*
X173489998Y-147307903I-832900J-832900D01*
G01*
X46784055Y-71400000D02*
G75*
G03*
X46265034Y-71615034I45J-734000D01*
G01*
X46170000Y-149370000D02*
G75*
G02*
X45300883Y-149729993I-869100J869100D01*
G01*
X161477659Y-44265000D02*
G75*
G03*
X160926859Y-44493169I41J-779000D01*
G01*
X145057193Y-146030000D02*
G75*
G03*
X144345002Y-146325002I7J-1007200D01*
G01*
X172890000Y-130210000D02*
G75*
G03*
X172346801Y-129984999I-543200J-543200D01*
G01*
X231320000Y-39910000D02*
G75*
G03*
X231030294Y-39790002I-289700J-289700D01*
G01*
X217610000Y-147690000D02*
G75*
G03*
X217429953Y-148124558I434500J-434600D01*
G01*
X248840000Y-146200000D02*
G75*
G03*
X248139878Y-145910009I-700100J-700100D01*
G01*
X239875000Y-41108500D02*
G75*
G02*
X240199992Y-41893119I-784600J-784600D01*
G01*
X198555000Y-149505000D02*
G75*
G02*
X198084228Y-149700012I-470800J470800D01*
G01*
X58695000Y-146485000D02*
G75*
G02*
X59080012Y-147414472I-929500J-929500D01*
G01*
X46050000Y-76661593D02*
G75*
G02*
X45740002Y-77410002I-1058400J-7D01*
G01*
X77520000Y-146640000D02*
G75*
G02*
X78029980Y-147871248I-1231200J-1231200D01*
G01*
X184449345Y-47769345D02*
G75*
G03*
X183847372Y-47520014I-601945J-601955D01*
G01*
X28655702Y-71410000D02*
G75*
G03*
X27788999Y-71768999I-2J-1225700D01*
G01*
X116180000Y-148911801D02*
G75*
G03*
X116405001Y-149454999I768200J1D01*
G01*
X97545000Y-149525000D02*
G75*
G03*
X97919203Y-149679999I374200J374200D01*
G01*
X115745000Y-146615000D02*
G75*
G02*
X116180007Y-147665182I-1050200J-1050200D01*
G01*
X173490000Y-148862304D02*
G75*
G03*
X173750001Y-149489999I887700J4D01*
G01*
X263685000Y-43325000D02*
G75*
G02*
X262803812Y-43690005I-881200J881200D01*
G01*
X202004159Y-146170000D02*
G75*
G03*
X201382512Y-146427512I41J-879200D01*
G01*
X122600000Y-71520000D02*
G75*
G03*
X122410000Y-71978700I458700J-458700D01*
G01*
X236185000Y-149465000D02*
G75*
G02*
X235641801Y-149690001I-543200J543200D01*
G01*
X255880000Y-148692806D02*
G75*
G02*
X255584998Y-149404998I-1007200J6D01*
G01*
X217380000Y-46060000D02*
G75*
G02*
X216679878Y-46349991I-700100J700100D01*
G01*
X192485000Y-146405000D02*
G75*
G02*
X192809992Y-147189619I-784600J-784600D01*
G01*
X144345000Y-146325000D02*
G75*
G03*
X144049997Y-147037193I712200J-712200D01*
G01*
X218404055Y-39790000D02*
G75*
G03*
X217885034Y-40005034I45J-734000D01*
G01*
X217885000Y-40005000D02*
G75*
G03*
X217669952Y-40524055I519000J-519100D01*
G01*
X68871837Y-146130000D02*
G75*
G03*
X68219989Y-146399989I-37J-921800D01*
G01*
X182355000Y-146335000D02*
G75*
G03*
X182100010Y-146950624I615600J-615600D01*
G01*
X38040000Y-149081299D02*
G75*
G03*
X38230000Y-149540000I648700J-1D01*
G01*
X179350000Y-148879375D02*
G75*
G02*
X179095007Y-149495007I-870600J-25D01*
G01*
X38722499Y-61737499D02*
G75*
G03*
X38405004Y-62504012I766501J-766501D01*
G01*
X244320000Y-51518370D02*
G75*
G02*
X244135009Y-51965009I-631600J-30D01*
G01*
X248960000Y-130240000D02*
G75*
G02*
X249214990Y-130855624I-615600J-615600D01*
G01*
X231320000Y-39910000D02*
G75*
G02*
X231439998Y-40199705I-289700J-289700D01*
G01*
X264050000Y-42443812D02*
G75*
G02*
X263684996Y-43324996I-1246200J12D01*
G01*
X249315000Y-149515000D02*
G75*
G03*
X249761629Y-149699988I446600J446600D01*
G01*
X260025000Y-54775000D02*
G75*
G03*
X259602512Y-54599995I-422500J-422500D01*
G01*
X160670000Y-149101299D02*
G75*
G02*
X160480000Y-149560000I-648700J-1D01*
G01*
X39450000Y-57717867D02*
G75*
G03*
X39599991Y-58080009I512100J-33D01*
G01*
X45740000Y-77410000D02*
G75*
G02*
X44991593Y-77719997I-748400J748400D01*
G01*
X68220000Y-146400000D02*
G75*
G03*
X67950016Y-147051837I651800J-651800D01*
G01*
X96825000Y-146615000D02*
G75*
G03*
X95460969Y-146050013I-1364000J-1364000D01*
G01*
X177747555Y-44265000D02*
G75*
G03*
X177299360Y-44450670I45J-633900D01*
G01*
X27789000Y-71769000D02*
G75*
G03*
X27430001Y-72635702I866700J-866700D01*
G01*
X179608690Y-47090986D02*
G75*
G03*
X179734339Y-47394351I429010J-14D01*
G01*
X122410000Y-76866446D02*
G75*
G02*
X122159986Y-77469986I-853600J46D01*
G01*
X40510000Y-60293309D02*
G75*
G02*
X40179997Y-61089997I-1126700J9D01*
G01*
X42520000Y-56357157D02*
G75*
G02*
X42320033Y-56840033I-682900J-43D01*
G01*
X244746776Y-50160000D02*
G75*
G03*
X244445007Y-50285007I24J-426800D01*
G01*
X180220624Y-147510000D02*
G75*
G03*
X179604993Y-147764993I-24J-870600D01*
G01*
X30907193Y-146150000D02*
G75*
G03*
X30195002Y-146445002I7J-1007200D01*
G01*
X46735000Y-147715000D02*
G75*
G03*
X46530006Y-148209913I494900J-494900D01*
G01*
X184449345Y-47769345D02*
G75*
G02*
X184698686Y-48371317I-601945J-601955D01*
G01*
X248960000Y-130240000D02*
G75*
G03*
X248344375Y-129985010I-615600J-615600D01*
G01*
X154465000Y-149595000D02*
G75*
G03*
X154839203Y-149749999I374200J374200D01*
G01*
X40780000Y-58500000D02*
G75*
G03*
X40510016Y-59151837I651800J-651800D01*
G01*
X122630000Y-148843517D02*
G75*
G02*
X122384995Y-149434995I-836500J17D01*
G01*
X141155000Y-149425000D02*
G75*
G02*
X140539375Y-149679990I-615600J615600D01*
G01*
X41350000Y-57717867D02*
G75*
G02*
X41200009Y-58080009I-512100J-33D01*
G01*
X179730000Y-76781091D02*
G75*
G02*
X179455003Y-77445003I-938900J-9D01*
G01*
X78170000Y-149580000D02*
G75*
G03*
X78507989Y-149720004I338000J338000D01*
G01*
X163292500Y-146347500D02*
G75*
G03*
X163074996Y-146872591I525100J-525100D01*
G01*
X217430000Y-149115441D02*
G75*
G02*
X217249988Y-149549988I-614600J41D01*
G01*
X253560000Y-43970000D02*
G75*
G02*
X252763309Y-44300004I-796700J796700D01*
G01*
X236410000Y-148921801D02*
G75*
G02*
X236184999Y-149464999I-768200J1D01*
G01*
X179925000Y-71605000D02*
G75*
G03*
X179729988Y-72075771I470800J-470800D01*
G01*
X256614055Y-147510000D02*
G75*
G03*
X256095034Y-147725034I45J-734000D01*
G01*
X231540000Y-40683500D02*
G75*
G03*
X231781421Y-40783491I241400J241400D01*
G01*
X125316681Y-146393318D02*
G75*
G03*
X125025010Y-147097500I704219J-704182D01*
G01*
X256690000Y-43430000D02*
G75*
G03*
X257317695Y-43690002I627700J627700D01*
G01*
X244135000Y-51965000D02*
G75*
G02*
X243688370Y-52149988I-446600J446600D01*
G01*
X260130832Y-43690000D02*
G75*
G03*
X259309990Y-44029990I-32J-1160800D01*
G01*
X239417499Y-146152500D02*
G75*
G03*
X239175019Y-146737948I585401J-585400D01*
G01*
X103630000Y-148741091D02*
G75*
G02*
X103355003Y-149405003I-938900J-9D01*
G01*
X49199003Y-146460996D02*
G75*
G03*
X48924997Y-147122500I661497J-661504D01*
G01*
X123176274Y-147510000D02*
G75*
G03*
X122790008Y-147670008I26J-546300D01*
G01*
X126109012Y-146050000D02*
G75*
G03*
X125342496Y-146367496I-12J-1084000D01*
G01*
X173750000Y-149490000D02*
G75*
G03*
X174377695Y-149750002I627700J627700D01*
G01*
X115745000Y-146615000D02*
G75*
G03*
X114694817Y-146179993I-1050200J-1050200D01*
G01*
X258595000Y-51545000D02*
G75*
G02*
X257689669Y-51919988I-905300J905300D01*
G01*
X192960000Y-149550000D02*
G75*
G03*
X193322132Y-149699987I362100J362100D01*
G01*
X122385000Y-149435000D02*
G75*
G02*
X121793517Y-149680007I-591500J591500D01*
G01*
X87231326Y-146528673D02*
G75*
G03*
X86974984Y-147147500I618774J-618827D01*
G01*
X134945000Y-146405000D02*
G75*
G02*
X135299981Y-147262045I-857000J-857000D01*
G01*
X30115000Y-70025000D02*
G75*
G03*
X29950019Y-70423345I398300J-398300D01*
G01*
X39600000Y-58080000D02*
G75*
G03*
X39962132Y-58229987I362100J362100D01*
G01*
X217250000Y-149550000D02*
G75*
G02*
X216815441Y-149730017I-434600J434600D01*
G01*
X201382500Y-146427500D02*
G75*
G03*
X201124983Y-147049159I621700J-621700D01*
G01*
X237331837Y-147510000D02*
G75*
G03*
X236679989Y-147779989I-37J-921800D01*
G01*
X218044558Y-147510000D02*
G75*
G03*
X217610033Y-147690033I42J-614500D01*
G01*
X103905000Y-147785000D02*
G75*
G03*
X103630004Y-148448908I663900J-663900D01*
G01*
X198965000Y-147725000D02*
G75*
G03*
X198749952Y-148244055I519000J-519100D01*
G01*
X153725000Y-146615000D02*
G75*
G02*
X154309994Y-148027314I-1412300J-1412300D01*
G01*
X30513345Y-69860000D02*
G75*
G03*
X30114987Y-70024987I-45J-563300D01*
G01*
X39445000Y-61420000D02*
G75*
G03*
X38753612Y-61706369I0J-977800D01*
G01*
X142502548Y-147510000D02*
G75*
G03*
X141729986Y-147829986I-48J-1092500D01*
G01*
X104568908Y-147510000D02*
G75*
G03*
X103904997Y-147784997I-8J-938900D01*
G01*
X106251022Y-146548977D02*
G75*
G03*
X105999986Y-147155000I605978J-606023D01*
G01*
X160926845Y-44493155D02*
G75*
G03*
X160698651Y-45043969I550755J-550845D01*
G01*
X220383345Y-146616654D02*
G75*
G03*
X220150002Y-147180000I563355J-563346D01*
G01*
X221481543Y-146070000D02*
G75*
G03*
X220539987Y-146459987I-43J-1331500D01*
G01*
X255585000Y-149405000D02*
G75*
G02*
X254872806Y-149700003I-712200J712200D01*
G01*
X38230000Y-149540000D02*
G75*
G03*
X38688700Y-149730000I458700J458700D01*
G01*
X88229723Y-146050000D02*
G75*
G03*
X87342493Y-146417493I-23J-1254700D01*
G01*
X230770000Y-148870588D02*
G75*
G03*
X231009997Y-149450003I819400J-12D01*
G01*
X258650000Y-44010000D02*
G75*
G03*
X257877451Y-43690020I-772500J-772500D01*
G01*
X217670000Y-45359878D02*
G75*
G02*
X217380006Y-46060006I-990100J-22D01*
G01*
X28341000Y-109749000D02*
G75*
G03*
X28052003Y-110446707I697700J-697700D01*
G01*
X192485000Y-146405000D02*
G75*
G03*
X191700380Y-146080008I-784600J-784600D01*
G01*
X182970624Y-146080000D02*
G75*
G03*
X182354993Y-146334993I-24J-870600D01*
G01*
X258970000Y-50639669D02*
G75*
G02*
X258595009Y-51545009I-1280300J-31D01*
G01*
X122160000Y-77470000D02*
G75*
G02*
X121556446Y-77720019I-603600J603600D01*
G01*
X116405000Y-149455000D02*
G75*
G03*
X116948198Y-149680001I543200J543200D01*
G01*
X123058700Y-71330000D02*
G75*
G03*
X122600000Y-71520000I0J-648700D01*
G01*
X259310000Y-44030000D02*
G75*
G03*
X258970014Y-44850832I820800J-820800D01*
G01*
X240002947Y-145910000D02*
G75*
G03*
X239417486Y-146152487I-47J-827900D01*
G01*
X37620000Y-146570000D02*
G75*
G02*
X38040013Y-147583969I-1014000J-1014000D01*
G01*
X59320000Y-149460000D02*
G75*
G03*
X59899411Y-149699995I579400J579400D01*
G01*
X97390000Y-149150796D02*
G75*
G03*
X97544999Y-149525001I529200J-4D01*
G01*
X256602340Y-71410000D02*
G75*
G03*
X256034988Y-71644988I-40J-802300D01*
G01*
X256095000Y-147725000D02*
G75*
G03*
X255879952Y-148244055I519000J-519100D01*
G01*
X38405000Y-68938162D02*
G75*
G02*
X38135011Y-69590011I-921800J-38D01*
G01*
X37620000Y-146570000D02*
G75*
G03*
X36606030Y-146149987I-1014000J-1014000D01*
G01*
X255800000Y-76883517D02*
G75*
G02*
X255554995Y-77474995I-836500J17D01*
G01*
X239875000Y-41108500D02*
G75*
G03*
X239090380Y-40783508I-784600J-784600D01*
G01*
X192810000Y-149187867D02*
G75*
G03*
X192959991Y-149550009I512100J-33D01*
G01*
X38135000Y-69590000D02*
G75*
G02*
X37483162Y-69859984I-651800J651800D01*
G01*
X103355000Y-149405000D02*
G75*
G02*
X102691091Y-149679996I-663900J663900D01*
G01*
X163817591Y-146130000D02*
G75*
G03*
X163292503Y-146347503I9J-742600D01*
G01*
X250775000Y-50365000D02*
G75*
G03*
X250280086Y-50160006I-494900J-494900D01*
G01*
X211720000Y-149550000D02*
G75*
G03*
X212154558Y-149730017I434600J434600D01*
G01*
X29038707Y-109460000D02*
G75*
G03*
X28340998Y-109748998I-7J-986700D01*
G01*
X230390000Y-146450000D02*
G75*
G02*
X230770000Y-147367401I-917400J-917400D01*
G01*
X77520000Y-146640000D02*
G75*
G03*
X76288751Y-146130020I-1231200J-1231200D01*
G01*
X84875000Y-147715000D02*
G75*
G03*
X84670006Y-148209913I494900J-494900D01*
G01*
X260025000Y-54775000D02*
G75*
G02*
X260200005Y-55197487I-422500J-422500D01*
G01*
X256035000Y-71645000D02*
G75*
G03*
X255800017Y-72212340I567300J-567300D01*
G01*
X161745477Y-147510000D02*
G75*
G03*
X160985007Y-147825007I23J-1075500D01*
G01*
X78030000Y-149242010D02*
G75*
G03*
X78170003Y-149579997I478000J10D01*
G01*
X230390000Y-146450000D02*
G75*
G03*
X229472598Y-146070000I-917400J-917400D01*
G01*
X179734345Y-47394345D02*
G75*
G03*
X180037703Y-47520002I303355J303345D01*
G01*
X253890000Y-43173309D02*
G75*
G02*
X253559997Y-43969997I-1126700J9D01*
G01*
X47229913Y-147510000D02*
G75*
G03*
X46734996Y-147714996I-13J-699900D01*
G01*
X40136378Y-61133621D02*
G75*
G02*
X39445000Y-61419987I-691378J691421D01*
G01*
X255555000Y-77475000D02*
G75*
G02*
X254963517Y-77720007I-591500J591500D01*
G01*
X65460000Y-148485000D02*
G75*
G02*
X65124135Y-149295886I-1146800J0D01*
G01*
X236680000Y-147780000D02*
G75*
G03*
X236410016Y-148431837I651800J-651800D01*
G01*
X42320000Y-56840000D02*
G75*
G02*
X41837157Y-57039953I-482800J482900D01*
G01*
X66313553Y-147510000D02*
G75*
G03*
X65709984Y-147759984I-53J-853500D01*
G01*
X65089999Y-149329999D02*
G75*
G02*
X64196740Y-149700016I-893299J893299D01*
G01*
X154310000Y-149220796D02*
G75*
G03*
X154464999Y-149595001I529200J-4D01*
G01*
X179095000Y-149495000D02*
G75*
G02*
X178479375Y-149749990I-615600J615600D01*
G01*
X249130000Y-149068370D02*
G75*
G03*
X249314991Y-149515009I631600J-30D01*
G01*
X84670000Y-148644522D02*
G75*
G02*
X84354993Y-149404993I-1075500J22D01*
G01*
X177299345Y-44450655D02*
G75*
G03*
X177113649Y-44898865I448155J-448245D01*
G01*
X141730000Y-147830000D02*
G75*
G03*
X141410020Y-148602548I772500J-772500D01*
G01*
X160480000Y-149560000D02*
G75*
G02*
X160021299Y-149750000I-458700J458700D01*
G01*
X256430000Y-42802304D02*
G75*
G03*
X256690001Y-43429999I887700J4D01*
G01*
X107058406Y-146180000D02*
G75*
G03*
X106309998Y-146489998I-6J-1058400D01*
G01*
X173145000Y-146475000D02*
G75*
G03*
X172312096Y-146130002I-832900J-832900D01*
G01*
X250775000Y-50365000D02*
G75*
G02*
X250979994Y-50859913I-494900J-494900D01*
G01*
X153725000Y-146615000D02*
G75*
G03*
X152312685Y-146030006I-1412300J-1412300D01*
G01*
X231010000Y-149450000D02*
G75*
G03*
X231589411Y-149689995I579400J579400D01*
G01*
X231440000Y-40442078D02*
G75*
G03*
X231539994Y-40683506I341400J-22D01*
G01*
X59080000Y-148880588D02*
G75*
G03*
X59319997Y-149460003I819400J-12D01*
G01*
X46530000Y-148500883D02*
G75*
G02*
X46170005Y-149370005I-1229100J-17D01*
G01*
X85369913Y-147510000D02*
G75*
G03*
X84874996Y-147714996I-13J-699900D01*
G01*
X172890000Y-130210000D02*
G75*
G02*
X173115001Y-130753198I-543200J-543200D01*
G01*
X248840000Y-146200000D02*
G75*
G02*
X249129991Y-146900121I-700100J-700100D01*
G01*
X211540000Y-149115441D02*
G75*
G03*
X211720012Y-149549988I614600J41D01*
G01*
X135625000Y-149355000D02*
G75*
G03*
X136409619Y-149679992I784600J784600D01*
G01*
X141410000Y-148809375D02*
G75*
G02*
X141155007Y-149425007I-870600J-25D01*
G01*
X65710000Y-147760000D02*
G75*
G03*
X65460022Y-148363553I603500J-603500D01*
G01*
X260707659Y-53100000D02*
X236246482Y-53100000D01*
X235410000Y-52263517D02*
X235410000Y-47939913D01*
X261510000Y-53902340D02*
X261510000Y-54600000D01*
X236109913Y-47240000D02*
X236910000Y-47240000D01*
X236109913Y-47240000D02*
G75*
G03*
X235614996Y-47444996I-13J-699900D01*
G01*
X235655000Y-52855000D02*
G75*
G03*
X236246482Y-53100007I591500J591500D01*
G01*
X261275000Y-53335000D02*
G75*
G03*
X260707659Y-53100017I-567300J-567300D01*
G01*
X261275000Y-53335000D02*
G75*
G02*
X261509983Y-53902340I-567300J-567300D01*
G01*
X235615000Y-47445000D02*
G75*
G03*
X235410006Y-47939913I494900J-494900D01*
G01*
X235410000Y-52263517D02*
G75*
G03*
X235655005Y-52854995I836500J17D01*
G01*
D51*
X40160500Y-91415000D02*
X40160500Y-89255000D01*
X27410000Y-54136000D02*
X27410000Y-48007686D01*
X27150000Y-54260000D02*
X29310000Y-54260000D01*
X40160500Y-70230000D02*
X40160500Y-72390000D01*
X43900000Y-52732132D02*
X43900000Y-56560000D01*
X40400000Y-55940000D02*
X40400000Y-57040000D01*
X40400000Y-52800416D02*
X40400000Y-56260000D01*
X40980416Y-52220000D02*
X43387867Y-52220000D01*
X40570000Y-52390000D02*
G75*
G03*
X40400007Y-52800416I410400J-410400D01*
G01*
X43750000Y-52370000D02*
G75*
G02*
X43899987Y-52732132I-362100J-362100D01*
G01*
X43750000Y-52370000D02*
G75*
G03*
X43387867Y-52220013I-362100J-362100D01*
G01*
X40980416Y-52220000D02*
G75*
G03*
X40569995Y-52389995I-16J-580400D01*
G01*
X42858664Y-59740000D02*
X41350000Y-59740000D01*
X43900000Y-58698664D02*
X43900000Y-58010000D01*
X41350000Y-61800796D02*
X41350000Y-59740000D01*
X39850624Y-62330000D02*
X40820796Y-62330000D01*
X29900000Y-73662053D02*
X29900000Y-72910000D01*
X38980000Y-73448664D02*
X38980000Y-63200624D01*
X30727946Y-74490000D02*
X37938664Y-74490000D01*
X38980000Y-73448664D02*
G75*
G02*
X38675010Y-74185010I-1041300J-36D01*
G01*
X39850624Y-62330000D02*
G75*
G03*
X39234993Y-62584993I-24J-870600D01*
G01*
X43900000Y-58698664D02*
G75*
G02*
X43595010Y-59435010I-1041300J-36D01*
G01*
X30142500Y-74247500D02*
G75*
G03*
X30727946Y-74489981I585400J585400D01*
G01*
X38675000Y-74185000D02*
G75*
G02*
X37938664Y-74489985I-736300J736300D01*
G01*
X41195000Y-62175000D02*
G75*
G02*
X40820796Y-62329999I-374200J374200D01*
G01*
X43595000Y-59435000D02*
G75*
G02*
X42858664Y-59739985I-736300J736300D01*
G01*
X29900000Y-73662053D02*
G75*
G03*
X30142486Y-74247514I827900J-47D01*
G01*
X41350000Y-61800796D02*
G75*
G02*
X41195001Y-62175001I-529200J-4D01*
G01*
X39235000Y-62585000D02*
G75*
G03*
X38980010Y-63200624I615600J-615600D01*
G01*
X31851837Y-62000000D02*
X34640000Y-62000000D01*
X259090208Y-38219791D02*
X259135000Y-38175000D01*
X266040000Y-60839167D02*
X266040000Y-38931837D01*
X258970000Y-38510000D02*
X258970000Y-38680000D01*
X264879167Y-62000000D02*
X262940000Y-62000000D01*
X30930000Y-43838413D02*
X30930000Y-61078162D01*
X29533586Y-42442000D02*
X27410000Y-42442000D01*
X259533345Y-38010000D02*
X265118162Y-38010000D01*
X30930000Y-61078162D02*
G75*
G03*
X31199989Y-61730011I921800J-38D01*
G01*
X259090208Y-38219791D02*
G75*
G03*
X258969995Y-38510000I290192J-290209D01*
G01*
X265770000Y-38280000D02*
G75*
G02*
X266039984Y-38931837I-651800J-651800D01*
G01*
X259533345Y-38010000D02*
G75*
G03*
X259134987Y-38174987I-45J-563300D01*
G01*
X31200000Y-61730000D02*
G75*
G03*
X31851837Y-61999984I651800J651800D01*
G01*
X30521000Y-42851000D02*
G75*
G03*
X29533586Y-42442006I-987400J-987400D01*
G01*
X265770000Y-38280000D02*
G75*
G03*
X265118162Y-38010016I-651800J-651800D01*
G01*
X265700000Y-61660000D02*
G75*
G02*
X264879167Y-61999986I-820800J820800D01*
G01*
X30521000Y-42851000D02*
G75*
G02*
X30929994Y-43838413I-987400J-987400D01*
G01*
X266040000Y-60839167D02*
G75*
G02*
X265700010Y-61660010I-1160800J-33D01*
G01*
D52*
X257395209Y-132230000D02*
X260181906Y-132230000D01*
X256901083Y-90435000D02*
X258199999Y-90435000D01*
X256909619Y-95580000D02*
X260625000Y-95580000D01*
X263367304Y-139525000D02*
X262041378Y-139525000D01*
X260735441Y-135740000D02*
X255233449Y-135740000D01*
X172268266Y-72910000D02*
X167425000Y-72910000D01*
X47280875Y-128485000D02*
X48490000Y-128485000D01*
X261350000Y-138833621D02*
X261350000Y-136354558D01*
X38690000Y-59470000D02*
X38786758Y-59566758D01*
X115932344Y-73596844D02*
X115932344Y-76420000D01*
X177790000Y-133334522D02*
X177790000Y-129586083D01*
X122820000Y-133812512D02*
X122820000Y-129364159D01*
X33565944Y-114620000D02*
X30456000Y-114620000D01*
X253364167Y-134410000D02*
X251645000Y-134410000D01*
X45633517Y-134420000D02*
X42805000Y-134420000D01*
X28466000Y-133596000D02*
X29090000Y-133596000D01*
X173045000Y-73686733D02*
X173045000Y-76420000D01*
X249545000Y-73584307D02*
X249545000Y-76420000D01*
X178891083Y-128485000D02*
X181665000Y-128485000D01*
X264024540Y-149010000D02*
X262549999Y-149010000D01*
X256530000Y-131364790D02*
X256530000Y-128766672D01*
X46470000Y-133583517D02*
X46470000Y-129295875D01*
X260805000Y-132853093D02*
X260805000Y-133190000D01*
X115245499Y-72910000D02*
X110350000Y-72910000D01*
X39205000Y-59740000D02*
X39450000Y-59740000D01*
X38420000Y-58818162D02*
X38420000Y-53805000D01*
X40305000Y-76420000D02*
X31235000Y-76420000D01*
X34300000Y-113885944D02*
X34300000Y-110960000D01*
X256811672Y-128485000D02*
X258199999Y-128485000D01*
X264255000Y-148779540D02*
X264255000Y-140412695D01*
X122222512Y-134410000D02*
X118385000Y-134410000D01*
X176714522Y-134410000D02*
X175545000Y-134410000D01*
X254525000Y-134210832D02*
X254525000Y-135031550D01*
X123699159Y-128485000D02*
X125075000Y-128485000D01*
X248870692Y-72910000D02*
X243524999Y-72910000D01*
X28885017Y-128485000D02*
X29900000Y-128485000D01*
X28040000Y-129330017D02*
X28040000Y-133170000D01*
X255800000Y-91536083D02*
X255800000Y-94470380D01*
X264187500Y-148942500D02*
G75*
G02*
X264024540Y-149010017I-163000J163000D01*
G01*
X123699159Y-128485000D02*
G75*
G03*
X123077512Y-128742512I41J-879200D01*
G01*
X47280875Y-128485000D02*
G75*
G03*
X46707507Y-128722507I25J-810900D01*
G01*
X261170000Y-135920000D02*
G75*
G03*
X260735441Y-135739983I-434600J-434600D01*
G01*
X256783414Y-131976586D02*
G75*
G03*
X257395209Y-132229996I611786J611786D01*
G01*
X256122500Y-90757500D02*
G75*
G03*
X255799993Y-91536083I778600J-778600D01*
G01*
X256530000Y-131364790D02*
G75*
G03*
X256783411Y-131976589I865200J-10D01*
G01*
X28885017Y-128485000D02*
G75*
G03*
X28287495Y-128732495I-17J-845000D01*
G01*
X46225000Y-134175000D02*
G75*
G02*
X45633517Y-134420007I-591500J591500D01*
G01*
X260622500Y-132412500D02*
G75*
G03*
X260181906Y-132229998I-440600J-440600D01*
G01*
X34085000Y-114405000D02*
G75*
G02*
X33565944Y-114620018I-519100J519100D01*
G01*
X115731172Y-73111172D02*
G75*
G03*
X115245499Y-72909987I-485672J-485628D01*
G01*
X256901083Y-90435000D02*
G75*
G03*
X256122505Y-90757505I17J-1101100D01*
G01*
X261552500Y-139322500D02*
G75*
G03*
X262041378Y-139525009I488900J488900D01*
G01*
X254185000Y-134070000D02*
G75*
G02*
X253364167Y-134409986I-820800J820800D01*
G01*
X263995000Y-139785000D02*
G75*
G03*
X263367304Y-139524998I-627700J-627700D01*
G01*
X256612500Y-128567500D02*
G75*
G03*
X256529989Y-128766672I199200J-199200D01*
G01*
X178112500Y-128807500D02*
G75*
G03*
X177789993Y-129586083I778600J-778600D01*
G01*
X254732500Y-135532500D02*
G75*
G03*
X255233449Y-135740021I501000J501000D01*
G01*
X122645000Y-134235000D02*
G75*
G02*
X122222512Y-134410005I-422500J422500D01*
G01*
X255800000Y-94470380D02*
G75*
G03*
X256124994Y-95255006I1109600J-20D01*
G01*
X249347500Y-73107500D02*
G75*
G02*
X249544997Y-73584307I-476800J-476800D01*
G01*
X178891083Y-128485000D02*
G75*
G03*
X178112505Y-128807505I17J-1101100D01*
G01*
X115731172Y-73111172D02*
G75*
G02*
X115932313Y-73596844I-485672J-485628D01*
G01*
X264255000Y-148779540D02*
G75*
G02*
X264187488Y-148942488I-230500J40D01*
G01*
X177475000Y-134095000D02*
G75*
G02*
X176714522Y-134410009I-760500J760500D01*
G01*
X28287500Y-128732500D02*
G75*
G03*
X28040007Y-129330017I597500J-597500D01*
G01*
X263995000Y-139785000D02*
G75*
G02*
X264255002Y-140412695I-627700J-627700D01*
G01*
X254525000Y-135031550D02*
G75*
G03*
X254732486Y-135532514I708400J-50D01*
G01*
X172817500Y-73137500D02*
G75*
G02*
X173044986Y-73686733I-549200J-549200D01*
G01*
X172817500Y-73137500D02*
G75*
G03*
X172268266Y-72910014I-549200J-549200D01*
G01*
X46470000Y-133583517D02*
G75*
G02*
X46224995Y-134174995I-836500J17D01*
G01*
X123077500Y-128742500D02*
G75*
G03*
X122819983Y-129364159I621700J-621700D01*
G01*
X254525000Y-134210832D02*
G75*
G03*
X254184944Y-134069944I-199200J32D01*
G01*
X46707500Y-128722500D02*
G75*
G03*
X46469990Y-129295875I573400J-573400D01*
G01*
X256811672Y-128485000D02*
G75*
G03*
X256612508Y-128567508I28J-281700D01*
G01*
X261170000Y-135920000D02*
G75*
G02*
X261350017Y-136354558I-434600J-434600D01*
G01*
X38420000Y-58818162D02*
G75*
G03*
X38689989Y-59470011I921800J-38D01*
G01*
X177790000Y-133334522D02*
G75*
G02*
X177474993Y-134094993I-1075500J22D01*
G01*
X256125000Y-95255000D02*
G75*
G03*
X256909619Y-95579992I784600J784600D01*
G01*
X261350000Y-138833621D02*
G75*
G03*
X261552506Y-139322494I691400J21D01*
G01*
X34300000Y-113885944D02*
G75*
G02*
X34084987Y-114404987I-734100J44D01*
G01*
X249347500Y-73107500D02*
G75*
G03*
X248870692Y-72910003I-476800J-476800D01*
G01*
X122820000Y-133812512D02*
G75*
G02*
X122644996Y-134234996I-597500J12D01*
G01*
X38786758Y-59566758D02*
G75*
G03*
X39205000Y-59739995I418242J418258D01*
G01*
X260622500Y-132412500D02*
G75*
G02*
X260805002Y-132853093I-440600J-440600D01*
G01*
D51*
X58260000Y-47890000D02*
X58260000Y-45630000D01*
X189905429Y-39728500D02*
X215850073Y-39728500D01*
X188730086Y-38200000D02*
X60243467Y-38200000D01*
X246270000Y-38393847D02*
X246270000Y-39360000D01*
X58690000Y-39753467D02*
X58690000Y-42390000D01*
X189430000Y-39253070D02*
X189430000Y-38899913D01*
X217058388Y-37950000D02*
X245826152Y-37950000D01*
X216445000Y-38563387D02*
X216445000Y-39133573D01*
X189225000Y-38405000D02*
G75*
G03*
X188730086Y-38200006I-494900J-494900D01*
G01*
X216270750Y-39554250D02*
G75*
G02*
X215850073Y-39728489I-420650J420650D01*
G01*
X189225000Y-38405000D02*
G75*
G02*
X189429994Y-38899913I-494900J-494900D01*
G01*
X216445000Y-39133573D02*
G75*
G02*
X216270758Y-39554258I-594900J-27D01*
G01*
X216624657Y-38129657D02*
G75*
G03*
X216444995Y-38563387I433743J-433743D01*
G01*
X59145000Y-38655000D02*
G75*
G03*
X58689986Y-39753467I1098500J-1098500D01*
G01*
X246140000Y-38080000D02*
G75*
G03*
X245826152Y-37950020I-313800J-313800D01*
G01*
X189430000Y-39253070D02*
G75*
G03*
X189569241Y-39589259I475400J-30D01*
G01*
X246140000Y-38080000D02*
G75*
G02*
X246269980Y-38393847I-313800J-313800D01*
G01*
X60243467Y-38200000D02*
G75*
G03*
X59145010Y-38655010I33J-1553500D01*
G01*
X189569250Y-39589250D02*
G75*
G03*
X189905429Y-39728488I336150J336150D01*
G01*
X217058388Y-37950000D02*
G75*
G03*
X216624661Y-38129661I12J-613400D01*
G01*
X46136966Y-44016966D02*
X45920000Y-43800000D01*
X59510086Y-44150000D02*
X46476568Y-44150000D01*
X60210000Y-43450086D02*
X60210000Y-41355806D01*
X216845000Y-38990165D02*
X216845000Y-39599834D01*
X243730000Y-38657279D02*
X243730000Y-39360000D01*
X45650000Y-43148162D02*
X45650000Y-42390000D01*
X46265000Y-44070000D02*
X46283431Y-44070000D01*
X189030000Y-39316984D02*
X189030000Y-39505944D01*
X217485165Y-38350000D02*
X243422720Y-38350000D01*
X62965806Y-38600000D02*
X188313015Y-38600000D01*
X49710000Y-47890000D02*
X49710000Y-45630000D01*
X216204834Y-40240000D02*
X189764055Y-40240000D01*
X46380000Y-44110000D02*
G75*
G03*
X46283431Y-44069987I-96600J-96600D01*
G01*
X62965806Y-38600000D02*
G75*
G03*
X61017155Y-39407155I-6J-2755800D01*
G01*
X243640000Y-38440000D02*
G75*
G03*
X243422720Y-38349991I-217300J-217300D01*
G01*
X189030000Y-39505944D02*
G75*
G03*
X189245034Y-40024966I734000J44D01*
G01*
X216845000Y-39599834D02*
G75*
G02*
X216657490Y-40052490I-640200J34D01*
G01*
X61017157Y-39407157D02*
G75*
G03*
X60210003Y-41355806I1948643J-1948643D01*
G01*
X188820000Y-38810000D02*
G75*
G03*
X188313015Y-38599994I-507000J-507000D01*
G01*
X217485165Y-38350000D02*
G75*
G03*
X217032510Y-38537510I35J-640200D01*
G01*
X243640000Y-38440000D02*
G75*
G02*
X243730009Y-38657279I-217300J-217300D01*
G01*
X188820000Y-38810000D02*
G75*
G02*
X189030006Y-39316984I-507000J-507000D01*
G01*
X216657500Y-40052500D02*
G75*
G02*
X216204834Y-40240014I-452700J452700D01*
G01*
X60210000Y-43450086D02*
G75*
G02*
X60005004Y-43945004I-699900J-14D01*
G01*
X60005000Y-43945000D02*
G75*
G02*
X59510086Y-44149994I-494900J494900D01*
G01*
X217032500Y-38537500D02*
G75*
G03*
X216844986Y-38990165I452700J-452700D01*
G01*
X46380000Y-44110000D02*
G75*
G03*
X46476568Y-44150013I96600J96600D01*
G01*
X46136966Y-44016966D02*
G75*
G03*
X46265000Y-44069990I128034J128066D01*
G01*
X189245000Y-40025000D02*
G75*
G03*
X189764055Y-40240018I519100J519100D01*
G01*
X45650000Y-43148162D02*
G75*
G03*
X45919989Y-43800011I921800J-38D01*
G01*
X261378700Y-139950000D02*
X262890588Y-139950000D01*
X251201880Y-136165000D02*
X260175190Y-136165000D01*
X250630000Y-133501170D02*
X250630000Y-135593119D01*
X263710000Y-140769411D02*
X263710000Y-147420000D01*
X251031170Y-133100000D02*
X252430000Y-133100000D01*
X260730000Y-139301299D02*
X260730000Y-136719809D01*
X250797500Y-135997500D02*
G75*
G03*
X251201880Y-136165008I404400J404400D01*
G01*
X251031170Y-133100000D02*
G75*
G03*
X250747509Y-133217509I30J-401200D01*
G01*
X250747500Y-133217500D02*
G75*
G03*
X250629988Y-133501170I283700J-283700D01*
G01*
X263470000Y-140190000D02*
G75*
G03*
X262890588Y-139950005I-579400J-579400D01*
G01*
X250630000Y-135593119D02*
G75*
G03*
X250797506Y-135997494I571900J19D01*
G01*
X260567500Y-136327500D02*
G75*
G03*
X260175190Y-136165004I-392300J-392300D01*
G01*
X260567500Y-136327500D02*
G75*
G02*
X260729996Y-136719809I-392300J-392300D01*
G01*
X260730000Y-139301299D02*
G75*
G03*
X260920000Y-139760000I648700J-1D01*
G01*
X263470000Y-140190000D02*
G75*
G02*
X263709995Y-140769411I-579400J-579400D01*
G01*
X260920000Y-139760000D02*
G75*
G03*
X261378700Y-139950000I458700J458700D01*
G01*
X38610000Y-132499051D02*
X38610000Y-134095649D01*
X38770000Y-105788873D02*
X38770000Y-78300416D01*
X39521126Y-106540000D02*
X40639583Y-106540000D01*
X38940000Y-77890000D02*
X39110000Y-77720000D01*
X39060500Y-112155420D02*
X39060500Y-131411448D01*
X38934350Y-134420000D02*
X40090000Y-134420000D01*
X39605920Y-111610000D02*
X40812855Y-111610000D01*
X41220000Y-107120416D02*
X41220000Y-111202855D01*
X41100750Y-111490750D02*
G75*
G02*
X40812855Y-111610023I-287950J287950D01*
G01*
X38610000Y-134095649D02*
G75*
G03*
X38704985Y-134325015I324300J-51D01*
G01*
X39060500Y-131411448D02*
G75*
G02*
X38835236Y-131955236I-769100J48D01*
G01*
X38835250Y-131955250D02*
G75*
G03*
X38610021Y-132499051I543750J-543750D01*
G01*
X38990000Y-106320000D02*
G75*
G03*
X39521126Y-106539989I531100J531100D01*
G01*
X39605920Y-111610000D02*
G75*
G03*
X39220244Y-111769744I-20J-545400D01*
G01*
X41220000Y-111202855D02*
G75*
G02*
X41100734Y-111490734I-407200J55D01*
G01*
X39220250Y-111769750D02*
G75*
G03*
X39060509Y-112155420I385650J-385650D01*
G01*
X38705000Y-134325000D02*
G75*
G03*
X38934350Y-134420050I229400J229300D01*
G01*
X38770000Y-105788873D02*
G75*
G03*
X38989992Y-106320008I751100J-27D01*
G01*
X38940000Y-77890000D02*
G75*
G03*
X38770007Y-78300416I410400J-410400D01*
G01*
X41050000Y-106710000D02*
G75*
G03*
X40639583Y-106540007I-410400J-410400D01*
G01*
X41050000Y-106710000D02*
G75*
G02*
X41219993Y-107120416I-410400J-410400D01*
G01*
D52*
X230690000Y-42340000D02*
X228430000Y-42340000D01*
X243083777Y-51700000D02*
X238827989Y-51700000D01*
X232613847Y-44440000D02*
X233570000Y-44440000D01*
X238350000Y-46735269D02*
X238350000Y-51222010D01*
X234355269Y-45950000D02*
X237564730Y-45950000D01*
X232170000Y-42805060D02*
X232170000Y-43996152D01*
X233570000Y-44440000D02*
X233570000Y-45164730D01*
X231674939Y-42310000D02*
X231050000Y-42310000D01*
X243557500Y-51226277D02*
X243557500Y-50610000D01*
X243557500Y-51226277D02*
G75*
G02*
X243418756Y-51561256I-473700J-23D01*
G01*
X232300000Y-44310000D02*
G75*
G03*
X232613847Y-44439980I313800J313800D01*
G01*
X238120000Y-46180000D02*
G75*
G03*
X237564730Y-45949987I-555300J-555300D01*
G01*
X238120000Y-46180000D02*
G75*
G02*
X238350013Y-46735269I-555300J-555300D01*
G01*
X243418750Y-51561250D02*
G75*
G02*
X243083777Y-51699991I-334950J334950D01*
G01*
X238490000Y-51560000D02*
G75*
G03*
X238827989Y-51700004I338000J338000D01*
G01*
X232170000Y-43996152D02*
G75*
G03*
X232299986Y-44310014I443800J-48D01*
G01*
X233570000Y-45164730D02*
G75*
G03*
X233800009Y-45719991I785300J30D01*
G01*
X232025000Y-42455000D02*
G75*
G02*
X232170016Y-42805060I-350100J-350100D01*
G01*
X238350000Y-51222010D02*
G75*
G03*
X238490003Y-51559997I478000J10D01*
G01*
X232025000Y-42455000D02*
G75*
G03*
X231674939Y-42309984I-350100J-350100D01*
G01*
X233800000Y-45720000D02*
G75*
G03*
X234355269Y-45950013I555300J555300D01*
G01*
X234585147Y-41900000D02*
X233570000Y-41900000D01*
X239214454Y-44494454D02*
X239228750Y-44508750D01*
X236210000Y-44300000D02*
X235182634Y-44300000D01*
X234790000Y-42104852D02*
X234790000Y-43907365D01*
X239437500Y-45012717D02*
X239437500Y-50610000D01*
X236210000Y-44300000D02*
X238195000Y-44300000D01*
X238745000Y-44300000D02*
X238195000Y-44300000D01*
X234790000Y-43907365D02*
G75*
G03*
X234904990Y-44185010I392600J-35D01*
G01*
X234730000Y-41960000D02*
G75*
G03*
X234585147Y-41899980I-144900J-144900D01*
G01*
X239214454Y-44494454D02*
G75*
G03*
X238745000Y-44299997I-469454J-469446D01*
G01*
X234730000Y-41960000D02*
G75*
G02*
X234790020Y-42104852I-144900J-144900D01*
G01*
X239228750Y-44508750D02*
G75*
G02*
X239437493Y-45012717I-503950J-503950D01*
G01*
X234905000Y-44185000D02*
G75*
G03*
X235182634Y-44299986I277600J277600D01*
G01*
D51*
X247880000Y-51800000D02*
X245620000Y-51800000D01*
M02*
