M48
; DRILL file {KiCad 9.0.2} date 2025-07-13T16:57:11+0530
; FORMAT={-:-/ absolute / metric / decimal}
; #@! TF.CreationDate,2025-07-13T16:57:11+05:30
; #@! TF.GenerationSoftware,Kicad,Pcbnew,9.0.2
; #@! TF.FileFunction,NonPlated,1,2,NPTH
FMAT,2
METRIC
; #@! TA.AperFunction,NonPlated,NPTH,ComponentDrill
T1C1.700
; #@! TA.AperFunction,NonPlated,NPTH,ComponentDrill
T2C3.000
; #@! TA.AperFunction,NonPlated,NPTH,ComponentDrill
T3C4.000
; #@! TA.AperFunction,NonPlated,NPTH,ComponentDrill
T4C4.875
%
G90
G05
T1
X27.02Y-67.08
X27.02Y-86.105
X27.02Y-105.13
X27.02Y-124.155
X27.02Y-143.18
X37.18Y-67.08
X37.18Y-86.105
X37.18Y-105.13
X37.18Y-124.155
X37.18Y-143.18
X46.045Y-67.08
X46.045Y-86.105
X46.045Y-105.13
X46.045Y-124.155
X46.045Y-143.18
X56.205Y-67.08
X56.205Y-86.105
X56.205Y-105.13
X56.205Y-124.155
X56.205Y-143.18
X65.07Y-67.08
X65.07Y-86.105
X65.07Y-105.13
X65.07Y-124.155
X65.07Y-143.18
X75.23Y-67.08
X75.23Y-86.105
X75.23Y-105.13
X75.23Y-124.155
X75.23Y-143.18
X84.095Y-67.08
X84.095Y-86.105
X84.095Y-105.13
X84.095Y-124.155
X84.095Y-143.18
X94.255Y-67.08
X94.255Y-86.105
X94.255Y-105.13
X94.255Y-124.155
X94.255Y-143.18
X103.12Y-67.08
X103.12Y-86.105
X103.12Y-105.13
X103.12Y-124.155
X103.12Y-143.18
X113.28Y-67.08
X113.28Y-86.105
X113.28Y-105.13
X113.28Y-124.155
X113.28Y-143.18
X122.145Y-67.08
X122.145Y-86.105
X122.145Y-105.13
X122.145Y-124.155
X122.145Y-143.18
X132.305Y-67.08
X132.305Y-86.105
X132.305Y-105.13
X132.305Y-124.155
X132.305Y-143.18
X141.17Y-67.08
X141.17Y-86.105
X141.17Y-105.13
X141.17Y-124.155
X141.17Y-143.18
X151.33Y-67.08
X151.33Y-86.105
X151.33Y-105.13
X151.33Y-124.155
X151.33Y-143.18
X160.195Y-67.08
X160.195Y-86.105
X160.195Y-105.13
X160.195Y-124.155
X160.195Y-143.18
X170.355Y-67.08
X170.355Y-86.105
X170.355Y-105.13
X170.355Y-124.155
X170.355Y-143.18
X179.22Y-67.08
X179.22Y-86.105
X179.22Y-105.13
X179.22Y-124.155
X179.22Y-143.18
X189.38Y-67.08
X189.38Y-86.105
X189.38Y-105.13
X189.38Y-124.155
X189.38Y-143.18
X198.245Y-67.08
X198.245Y-86.105
X198.245Y-105.13
X198.245Y-124.155
X198.245Y-143.18
X208.405Y-67.08
X208.405Y-86.105
X208.405Y-105.13
X208.405Y-124.155
X208.405Y-143.18
X217.27Y-67.08
X217.27Y-86.105
X217.27Y-105.13
X217.27Y-124.155
X217.27Y-143.18
X227.43Y-67.08
X227.43Y-86.105
X227.43Y-105.13
X227.43Y-124.155
X227.43Y-143.18
X236.295Y-67.08
X236.295Y-86.105
X236.295Y-105.13
X236.295Y-124.155
X236.295Y-143.18
X246.455Y-67.08
X246.455Y-86.105
X246.455Y-105.13
X246.455Y-124.155
X246.455Y-143.18
X255.32Y-67.08
X255.32Y-86.105
X255.32Y-105.13
X255.32Y-124.155
X255.32Y-143.18
X265.48Y-67.08
X265.48Y-86.105
X265.48Y-105.13
X265.48Y-124.155
X265.48Y-143.18
T2
X147.92Y-54.74
X214.32Y-54.74
T3
X32.1Y-67.08
X32.1Y-86.105
X32.1Y-105.13
X32.1Y-124.155
X32.1Y-143.18
X51.125Y-67.08
X51.125Y-86.105
X51.125Y-105.13
X51.125Y-124.155
X51.125Y-143.18
X70.15Y-67.08
X70.15Y-86.105
X70.15Y-105.13
X70.15Y-124.155
X70.15Y-143.18
X89.175Y-67.08
X89.175Y-86.105
X89.175Y-105.13
X89.175Y-124.155
X89.175Y-143.18
X108.2Y-67.08
X108.2Y-86.105
X108.2Y-105.13
X108.2Y-124.155
X108.2Y-143.18
X127.225Y-67.08
X127.225Y-86.105
X127.225Y-105.13
X127.225Y-124.155
X127.225Y-143.18
X146.25Y-67.08
X146.25Y-86.105
X146.25Y-105.13
X146.25Y-124.155
X146.25Y-143.18
X165.275Y-67.08
X165.275Y-86.105
X165.275Y-105.13
X165.275Y-124.155
X165.275Y-143.18
X184.3Y-67.08
X184.3Y-86.105
X184.3Y-105.13
X184.3Y-124.155
X184.3Y-143.18
X203.325Y-67.08
X203.325Y-86.105
X203.325Y-105.13
X203.325Y-124.155
X203.325Y-143.18
X222.35Y-67.08
X222.35Y-86.105
X222.35Y-105.13
X222.35Y-124.155
X222.35Y-143.18
X241.375Y-67.08
X241.375Y-86.105
X241.375Y-105.13
X241.375Y-124.155
X241.375Y-143.18
X260.4Y-67.08
X260.4Y-86.105
X260.4Y-105.13
X260.4Y-124.155
X260.4Y-143.18
T4
X22.24Y-33.89
X22.24Y-41.89
X22.24Y-49.89
X22.24Y-57.89
X22.24Y-65.89
X22.24Y-73.89
X22.24Y-81.89
X22.24Y-89.89
X22.24Y-97.89
X22.24Y-105.89
X22.24Y-113.89
X22.24Y-121.89
X22.24Y-129.89
X22.24Y-137.89
X22.24Y-145.89
X22.24Y-153.89
X30.24Y-33.89
X30.24Y-153.89
X38.24Y-33.89
X38.24Y-153.89
X46.24Y-33.89
X46.24Y-153.89
X54.24Y-33.89
X54.24Y-153.89
X62.24Y-33.89
X62.24Y-153.89
X70.24Y-33.89
X70.24Y-153.89
X78.24Y-33.89
X78.24Y-153.89
X86.24Y-33.89
X86.24Y-153.89
X94.24Y-33.89
X94.24Y-153.89
X102.24Y-33.89
X102.24Y-153.89
X110.24Y-33.89
X110.24Y-153.89
X118.24Y-33.89
X118.24Y-153.89
X126.24Y-33.89
X126.24Y-153.89
X134.24Y-33.89
X134.24Y-153.89
X142.24Y-33.89
X142.24Y-153.89
X150.24Y-33.89
X150.24Y-153.89
X158.24Y-33.89
X158.24Y-153.89
X166.24Y-33.89
X166.24Y-153.89
X174.24Y-33.89
X174.24Y-153.89
X182.24Y-33.89
X182.24Y-153.89
X190.24Y-33.89
X190.24Y-153.89
X198.24Y-33.89
X198.24Y-153.89
X206.24Y-33.89
X206.24Y-153.89
X214.24Y-33.89
X214.24Y-153.89
X222.24Y-33.89
X222.24Y-153.89
X230.24Y-33.89
X230.24Y-153.89
X238.24Y-33.89
X238.24Y-153.89
X246.24Y-33.89
X246.24Y-153.89
X254.24Y-33.89
X254.24Y-153.89
X262.24Y-33.89
X262.24Y-153.89
X270.24Y-33.89
X270.24Y-41.89
X270.24Y-49.89
X270.24Y-57.89
X270.24Y-65.89
X270.24Y-73.89
X270.24Y-81.89
X270.24Y-89.89
X270.24Y-97.89
X270.24Y-105.89
X270.24Y-113.89
X270.24Y-121.89
X270.24Y-129.89
X270.24Y-137.89
X270.24Y-145.89
X270.24Y-153.89
M30
