G04 #@! TF.GenerationSoftware,KiCad,Pcbnew,9.0.2*
G04 #@! TF.CreationDate,2025-07-13T16:57:08+05:30*
G04 #@! TF.ProjectId,pcb,7063622e-6b69-4636-9164-5f7063625858,rev?*
G04 #@! TF.SameCoordinates,Original*
G04 #@! TF.FileFunction,Soldermask,Bot*
G04 #@! TF.FilePolarity,Negative*
%FSLAX46Y46*%
G04 Gerber Fmt 4.6, Leading zero omitted, Abs format (unit mm)*
G04 Created by KiCad (PCBNEW 9.0.2) date 2025-07-13 16:57:08*
%MOMM*%
%LPD*%
G01*
G04 APERTURE LIST*
G04 Aperture macros list*
%AMRoundRect*
0 Rectangle with rounded corners*
0 $1 Rounding radius*
0 $2 $3 $4 $5 $6 $7 $8 $9 X,Y pos of 4 corners*
0 Add a 4 corners polygon primitive as box body*
4,1,4,$2,$3,$4,$5,$6,$7,$8,$9,$2,$3,0*
0 Add four circle primitives for the rounded corners*
1,1,$1+$1,$2,$3*
1,1,$1+$1,$4,$5*
1,1,$1+$1,$6,$7*
1,1,$1+$1,$8,$9*
0 Add four rect primitives between the rounded corners*
20,1,$1+$1,$2,$3,$4,$5,0*
20,1,$1+$1,$4,$5,$6,$7,0*
20,1,$1+$1,$6,$7,$8,$9,0*
20,1,$1+$1,$8,$9,$2,$3,0*%
%AMOutline5P*
0 Free polygon, 5 corners , with rotation*
0 The origin of the aperture is its center*
0 number of corners: always 5*
0 $1 to $10 corner X, Y*
0 $11 Rotation angle, in degrees counterclockwise*
0 create outline with 5 corners*
4,1,5,$1,$2,$3,$4,$5,$6,$7,$8,$9,$10,$1,$2,$11*%
%AMOutline6P*
0 Free polygon, 6 corners , with rotation*
0 The origin of the aperture is its center*
0 number of corners: always 6*
0 $1 to $12 corner X, Y*
0 $13 Rotation angle, in degrees counterclockwise*
0 create outline with 6 corners*
4,1,6,$1,$2,$3,$4,$5,$6,$7,$8,$9,$10,$11,$12,$1,$2,$13*%
%AMOutline7P*
0 Free polygon, 7 corners , with rotation*
0 The origin of the aperture is its center*
0 number of corners: always 7*
0 $1 to $14 corner X, Y*
0 $15 Rotation angle, in degrees counterclockwise*
0 create outline with 7 corners*
4,1,7,$1,$2,$3,$4,$5,$6,$7,$8,$9,$10,$11,$12,$13,$14,$1,$2,$15*%
%AMOutline8P*
0 Free polygon, 8 corners , with rotation*
0 The origin of the aperture is its center*
0 number of corners: always 8*
0 $1 to $16 corner X, Y*
0 $17 Rotation angle, in degrees counterclockwise*
0 create outline with 8 corners*
4,1,8,$1,$2,$3,$4,$5,$6,$7,$8,$9,$10,$11,$12,$13,$14,$15,$16,$1,$2,$17*%
%AMFreePoly0*
4,1,6,1.000000,0.000000,0.500000,-0.750000,-0.500000,-0.750000,-0.500000,0.750000,0.500000,0.750000,1.000000,0.000000,1.000000,0.000000,$1*%
%AMFreePoly1*
4,1,6,0.500000,-0.750000,-0.650000,-0.750000,-0.150000,0.000000,-0.650000,0.750000,0.500000,0.750000,0.500000,-0.750000,0.500000,-0.750000,$1*%
G04 Aperture macros list end*
%ADD10C,1.700000*%
%ADD11C,4.000000*%
%ADD12C,2.200000*%
%ADD13R,3.200000X2.000000*%
%ADD14C,2.000000*%
%ADD15RoundRect,0.500000X0.500000X0.500000X-0.500000X0.500000X-0.500000X-0.500000X0.500000X-0.500000X0*%
%ADD16C,1.600000*%
%ADD17C,1.500000*%
%ADD18O,1.400000X3.500000*%
%ADD19C,0.500000*%
%ADD20RoundRect,0.125000X-0.125000X0.125000X-0.125000X-0.125000X0.125000X-0.125000X0.125000X0.125000X0*%
%ADD21C,4.875000*%
%ADD22C,5.875000*%
%ADD23C,1.397000*%
%ADD24RoundRect,0.349250X0.349250X-0.349250X0.349250X0.349250X-0.349250X0.349250X-0.349250X-0.349250X0*%
%ADD25RoundRect,0.349250X-0.349250X0.349250X-0.349250X-0.349250X0.349250X-0.349250X0.349250X0.349250X0*%
%ADD26C,3.000000*%
%ADD27RoundRect,0.349250X-0.349250X-0.349250X0.349250X-0.349250X0.349250X0.349250X-0.349250X0.349250X0*%
%ADD28RoundRect,0.347750X0.347750X-0.347750X0.347750X0.347750X-0.347750X0.347750X-0.347750X-0.347750X0*%
%ADD29RoundRect,0.250000X0.300000X-0.300000X0.300000X0.300000X-0.300000X0.300000X-0.300000X-0.300000X0*%
%ADD30C,1.391000*%
%ADD31RoundRect,0.347750X-0.347750X-0.347750X0.347750X-0.347750X0.347750X0.347750X-0.347750X0.347750X0*%
%ADD32RoundRect,0.250000X-0.300000X-0.300000X0.300000X-0.300000X0.300000X0.300000X-0.300000X0.300000X0*%
%ADD33R,1.670000X0.820000*%
%ADD34RoundRect,0.125000X-0.125000X-0.125000X0.125000X-0.125000X0.125000X0.125000X-0.125000X0.125000X0*%
%ADD35Outline5P,-0.835000X0.410000X0.835000X0.410000X0.835000X-0.082000X0.507000X-0.410000X-0.835000X-0.410000X0.000000*%
%ADD36RoundRect,0.250001X0.499999X0.924999X-0.499999X0.924999X-0.499999X-0.924999X0.499999X-0.924999X0*%
%ADD37RoundRect,0.125000X0.125000X0.125000X-0.125000X0.125000X-0.125000X-0.125000X0.125000X-0.125000X0*%
%ADD38RoundRect,0.250000X-0.250000X-0.250000X0.250000X-0.250000X0.250000X0.250000X-0.250000X0.250000X0*%
%ADD39RoundRect,0.339622X-0.710378X-0.560378X0.710378X-0.560378X0.710378X0.560378X-0.710378X0.560378X0*%
%ADD40C,1.000000*%
%ADD41Outline5P,-0.835000X0.410000X0.835000X0.410000X0.835000X-0.082000X0.507000X-0.410000X-0.835000X-0.410000X180.000000*%
%ADD42R,2.000000X0.600000*%
%ADD43R,0.650000X1.560000*%
%ADD44RoundRect,0.250001X-0.499999X-0.924999X0.499999X-0.924999X0.499999X0.924999X-0.499999X0.924999X0*%
%ADD45RoundRect,0.250000X0.625000X-0.400000X0.625000X0.400000X-0.625000X0.400000X-0.625000X-0.400000X0*%
%ADD46FreePoly0,270.000000*%
%ADD47FreePoly1,270.000000*%
%ADD48RoundRect,0.250000X-0.400000X-0.625000X0.400000X-0.625000X0.400000X0.625000X-0.400000X0.625000X0*%
%ADD49RoundRect,0.250000X-0.250000X0.250000X-0.250000X-0.250000X0.250000X-0.250000X0.250000X0.250000X0*%
%ADD50RoundRect,0.339622X-0.560378X0.710378X-0.560378X-0.710378X0.560378X-0.710378X0.560378X0.710378X0*%
%ADD51RoundRect,0.250000X0.250000X-0.250000X0.250000X0.250000X-0.250000X0.250000X-0.250000X-0.250000X0*%
%ADD52RoundRect,0.339622X0.560378X-0.710378X0.560378X0.710378X-0.560378X0.710378X-0.560378X-0.710378X0*%
%ADD53RoundRect,0.250000X0.250000X0.250000X-0.250000X0.250000X-0.250000X-0.250000X0.250000X-0.250000X0*%
%ADD54RoundRect,0.339622X0.710378X0.560378X-0.710378X0.560378X-0.710378X-0.560378X0.710378X-0.560378X0*%
G04 APERTURE END LIST*
D10*
X46045000Y-67080000D03*
D11*
X51125000Y-67080000D03*
D10*
X56205000Y-67080000D03*
D12*
X53665000Y-62000000D03*
X47315000Y-64540000D03*
D10*
X46045000Y-86105000D03*
D11*
X51125000Y-86105000D03*
D10*
X56205000Y-86105000D03*
D12*
X53665000Y-81025000D03*
X47315000Y-83565000D03*
D10*
X46045000Y-105130000D03*
D11*
X51125000Y-105130000D03*
D10*
X56205000Y-105130000D03*
D12*
X53665000Y-100050000D03*
X47315000Y-102590000D03*
D10*
X46045000Y-124155000D03*
D11*
X51125000Y-124155000D03*
D10*
X56205000Y-124155000D03*
D12*
X53665000Y-119075000D03*
X47315000Y-121615000D03*
D10*
X46045000Y-143180000D03*
D11*
X51125000Y-143180000D03*
D10*
X56205000Y-143180000D03*
D12*
X53665000Y-138100000D03*
X47315000Y-140640000D03*
D10*
X65070000Y-67080000D03*
D11*
X70150000Y-67080000D03*
D10*
X75230000Y-67080000D03*
D12*
X72690000Y-62000000D03*
X66340000Y-64540000D03*
D10*
X65070000Y-86105000D03*
D11*
X70150000Y-86105000D03*
D10*
X75230000Y-86105000D03*
D12*
X72690000Y-81025000D03*
X66340000Y-83565000D03*
D10*
X65070000Y-105130000D03*
D11*
X70150000Y-105130000D03*
D10*
X75230000Y-105130000D03*
D12*
X72690000Y-100050000D03*
X66340000Y-102590000D03*
D10*
X65070000Y-124155000D03*
D11*
X70150000Y-124155000D03*
D10*
X75230000Y-124155000D03*
D12*
X72690000Y-119075000D03*
X66340000Y-121615000D03*
D10*
X65070000Y-143180000D03*
D11*
X70150000Y-143180000D03*
D10*
X75230000Y-143180000D03*
D12*
X72690000Y-138100000D03*
X66340000Y-140640000D03*
D10*
X84095000Y-67080000D03*
D11*
X89175000Y-67080000D03*
D10*
X94255000Y-67080000D03*
D12*
X91715000Y-62000000D03*
X85365000Y-64540000D03*
D10*
X84095000Y-105130000D03*
D11*
X89175000Y-105130000D03*
D10*
X94255000Y-105130000D03*
D12*
X91715000Y-100050000D03*
X85365000Y-102590000D03*
D10*
X84095000Y-124155000D03*
D11*
X89175000Y-124155000D03*
D10*
X94255000Y-124155000D03*
D12*
X91715000Y-119075000D03*
X85365000Y-121615000D03*
D10*
X84095000Y-143180000D03*
D11*
X89175000Y-143180000D03*
D10*
X94255000Y-143180000D03*
D12*
X91715000Y-138100000D03*
X85365000Y-140640000D03*
D10*
X103120000Y-67080000D03*
D11*
X108200000Y-67080000D03*
D10*
X113280000Y-67080000D03*
D12*
X110740000Y-62000000D03*
X104390000Y-64540000D03*
D10*
X103120000Y-86105000D03*
D11*
X108200000Y-86105000D03*
D10*
X113280000Y-86105000D03*
D12*
X110740000Y-81025000D03*
X104390000Y-83565000D03*
D10*
X103120000Y-105130000D03*
D11*
X108200000Y-105130000D03*
D10*
X113280000Y-105130000D03*
D12*
X110740000Y-100050000D03*
X104390000Y-102590000D03*
D10*
X103120000Y-124155000D03*
D11*
X108200000Y-124155000D03*
D10*
X113280000Y-124155000D03*
D12*
X110740000Y-119075000D03*
X104390000Y-121615000D03*
D10*
X103120000Y-143180000D03*
D11*
X108200000Y-143180000D03*
D10*
X113280000Y-143180000D03*
D12*
X110740000Y-138100000D03*
X104390000Y-140640000D03*
D10*
X122145000Y-67080000D03*
D11*
X127225000Y-67080000D03*
D10*
X132305000Y-67080000D03*
D12*
X129765000Y-62000000D03*
X123415000Y-64540000D03*
D10*
X122145000Y-86105000D03*
D11*
X127225000Y-86105000D03*
D10*
X132305000Y-86105000D03*
D12*
X129765000Y-81025000D03*
X123415000Y-83565000D03*
D10*
X122145000Y-105130000D03*
D11*
X127225000Y-105130000D03*
D10*
X132305000Y-105130000D03*
D12*
X129765000Y-100050000D03*
X123415000Y-102590000D03*
D10*
X122145000Y-124155000D03*
D11*
X127225000Y-124155000D03*
D10*
X132305000Y-124155000D03*
D12*
X129765000Y-119075000D03*
X123415000Y-121615000D03*
D10*
X122145000Y-143180000D03*
D11*
X127225000Y-143180000D03*
D10*
X132305000Y-143180000D03*
D12*
X129765000Y-138100000D03*
X123415000Y-140640000D03*
D10*
X141170000Y-67080000D03*
D11*
X146250000Y-67080000D03*
D10*
X151330000Y-67080000D03*
D12*
X148790000Y-62000000D03*
X142440000Y-64540000D03*
D10*
X141170000Y-86105000D03*
D11*
X146250000Y-86105000D03*
D10*
X151330000Y-86105000D03*
D12*
X148790000Y-81025000D03*
X142440000Y-83565000D03*
D10*
X141170000Y-105130000D03*
D11*
X146250000Y-105130000D03*
D10*
X151330000Y-105130000D03*
D12*
X148790000Y-100050000D03*
X142440000Y-102590000D03*
D10*
X141170000Y-124155000D03*
D11*
X146250000Y-124155000D03*
D10*
X151330000Y-124155000D03*
D12*
X148790000Y-119075000D03*
X142440000Y-121615000D03*
D10*
X141170000Y-143180000D03*
D11*
X146250000Y-143180000D03*
D10*
X151330000Y-143180000D03*
D12*
X148790000Y-138100000D03*
X142440000Y-140640000D03*
D10*
X160195000Y-67080000D03*
D11*
X165275000Y-67080000D03*
D10*
X170355000Y-67080000D03*
D12*
X167815000Y-62000000D03*
X161465000Y-64540000D03*
D10*
X160195000Y-86105000D03*
D11*
X165275000Y-86105000D03*
D10*
X170355000Y-86105000D03*
D12*
X167815000Y-81025000D03*
X161465000Y-83565000D03*
D10*
X160195000Y-105130000D03*
D11*
X165275000Y-105130000D03*
D10*
X170355000Y-105130000D03*
D12*
X167815000Y-100050000D03*
X161465000Y-102590000D03*
D10*
X160195000Y-124155000D03*
D11*
X165275000Y-124155000D03*
D10*
X170355000Y-124155000D03*
D12*
X167815000Y-119075000D03*
X161465000Y-121615000D03*
D10*
X160195000Y-143180000D03*
D11*
X165275000Y-143180000D03*
D10*
X170355000Y-143180000D03*
D12*
X167815000Y-138100000D03*
X161465000Y-140640000D03*
D10*
X179220000Y-67080000D03*
D11*
X184300000Y-67080000D03*
D10*
X189380000Y-67080000D03*
D12*
X186840000Y-62000000D03*
X180490000Y-64540000D03*
D10*
X179220000Y-86105000D03*
D11*
X184300000Y-86105000D03*
D10*
X189380000Y-86105000D03*
D12*
X186840000Y-81025000D03*
X180490000Y-83565000D03*
D10*
X179220000Y-105130000D03*
D11*
X184300000Y-105130000D03*
D10*
X189380000Y-105130000D03*
D12*
X186840000Y-100050000D03*
X180490000Y-102590000D03*
D10*
X179220000Y-124155000D03*
D11*
X184300000Y-124155000D03*
D10*
X189380000Y-124155000D03*
D12*
X186840000Y-119075000D03*
X180490000Y-121615000D03*
D10*
X179220000Y-143180000D03*
D11*
X184300000Y-143180000D03*
D10*
X189380000Y-143180000D03*
D12*
X186840000Y-138100000D03*
X180490000Y-140640000D03*
D10*
X198245000Y-67080000D03*
D11*
X203325000Y-67080000D03*
D10*
X208405000Y-67080000D03*
D12*
X205865000Y-62000000D03*
X199515000Y-64540000D03*
D10*
X198245000Y-86105000D03*
D11*
X203325000Y-86105000D03*
D10*
X208405000Y-86105000D03*
D12*
X205865000Y-81025000D03*
X199515000Y-83565000D03*
D10*
X198245000Y-105130000D03*
D11*
X203325000Y-105130000D03*
D10*
X208405000Y-105130000D03*
D12*
X205865000Y-100050000D03*
X199515000Y-102590000D03*
D10*
X198245000Y-124155000D03*
D11*
X203325000Y-124155000D03*
D10*
X208405000Y-124155000D03*
D12*
X205865000Y-119075000D03*
X199515000Y-121615000D03*
D10*
X198245000Y-143180000D03*
D11*
X203325000Y-143180000D03*
D10*
X208405000Y-143180000D03*
D12*
X205865000Y-138100000D03*
X199515000Y-140640000D03*
D10*
X217270000Y-67080000D03*
D11*
X222350000Y-67080000D03*
D10*
X227430000Y-67080000D03*
D12*
X224890000Y-62000000D03*
X218540000Y-64540000D03*
D10*
X217270000Y-86105000D03*
D11*
X222350000Y-86105000D03*
D10*
X227430000Y-86105000D03*
D12*
X224890000Y-81025000D03*
X218540000Y-83565000D03*
D10*
X217270000Y-105130000D03*
D11*
X222350000Y-105130000D03*
D10*
X227430000Y-105130000D03*
D12*
X224890000Y-100050000D03*
X218540000Y-102590000D03*
D10*
X217270000Y-124155000D03*
D11*
X222350000Y-124155000D03*
D10*
X227430000Y-124155000D03*
D12*
X224890000Y-119075000D03*
X218540000Y-121615000D03*
D10*
X217270000Y-143180000D03*
D11*
X222350000Y-143180000D03*
D10*
X227430000Y-143180000D03*
D12*
X224890000Y-138100000D03*
X218540000Y-140640000D03*
D10*
X236295000Y-67080000D03*
D11*
X241375000Y-67080000D03*
D10*
X246455000Y-67080000D03*
D12*
X243915000Y-62000000D03*
X237565000Y-64540000D03*
D10*
X236295000Y-86105000D03*
D11*
X241375000Y-86105000D03*
D10*
X246455000Y-86105000D03*
D12*
X243915000Y-81025000D03*
X237565000Y-83565000D03*
D10*
X236295000Y-105130000D03*
D11*
X241375000Y-105130000D03*
D10*
X246455000Y-105130000D03*
D12*
X243915000Y-100050000D03*
X237565000Y-102590000D03*
D10*
X236295000Y-124155000D03*
D11*
X241375000Y-124155000D03*
D10*
X246455000Y-124155000D03*
D12*
X243915000Y-119075000D03*
X237565000Y-121615000D03*
D10*
X236295000Y-143180000D03*
D11*
X241375000Y-143180000D03*
D10*
X246455000Y-143180000D03*
D12*
X243915000Y-138100000D03*
X237565000Y-140640000D03*
D10*
X255320000Y-67080000D03*
D11*
X260400000Y-67080000D03*
D10*
X265480000Y-67080000D03*
D12*
X262940000Y-62000000D03*
X256590000Y-64540000D03*
D10*
X255320000Y-86105000D03*
D11*
X260400000Y-86105000D03*
D10*
X265480000Y-86105000D03*
D12*
X262940000Y-81025000D03*
X256590000Y-83565000D03*
D10*
X255320000Y-105130000D03*
D11*
X260400000Y-105130000D03*
D10*
X265480000Y-105130000D03*
D12*
X262940000Y-100050000D03*
X256590000Y-102590000D03*
D10*
X255320000Y-124155000D03*
D11*
X260400000Y-124155000D03*
D10*
X265480000Y-124155000D03*
D12*
X262940000Y-119075000D03*
X256590000Y-121615000D03*
D10*
X255320000Y-143180000D03*
D11*
X260400000Y-143180000D03*
D10*
X265480000Y-143180000D03*
D12*
X262940000Y-138100000D03*
X256590000Y-140640000D03*
D10*
X27020000Y-86105000D03*
D11*
X32100000Y-86105000D03*
D10*
X37180000Y-86105000D03*
D12*
X34640000Y-81025000D03*
X28290000Y-83565000D03*
D10*
X27020000Y-105130000D03*
D11*
X32100000Y-105130000D03*
D10*
X37180000Y-105130000D03*
D12*
X34640000Y-100050000D03*
X28290000Y-102590000D03*
D10*
X27020000Y-124155000D03*
D11*
X32100000Y-124155000D03*
D10*
X37180000Y-124155000D03*
D12*
X34640000Y-119075000D03*
X28290000Y-121615000D03*
D10*
X27020000Y-143180000D03*
D11*
X32100000Y-143180000D03*
D10*
X37180000Y-143180000D03*
D12*
X34640000Y-138100000D03*
X28290000Y-140640000D03*
D13*
X34410000Y-50542000D03*
X34410000Y-39342000D03*
D14*
X41910000Y-47442000D03*
X41910000Y-42442000D03*
D15*
X41910000Y-44942000D03*
D16*
X27410000Y-47442000D03*
D17*
X27410000Y-42442000D03*
D10*
X27020000Y-67080000D03*
D11*
X32100000Y-67080000D03*
D10*
X37180000Y-67080000D03*
D12*
X34640000Y-62000000D03*
X28290000Y-64540000D03*
D14*
X141360000Y-48180000D03*
X134860000Y-48180000D03*
X141360000Y-43680000D03*
X134860000Y-43680000D03*
D18*
X228852500Y-52450000D03*
X220652500Y-52450000D03*
D17*
X226752500Y-52450000D03*
X224752500Y-52450000D03*
X222752500Y-52450000D03*
D19*
X188508690Y-44265000D03*
X187228690Y-44265000D03*
X185968690Y-44265000D03*
X184698690Y-44265000D03*
X183418690Y-44265000D03*
X182148690Y-44265000D03*
X180888690Y-44265000D03*
D20*
X179608690Y-44265000D03*
D19*
X179608690Y-52065000D03*
X180888690Y-52065000D03*
X182148690Y-52065000D03*
X183418690Y-52065000D03*
X184698690Y-52065000D03*
X185968690Y-52065000D03*
X187228690Y-52065000D03*
X188508690Y-52065000D03*
D21*
X22240000Y-33890000D03*
X22240000Y-41890000D03*
X22240000Y-49890000D03*
X22240000Y-57890000D03*
X22240000Y-65890000D03*
X22240000Y-73890000D03*
X22240000Y-81890000D03*
X22240000Y-89890000D03*
X22240000Y-97890000D03*
X22240000Y-105890000D03*
X22240000Y-113890000D03*
X22240000Y-121890000D03*
X22240000Y-129890000D03*
X22240000Y-137890000D03*
X22240000Y-145890000D03*
X22240000Y-153890000D03*
X30240000Y-33890000D03*
X30240000Y-153890000D03*
X38240000Y-33890000D03*
X38240000Y-153890000D03*
X46240000Y-33890000D03*
X46240000Y-153890000D03*
X54240000Y-33890000D03*
X54240000Y-153890000D03*
X62240000Y-33890000D03*
X62240000Y-153890000D03*
X70240000Y-33890000D03*
X70240000Y-153890000D03*
X78240000Y-33890000D03*
X78240000Y-153890000D03*
X86240000Y-33890000D03*
X86240000Y-153890000D03*
X94240000Y-33890000D03*
X94240000Y-153890000D03*
X102240000Y-33890000D03*
X102240000Y-153890000D03*
X110240000Y-33890000D03*
X110240000Y-153890000D03*
X118240000Y-33890000D03*
X118240000Y-153890000D03*
X126240000Y-33890000D03*
X126240000Y-153890000D03*
X134240000Y-33890000D03*
X134240000Y-153890000D03*
X142240000Y-33890000D03*
X142240000Y-153890000D03*
X150240000Y-33890000D03*
X150240000Y-153890000D03*
X158240000Y-33890000D03*
X158240000Y-153890000D03*
X166240000Y-33890000D03*
X166240000Y-153890000D03*
X174240000Y-33890000D03*
X174240000Y-153890000D03*
X182240000Y-33890000D03*
X182240000Y-153890000D03*
X190240000Y-33890000D03*
D22*
X190240000Y-153890000D03*
D21*
X198240000Y-33890000D03*
D22*
X198240000Y-153890000D03*
D21*
X206240000Y-33890000D03*
D22*
X206240000Y-153890000D03*
D21*
X214240000Y-33890000D03*
D22*
X214240000Y-153890000D03*
D21*
X222240000Y-33890000D03*
D22*
X222240000Y-153890000D03*
D21*
X230240000Y-33890000D03*
D22*
X230240000Y-153890000D03*
D21*
X238240000Y-33890000D03*
X238240000Y-153890000D03*
X246240000Y-33890000D03*
X246240000Y-153890000D03*
X254240000Y-33890000D03*
D22*
X254240000Y-153890000D03*
D21*
X262240000Y-33890000D03*
D22*
X262240000Y-153890000D03*
D21*
X270240000Y-33890000D03*
X270240000Y-41890000D03*
D22*
X270240000Y-49890000D03*
X270240000Y-57890000D03*
D21*
X270240000Y-65890000D03*
X270240000Y-73890000D03*
X270240000Y-81890000D03*
X270240000Y-89890000D03*
X270240000Y-97890000D03*
X270240000Y-105890000D03*
X270240000Y-113890000D03*
X270240000Y-121890000D03*
X270240000Y-129890000D03*
X270240000Y-137890000D03*
X270240000Y-145890000D03*
D22*
X270240000Y-153890000D03*
D19*
X172045000Y-44265000D03*
X170765000Y-44265000D03*
X169505000Y-44265000D03*
X168235000Y-44265000D03*
X166955000Y-44265000D03*
X165685000Y-44265000D03*
X164425000Y-44265000D03*
D20*
X163145000Y-44265000D03*
D19*
X163145000Y-52065000D03*
X164425000Y-52065000D03*
X165685000Y-52065000D03*
X166955000Y-52065000D03*
X168235000Y-52065000D03*
X169505000Y-52065000D03*
X170765000Y-52065000D03*
X172045000Y-52065000D03*
D23*
X219630000Y-47410000D03*
X219630000Y-44870000D03*
X219630000Y-42330000D03*
D24*
X219630000Y-39790000D03*
D23*
X261510000Y-39360000D03*
X258970000Y-39360000D03*
D25*
X256430000Y-39360000D03*
X253890000Y-39360000D03*
D23*
X251350000Y-39360000D03*
X248810000Y-39360000D03*
X246270000Y-39360000D03*
X243730000Y-39360000D03*
X241190000Y-39360000D03*
X238650000Y-39360000D03*
X236110000Y-39360000D03*
X233570000Y-39360000D03*
X261510000Y-54600000D03*
D25*
X258970000Y-54600000D03*
D23*
X256430000Y-54600000D03*
X253890000Y-54600000D03*
X251350000Y-54600000D03*
X248810000Y-54600000D03*
X246270000Y-54600000D03*
X243730000Y-54600000D03*
X241190000Y-54600000D03*
X238650000Y-54600000D03*
X236110000Y-54600000D03*
X233570000Y-54600000D03*
X233570000Y-41900000D03*
X233570000Y-44440000D03*
X233570000Y-46980000D03*
X233570000Y-49520000D03*
X233570000Y-52060000D03*
X264050000Y-54600000D03*
D25*
X264050000Y-39360000D03*
D23*
X256430000Y-45710000D03*
X256430000Y-48250000D03*
X236110000Y-41900000D03*
D19*
X239437500Y-50610000D03*
X243557500Y-50610000D03*
D26*
X147920000Y-54740000D03*
X214320000Y-54740000D03*
D23*
X215190000Y-38730000D03*
X212650000Y-38730000D03*
X215190000Y-41270000D03*
X212650000Y-41270000D03*
X215190000Y-43810000D03*
X212650000Y-43810000D03*
D27*
X215190000Y-46350000D03*
D23*
X212650000Y-46350000D03*
D10*
X84095000Y-86105000D03*
D11*
X89175000Y-86105000D03*
D10*
X94255000Y-86105000D03*
D12*
X91715000Y-81025000D03*
X85365000Y-83565000D03*
D23*
X252320000Y-45920000D03*
D25*
X252320000Y-47920000D03*
D28*
X40160500Y-72390000D03*
D29*
X40160500Y-70230000D03*
X40160500Y-66930000D03*
D30*
X40160500Y-64770000D03*
D28*
X43035500Y-91415000D03*
D29*
X43035500Y-89255000D03*
X43035500Y-85955000D03*
D30*
X43035500Y-83795000D03*
D28*
X43035500Y-110440000D03*
D29*
X43035500Y-108280000D03*
X43035500Y-104980000D03*
D30*
X43035500Y-102820000D03*
D28*
X43035500Y-129465000D03*
D29*
X43035500Y-127305000D03*
X43035500Y-124005000D03*
D30*
X43035500Y-121845000D03*
D28*
X43035500Y-148490000D03*
D29*
X43035500Y-146330000D03*
X43035500Y-143030000D03*
D30*
X43035500Y-140870000D03*
D28*
X43035500Y-72390000D03*
D29*
X43035500Y-70230000D03*
X43035500Y-66930000D03*
D30*
X43035500Y-64770000D03*
D28*
X61860500Y-91415000D03*
D29*
X61860500Y-89255000D03*
X61860500Y-85955000D03*
D30*
X61860500Y-83795000D03*
D28*
X61860500Y-110440000D03*
D29*
X61860500Y-108280000D03*
X61860500Y-104980000D03*
D30*
X61860500Y-102820000D03*
D28*
X61860500Y-129465000D03*
D29*
X61860500Y-127305000D03*
X61860500Y-124005000D03*
D30*
X61860500Y-121845000D03*
D28*
X61860500Y-148490000D03*
D29*
X61860500Y-146330000D03*
X61860500Y-143030000D03*
D30*
X61860500Y-140870000D03*
D28*
X61860500Y-72390000D03*
D29*
X61860500Y-70230000D03*
X61860500Y-66930000D03*
D30*
X61860500Y-64770000D03*
D28*
X80885500Y-91415000D03*
D29*
X80885500Y-89255000D03*
X80885500Y-85955000D03*
D30*
X80885500Y-83795000D03*
D28*
X80885500Y-110440000D03*
D29*
X80885500Y-108280000D03*
X80885500Y-104980000D03*
D30*
X80885500Y-102820000D03*
D28*
X80885500Y-129465000D03*
D29*
X80885500Y-127305000D03*
X80885500Y-124005000D03*
D30*
X80885500Y-121845000D03*
D28*
X80885500Y-148490000D03*
D29*
X80885500Y-146330000D03*
X80885500Y-143030000D03*
D30*
X80885500Y-140870000D03*
D28*
X80885500Y-72390000D03*
D29*
X80885500Y-70230000D03*
X80885500Y-66930000D03*
D30*
X80885500Y-64770000D03*
D28*
X99910500Y-91415000D03*
D29*
X99910500Y-89255000D03*
X99910500Y-85955000D03*
D30*
X99910500Y-83795000D03*
D28*
X99910500Y-110440000D03*
D29*
X99910500Y-108280000D03*
X99910500Y-104980000D03*
D30*
X99910500Y-102820000D03*
D28*
X99910500Y-129465000D03*
D29*
X99910500Y-127305000D03*
X99910500Y-124005000D03*
D30*
X99910500Y-121845000D03*
D28*
X99910500Y-148490000D03*
D29*
X99910500Y-146330000D03*
X99910500Y-143030000D03*
D30*
X99910500Y-140870000D03*
D28*
X99910500Y-72390000D03*
D29*
X99910500Y-70230000D03*
X99910500Y-66930000D03*
D30*
X99910500Y-64770000D03*
D28*
X118935500Y-91415000D03*
D29*
X118935500Y-89255000D03*
X118935500Y-85955000D03*
D30*
X118935500Y-83795000D03*
D28*
X118935500Y-110440000D03*
D29*
X118935500Y-108280000D03*
X118935500Y-104980000D03*
D30*
X118935500Y-102820000D03*
D28*
X118935500Y-129465000D03*
D29*
X118935500Y-127305000D03*
X118935500Y-124005000D03*
D30*
X118935500Y-121845000D03*
D28*
X118935500Y-148490000D03*
D29*
X118935500Y-146330000D03*
X118935500Y-143030000D03*
D30*
X118935500Y-140870000D03*
D28*
X118935500Y-72390000D03*
D29*
X118935500Y-70230000D03*
X118935500Y-66930000D03*
D30*
X118935500Y-64770000D03*
D28*
X137960500Y-91415000D03*
D29*
X137960500Y-89255000D03*
X137960500Y-85955000D03*
D30*
X137960500Y-83795000D03*
D28*
X137960500Y-110440000D03*
D29*
X137960500Y-108280000D03*
X137960500Y-104980000D03*
D30*
X137960500Y-102820000D03*
D28*
X137960500Y-129465000D03*
D29*
X137960500Y-127305000D03*
X137960500Y-124005000D03*
D30*
X137960500Y-121845000D03*
D28*
X137960500Y-148490000D03*
D29*
X137960500Y-146330000D03*
X137960500Y-143030000D03*
D30*
X137960500Y-140870000D03*
D28*
X137960500Y-72390000D03*
D29*
X137960500Y-70230000D03*
X137960500Y-66930000D03*
D30*
X137960500Y-64770000D03*
D28*
X156985500Y-91415000D03*
D29*
X156985500Y-89255000D03*
X156985500Y-85955000D03*
D30*
X156985500Y-83795000D03*
D28*
X156985500Y-110440000D03*
D29*
X156985500Y-108280000D03*
X156985500Y-104980000D03*
D30*
X156985500Y-102820000D03*
D28*
X156985500Y-129465000D03*
D29*
X156985500Y-127305000D03*
X156985500Y-124005000D03*
D30*
X156985500Y-121845000D03*
D28*
X156985500Y-148490000D03*
D29*
X156985500Y-146330000D03*
X156985500Y-143030000D03*
D30*
X156985500Y-140870000D03*
D28*
X156985500Y-72390000D03*
D29*
X156985500Y-70230000D03*
X156985500Y-66930000D03*
D30*
X156985500Y-64770000D03*
D28*
X176010500Y-91415000D03*
D29*
X176010500Y-89255000D03*
X176010500Y-85955000D03*
D30*
X176010500Y-83795000D03*
D28*
X176010500Y-110440000D03*
D29*
X176010500Y-108280000D03*
X176010500Y-104980000D03*
D30*
X176010500Y-102820000D03*
D28*
X176010500Y-129465000D03*
D29*
X176010500Y-127305000D03*
X176010500Y-124005000D03*
D30*
X176010500Y-121845000D03*
D28*
X176010500Y-148490000D03*
D29*
X176010500Y-146330000D03*
X176010500Y-143030000D03*
D30*
X176010500Y-140870000D03*
D28*
X176010500Y-72390000D03*
D29*
X176010500Y-70230000D03*
X176010500Y-66930000D03*
D30*
X176010500Y-64770000D03*
D28*
X195035500Y-91415000D03*
D29*
X195035500Y-89255000D03*
X195035500Y-85955000D03*
D30*
X195035500Y-83795000D03*
D28*
X195035500Y-110440000D03*
D29*
X195035500Y-108280000D03*
X195035500Y-104980000D03*
D30*
X195035500Y-102820000D03*
D28*
X195035500Y-129465000D03*
D29*
X195035500Y-127305000D03*
X195035500Y-124005000D03*
D30*
X195035500Y-121845000D03*
D28*
X195035500Y-148490000D03*
D29*
X195035500Y-146330000D03*
X195035500Y-143030000D03*
D30*
X195035500Y-140870000D03*
D28*
X195035500Y-72390000D03*
D29*
X195035500Y-70230000D03*
X195035500Y-66930000D03*
D30*
X195035500Y-64770000D03*
D28*
X214060500Y-91415000D03*
D29*
X214060500Y-89255000D03*
X214060500Y-85955000D03*
D30*
X214060500Y-83795000D03*
D28*
X214060500Y-110440000D03*
D29*
X214060500Y-108280000D03*
X214060500Y-104980000D03*
D30*
X214060500Y-102820000D03*
D28*
X214060500Y-129465000D03*
D29*
X214060500Y-127305000D03*
X214060500Y-124005000D03*
D30*
X214060500Y-121845000D03*
D28*
X214060500Y-148490000D03*
D29*
X214060500Y-146330000D03*
X214060500Y-143030000D03*
D30*
X214060500Y-140870000D03*
D28*
X214060500Y-72390000D03*
D29*
X214060500Y-70230000D03*
X214060500Y-66930000D03*
D30*
X214060500Y-64770000D03*
D28*
X233085500Y-91415000D03*
D29*
X233085500Y-89255000D03*
X233085500Y-85955000D03*
D30*
X233085500Y-83795000D03*
D28*
X233085500Y-110440000D03*
D29*
X233085500Y-108280000D03*
X233085500Y-104980000D03*
D30*
X233085500Y-102820000D03*
D28*
X233085500Y-129465000D03*
D29*
X233085500Y-127305000D03*
X233085500Y-124005000D03*
D30*
X233085500Y-121845000D03*
D28*
X233085500Y-148490000D03*
D29*
X233085500Y-146330000D03*
X233085500Y-143030000D03*
D30*
X233085500Y-140870000D03*
D28*
X233085500Y-72390000D03*
D29*
X233085500Y-70230000D03*
X233085500Y-66930000D03*
D30*
X233085500Y-64770000D03*
D28*
X252110500Y-91415000D03*
D29*
X252110500Y-89255000D03*
X252110500Y-85955000D03*
D30*
X252110500Y-83795000D03*
D28*
X252110500Y-110440000D03*
D29*
X252110500Y-108280000D03*
X252110500Y-104980000D03*
D30*
X252110500Y-102820000D03*
D28*
X252110500Y-129465000D03*
D29*
X252110500Y-127305000D03*
X252110500Y-124005000D03*
D30*
X252110500Y-121845000D03*
D28*
X252110500Y-148490000D03*
D29*
X252110500Y-146330000D03*
X252110500Y-143030000D03*
D30*
X252110500Y-140870000D03*
D28*
X252110500Y-72390000D03*
D29*
X252110500Y-70230000D03*
X252110500Y-66930000D03*
D30*
X252110500Y-64770000D03*
D28*
X40160500Y-129465000D03*
D29*
X40160500Y-127305000D03*
X40160500Y-124005000D03*
D30*
X40160500Y-121845000D03*
D28*
X40160500Y-148490000D03*
D29*
X40160500Y-146330000D03*
X40160500Y-143030000D03*
D30*
X40160500Y-140870000D03*
D31*
X27150000Y-54260000D03*
D32*
X29310000Y-54260000D03*
X32610000Y-54260000D03*
D30*
X34770000Y-54260000D03*
D28*
X40160500Y-110440000D03*
D29*
X40160500Y-108280000D03*
X40160500Y-104980000D03*
D30*
X40160500Y-102820000D03*
D33*
X181665000Y-128485000D03*
D19*
X182150000Y-128485000D03*
D33*
X181665000Y-129985000D03*
D19*
X182150000Y-129985000D03*
D34*
X186450000Y-129985000D03*
D35*
X186935000Y-129985000D03*
D19*
X186450000Y-128485000D03*
D33*
X186935000Y-128485000D03*
D36*
X31095000Y-76560000D03*
D19*
X30190000Y-76560000D03*
D37*
X28750000Y-76560000D03*
D36*
X27845000Y-76560000D03*
D38*
X53690000Y-42390000D03*
D39*
X54240000Y-42415000D03*
X58140000Y-42365000D03*
D40*
X58690000Y-42390000D03*
D33*
X53760000Y-110960000D03*
D19*
X53275000Y-110960000D03*
D33*
X53760000Y-109460000D03*
D19*
X53275000Y-109460000D03*
D37*
X48975000Y-109460000D03*
D41*
X48490000Y-109460000D03*
D19*
X48975000Y-110960000D03*
D33*
X48490000Y-110960000D03*
X34735000Y-149010000D03*
D19*
X34250000Y-149010000D03*
D33*
X34735000Y-147510000D03*
D19*
X34250000Y-147510000D03*
D37*
X29950000Y-147510000D03*
D41*
X29465000Y-147510000D03*
D19*
X29950000Y-149010000D03*
D33*
X29465000Y-149010000D03*
X200690000Y-128485000D03*
D19*
X201175000Y-128485000D03*
D33*
X200690000Y-129985000D03*
D19*
X201175000Y-129985000D03*
D34*
X205475000Y-129985000D03*
D35*
X205960000Y-129985000D03*
D19*
X205475000Y-128485000D03*
D33*
X205960000Y-128485000D03*
X124590000Y-128485000D03*
D19*
X125075000Y-128485000D03*
D33*
X124590000Y-129985000D03*
D19*
X125075000Y-129985000D03*
D34*
X129375000Y-129985000D03*
D35*
X129860000Y-129985000D03*
D19*
X129375000Y-128485000D03*
D33*
X129860000Y-128485000D03*
X110835000Y-110960000D03*
D19*
X110350000Y-110960000D03*
D33*
X110835000Y-109460000D03*
D19*
X110350000Y-109460000D03*
D37*
X106050000Y-109460000D03*
D41*
X105565000Y-109460000D03*
D19*
X106050000Y-110960000D03*
D33*
X105565000Y-110960000D03*
X53760000Y-72910000D03*
D19*
X53275000Y-72910000D03*
D33*
X53760000Y-71410000D03*
D19*
X53275000Y-71410000D03*
D37*
X48975000Y-71410000D03*
D41*
X48490000Y-71410000D03*
D19*
X48975000Y-72910000D03*
D33*
X48490000Y-72910000D03*
D42*
X248930000Y-134550000D03*
D19*
X249630000Y-134550000D03*
D42*
X248930000Y-133250000D03*
D19*
X249630000Y-133250000D03*
X251230000Y-133250000D03*
D42*
X251930000Y-133250000D03*
X251930000Y-134550000D03*
D33*
X167910000Y-110960000D03*
D19*
X167425000Y-110960000D03*
D33*
X167910000Y-109460000D03*
D19*
X167425000Y-109460000D03*
D37*
X163125000Y-109460000D03*
D41*
X162640000Y-109460000D03*
D19*
X163125000Y-110960000D03*
D33*
X162640000Y-110960000D03*
D43*
X39450000Y-57040000D03*
D19*
X40400000Y-56260000D03*
D43*
X40400000Y-57040000D03*
X41350000Y-57040000D03*
X41350000Y-59740000D03*
X39450000Y-59740000D03*
D33*
X86540000Y-90435000D03*
D19*
X87025000Y-90435000D03*
D33*
X86540000Y-91935000D03*
D19*
X87025000Y-91935000D03*
D34*
X91325000Y-91935000D03*
D35*
X91810000Y-91935000D03*
D19*
X91325000Y-90435000D03*
D33*
X91810000Y-90435000D03*
D44*
X254525000Y-133730000D03*
D19*
X255430000Y-133730000D03*
D34*
X256870000Y-133730000D03*
D44*
X257775000Y-133730000D03*
D33*
X219715000Y-90435000D03*
D19*
X220200000Y-90435000D03*
D33*
X219715000Y-91935000D03*
D19*
X220200000Y-91935000D03*
D34*
X224500000Y-91935000D03*
D35*
X224985000Y-91935000D03*
D19*
X224500000Y-90435000D03*
D33*
X224985000Y-90435000D03*
D42*
X172830000Y-134550000D03*
D19*
X173530000Y-134550000D03*
D42*
X172830000Y-133250000D03*
D19*
X173530000Y-133250000D03*
X175130000Y-133250000D03*
D42*
X175830000Y-133250000D03*
X175830000Y-134550000D03*
D23*
X58260000Y-53250000D03*
D45*
X58260000Y-50990000D03*
X58260000Y-47890000D03*
D23*
X58260000Y-45630000D03*
D33*
X263034999Y-149010000D03*
D19*
X262549999Y-149010000D03*
D33*
X263034999Y-147510000D03*
D19*
X262549999Y-147510000D03*
D37*
X258249999Y-147510000D03*
D41*
X257764999Y-147510000D03*
D19*
X258249999Y-149010000D03*
D33*
X257764999Y-149010000D03*
X205960000Y-149010000D03*
D19*
X205475000Y-149010000D03*
D33*
X205960000Y-147510000D03*
D19*
X205475000Y-147510000D03*
D37*
X201175000Y-147510000D03*
D41*
X200690000Y-147510000D03*
D19*
X201175000Y-149010000D03*
D33*
X200690000Y-149010000D03*
X186935000Y-72910000D03*
D19*
X186450000Y-72910000D03*
D33*
X186935000Y-71410000D03*
D19*
X186450000Y-71410000D03*
D37*
X182150000Y-71410000D03*
D41*
X181665000Y-71410000D03*
D19*
X182150000Y-72910000D03*
D33*
X181665000Y-72910000D03*
D23*
X46660000Y-55190000D03*
D45*
X46660000Y-52930000D03*
X46660000Y-49830000D03*
D23*
X46660000Y-47570000D03*
D33*
X72785000Y-72910000D03*
D19*
X72300000Y-72910000D03*
D33*
X72785000Y-71410000D03*
D19*
X72300000Y-71410000D03*
D37*
X68000000Y-71410000D03*
D41*
X67515000Y-71410000D03*
D19*
X68000000Y-72910000D03*
D33*
X67515000Y-72910000D03*
X67515000Y-128485000D03*
D19*
X68000000Y-128485000D03*
D33*
X67515000Y-129985000D03*
D19*
X68000000Y-129985000D03*
D34*
X72300000Y-129985000D03*
D35*
X72785000Y-129985000D03*
D19*
X72300000Y-128485000D03*
D33*
X72785000Y-128485000D03*
X219715000Y-128485000D03*
D19*
X220200000Y-128485000D03*
D33*
X219715000Y-129985000D03*
D19*
X220200000Y-129985000D03*
D34*
X224500000Y-129985000D03*
D35*
X224985000Y-129985000D03*
D19*
X224500000Y-128485000D03*
D33*
X224985000Y-128485000D03*
X29465000Y-90435000D03*
D19*
X29950000Y-90435000D03*
D33*
X29465000Y-91935000D03*
D19*
X29950000Y-91935000D03*
D34*
X34250000Y-91935000D03*
D35*
X34735000Y-91935000D03*
D19*
X34250000Y-90435000D03*
D33*
X34735000Y-90435000D03*
X48490000Y-90435000D03*
D19*
X48975000Y-90435000D03*
D33*
X48490000Y-91935000D03*
D19*
X48975000Y-91935000D03*
D34*
X53275000Y-91935000D03*
D35*
X53760000Y-91935000D03*
D19*
X53275000Y-90435000D03*
D33*
X53760000Y-90435000D03*
X181665000Y-90435000D03*
D19*
X182150000Y-90435000D03*
D33*
X181665000Y-91935000D03*
D19*
X182150000Y-91935000D03*
D34*
X186450000Y-91935000D03*
D35*
X186935000Y-91935000D03*
D19*
X186450000Y-90435000D03*
D33*
X186935000Y-90435000D03*
X91810000Y-72910000D03*
D19*
X91325000Y-72910000D03*
D33*
X91810000Y-71410000D03*
D19*
X91325000Y-71410000D03*
D37*
X87025000Y-71410000D03*
D41*
X86540000Y-71410000D03*
D19*
X87025000Y-72910000D03*
D33*
X86540000Y-72910000D03*
D38*
X260200000Y-57540000D03*
D39*
X260750000Y-57565000D03*
X264650000Y-57515000D03*
D40*
X265200000Y-57540000D03*
D46*
X43900000Y-56560000D03*
D47*
X43900000Y-58010000D03*
D33*
X110835000Y-149010000D03*
D19*
X110350000Y-149010000D03*
D33*
X110835000Y-147510000D03*
D19*
X110350000Y-147510000D03*
D37*
X106050000Y-147510000D03*
D41*
X105565000Y-147510000D03*
D19*
X106050000Y-149010000D03*
D33*
X105565000Y-149010000D03*
X162640000Y-128485000D03*
D19*
X163125000Y-128485000D03*
D33*
X162640000Y-129985000D03*
D19*
X163125000Y-129985000D03*
D34*
X167425000Y-129985000D03*
D35*
X167910000Y-129985000D03*
D19*
X167425000Y-128485000D03*
D33*
X167910000Y-128485000D03*
D23*
X245620000Y-51800000D03*
D48*
X247880000Y-51800000D03*
X250980000Y-51800000D03*
D23*
X253240000Y-51800000D03*
D33*
X110835000Y-72910000D03*
D19*
X110350000Y-72910000D03*
D33*
X110835000Y-71410000D03*
D19*
X110350000Y-71410000D03*
D37*
X106050000Y-71410000D03*
D41*
X105565000Y-71410000D03*
D19*
X106050000Y-72910000D03*
D33*
X105565000Y-72910000D03*
D23*
X223070000Y-42340000D03*
D48*
X225330000Y-42340000D03*
X228430000Y-42340000D03*
D23*
X230690000Y-42340000D03*
D33*
X263034999Y-72910000D03*
D19*
X262549999Y-72910000D03*
D33*
X263034999Y-71410000D03*
D19*
X262549999Y-71410000D03*
D37*
X258249999Y-71410000D03*
D41*
X257764999Y-71410000D03*
D19*
X258249999Y-72910000D03*
D33*
X257764999Y-72910000D03*
X238739999Y-128485000D03*
D19*
X239224999Y-128485000D03*
D33*
X238739999Y-129985000D03*
D19*
X239224999Y-129985000D03*
D34*
X243524999Y-129985000D03*
D35*
X244009999Y-129985000D03*
D19*
X243524999Y-128485000D03*
D33*
X244009999Y-128485000D03*
X148885000Y-149010000D03*
D19*
X148400000Y-149010000D03*
D33*
X148885000Y-147510000D03*
D19*
X148400000Y-147510000D03*
D37*
X144100000Y-147510000D03*
D41*
X143615000Y-147510000D03*
D19*
X144100000Y-149010000D03*
D33*
X143615000Y-149010000D03*
X257764999Y-90435000D03*
D19*
X258249999Y-90435000D03*
D33*
X257764999Y-91935000D03*
D19*
X258249999Y-91935000D03*
D34*
X262549999Y-91935000D03*
D35*
X263034999Y-91935000D03*
D19*
X262549999Y-90435000D03*
D33*
X263034999Y-90435000D03*
X186935000Y-110960000D03*
D19*
X186450000Y-110960000D03*
D33*
X186935000Y-109460000D03*
D19*
X186450000Y-109460000D03*
D37*
X182150000Y-109460000D03*
D41*
X181665000Y-109460000D03*
D19*
X182150000Y-110960000D03*
D33*
X181665000Y-110960000D03*
X34735000Y-110960000D03*
D19*
X34250000Y-110960000D03*
D33*
X34735000Y-109460000D03*
D19*
X34250000Y-109460000D03*
D37*
X29950000Y-109460000D03*
D41*
X29465000Y-109460000D03*
D19*
X29950000Y-110960000D03*
D33*
X29465000Y-110960000D03*
D44*
X260985000Y-133730000D03*
D19*
X261890000Y-133730000D03*
D34*
X263330000Y-133730000D03*
D44*
X264235000Y-133730000D03*
D33*
X263034999Y-110960000D03*
D19*
X262549999Y-110960000D03*
D33*
X263034999Y-109460000D03*
D19*
X262549999Y-109460000D03*
D37*
X258249999Y-109460000D03*
D41*
X257764999Y-109460000D03*
D19*
X258249999Y-110960000D03*
D33*
X257764999Y-110960000D03*
X34735000Y-72910000D03*
D19*
X34250000Y-72910000D03*
D33*
X34735000Y-71410000D03*
D19*
X34250000Y-71410000D03*
D37*
X29950000Y-71410000D03*
D41*
X29465000Y-71410000D03*
D19*
X29950000Y-72910000D03*
D33*
X29465000Y-72910000D03*
X91810000Y-110960000D03*
D19*
X91325000Y-110960000D03*
D33*
X91810000Y-109460000D03*
D19*
X91325000Y-109460000D03*
D37*
X87025000Y-109460000D03*
D41*
X86540000Y-109460000D03*
D19*
X87025000Y-110960000D03*
D33*
X86540000Y-110960000D03*
X105565000Y-90435000D03*
D19*
X106050000Y-90435000D03*
D33*
X105565000Y-91935000D03*
D19*
X106050000Y-91935000D03*
D34*
X110350000Y-91935000D03*
D35*
X110835000Y-91935000D03*
D19*
X110350000Y-90435000D03*
D33*
X110835000Y-90435000D03*
X244009999Y-149010000D03*
D19*
X243524999Y-149010000D03*
D33*
X244009999Y-147510000D03*
D19*
X243524999Y-147510000D03*
D37*
X239224999Y-147510000D03*
D41*
X238739999Y-147510000D03*
D19*
X239224999Y-149010000D03*
D33*
X238739999Y-149010000D03*
X124590000Y-90435000D03*
D19*
X125075000Y-90435000D03*
D33*
X124590000Y-91935000D03*
D19*
X125075000Y-91935000D03*
D34*
X129375000Y-91935000D03*
D35*
X129860000Y-91935000D03*
D19*
X129375000Y-90435000D03*
D33*
X129860000Y-90435000D03*
D42*
X40090000Y-134550000D03*
D19*
X40790000Y-134550000D03*
D42*
X40090000Y-133250000D03*
D19*
X40790000Y-133250000D03*
X42390000Y-133250000D03*
D42*
X43090000Y-133250000D03*
X43090000Y-134550000D03*
D33*
X244009999Y-72910000D03*
D19*
X243524999Y-72910000D03*
D33*
X244009999Y-71410000D03*
D19*
X243524999Y-71410000D03*
D37*
X239224999Y-71410000D03*
D41*
X238739999Y-71410000D03*
D19*
X239224999Y-72910000D03*
D33*
X238739999Y-72910000D03*
X224985000Y-72910000D03*
D19*
X224500000Y-72910000D03*
D33*
X224985000Y-71410000D03*
D19*
X224500000Y-71410000D03*
D37*
X220200000Y-71410000D03*
D41*
X219715000Y-71410000D03*
D19*
X220200000Y-72910000D03*
D33*
X219715000Y-72910000D03*
D49*
X160698690Y-45665000D03*
D50*
X160673690Y-46215000D03*
X160723690Y-50115000D03*
D40*
X160698690Y-50665000D03*
D33*
X143615000Y-128485000D03*
D19*
X144100000Y-128485000D03*
D33*
X143615000Y-129985000D03*
D19*
X144100000Y-129985000D03*
D34*
X148400000Y-129985000D03*
D35*
X148885000Y-129985000D03*
D19*
X148400000Y-128485000D03*
D33*
X148885000Y-128485000D03*
X48490000Y-128485000D03*
D19*
X48975000Y-128485000D03*
D33*
X48490000Y-129985000D03*
D19*
X48975000Y-129985000D03*
D34*
X53275000Y-129985000D03*
D35*
X53760000Y-129985000D03*
D19*
X53275000Y-128485000D03*
D33*
X53760000Y-128485000D03*
X72785000Y-149010000D03*
D19*
X72300000Y-149010000D03*
D33*
X72785000Y-147510000D03*
D19*
X72300000Y-147510000D03*
D37*
X68000000Y-147510000D03*
D41*
X67515000Y-147510000D03*
D19*
X68000000Y-149010000D03*
D33*
X67515000Y-149010000D03*
D42*
X175760000Y-76350000D03*
D19*
X175060000Y-76350000D03*
D42*
X175760000Y-77650000D03*
D19*
X175060000Y-77650000D03*
X173460000Y-77650000D03*
D42*
X172760000Y-77650000D03*
X172760000Y-76350000D03*
X252260000Y-76350000D03*
D19*
X251560000Y-76350000D03*
D42*
X252260000Y-77650000D03*
D19*
X251560000Y-77650000D03*
X249960000Y-77650000D03*
D42*
X249260000Y-77650000D03*
X249260000Y-76350000D03*
D44*
X28095000Y-133650000D03*
D19*
X29000000Y-133650000D03*
D34*
X30440000Y-133650000D03*
D44*
X31345000Y-133650000D03*
D51*
X236910000Y-52240000D03*
D52*
X236935000Y-51690000D03*
X236885000Y-47790000D03*
D40*
X236910000Y-47240000D03*
D33*
X224985000Y-149010000D03*
D19*
X224500000Y-149010000D03*
D33*
X224985000Y-147510000D03*
D19*
X224500000Y-147510000D03*
D37*
X220200000Y-147510000D03*
D41*
X219715000Y-147510000D03*
D19*
X220200000Y-149010000D03*
D33*
X219715000Y-149010000D03*
X29465000Y-128485000D03*
D19*
X29950000Y-128485000D03*
D33*
X29465000Y-129985000D03*
D19*
X29950000Y-129985000D03*
D34*
X34250000Y-129985000D03*
D35*
X34735000Y-129985000D03*
D19*
X34250000Y-128485000D03*
D33*
X34735000Y-128485000D03*
D23*
X49710000Y-53250000D03*
D45*
X49710000Y-50990000D03*
X49710000Y-47890000D03*
D23*
X49710000Y-45630000D03*
D33*
X162640000Y-90435000D03*
D19*
X163125000Y-90435000D03*
D33*
X162640000Y-91935000D03*
D19*
X163125000Y-91935000D03*
D34*
X167425000Y-91935000D03*
D35*
X167910000Y-91935000D03*
D19*
X167425000Y-90435000D03*
D33*
X167910000Y-90435000D03*
X72785000Y-110960000D03*
D19*
X72300000Y-110960000D03*
D33*
X72785000Y-109460000D03*
D19*
X72300000Y-109460000D03*
D37*
X68000000Y-109460000D03*
D41*
X67515000Y-109460000D03*
D19*
X68000000Y-110960000D03*
D33*
X67515000Y-110960000D03*
X148885000Y-72910000D03*
D19*
X148400000Y-72910000D03*
D33*
X148885000Y-71410000D03*
D19*
X148400000Y-71410000D03*
D37*
X144100000Y-71410000D03*
D41*
X143615000Y-71410000D03*
D19*
X144100000Y-72910000D03*
D33*
X143615000Y-72910000D03*
X67515000Y-90435000D03*
D19*
X68000000Y-90435000D03*
D33*
X67515000Y-91935000D03*
D19*
X68000000Y-91935000D03*
D34*
X72300000Y-91935000D03*
D35*
X72785000Y-91935000D03*
D19*
X72300000Y-90435000D03*
D33*
X72785000Y-90435000D03*
D23*
X55150000Y-55190000D03*
D45*
X55150000Y-52930000D03*
X55150000Y-49830000D03*
D23*
X55150000Y-47570000D03*
X236210000Y-44300000D03*
D48*
X238470000Y-44300000D03*
X241570000Y-44300000D03*
D23*
X243830000Y-44300000D03*
D33*
X129860000Y-72910000D03*
D19*
X129375000Y-72910000D03*
D33*
X129860000Y-71410000D03*
D19*
X129375000Y-71410000D03*
D37*
X125075000Y-71410000D03*
D41*
X124590000Y-71410000D03*
D19*
X125075000Y-72910000D03*
D33*
X124590000Y-72910000D03*
X224985000Y-110960000D03*
D19*
X224500000Y-110960000D03*
D33*
X224985000Y-109460000D03*
D19*
X224500000Y-109460000D03*
D37*
X220200000Y-109460000D03*
D41*
X219715000Y-109460000D03*
D19*
X220200000Y-110960000D03*
D33*
X219715000Y-110960000D03*
X86540000Y-128485000D03*
D19*
X87025000Y-128485000D03*
D33*
X86540000Y-129985000D03*
D19*
X87025000Y-129985000D03*
D34*
X91325000Y-129985000D03*
D35*
X91810000Y-129985000D03*
D19*
X91325000Y-128485000D03*
D33*
X91810000Y-128485000D03*
D42*
X118647344Y-76350000D03*
D19*
X117947344Y-76350000D03*
D42*
X118647344Y-77650000D03*
D19*
X117947344Y-77650000D03*
X116347344Y-77650000D03*
D42*
X115647344Y-77650000D03*
X115647344Y-76350000D03*
D33*
X200690000Y-90435000D03*
D19*
X201175000Y-90435000D03*
D33*
X200690000Y-91935000D03*
D19*
X201175000Y-91935000D03*
D34*
X205475000Y-91935000D03*
D35*
X205960000Y-91935000D03*
D19*
X205475000Y-90435000D03*
D33*
X205960000Y-90435000D03*
D36*
X31365000Y-114620000D03*
D19*
X30460000Y-114620000D03*
D37*
X29020000Y-114620000D03*
D36*
X28115000Y-114620000D03*
D33*
X167910000Y-149010000D03*
D19*
X167425000Y-149010000D03*
D33*
X167910000Y-147510000D03*
D19*
X167425000Y-147510000D03*
D37*
X163125000Y-147510000D03*
D41*
X162640000Y-147510000D03*
D19*
X163125000Y-149010000D03*
D33*
X162640000Y-149010000D03*
X129860000Y-149010000D03*
D19*
X129375000Y-149010000D03*
D33*
X129860000Y-147510000D03*
D19*
X129375000Y-147510000D03*
D37*
X125075000Y-147510000D03*
D41*
X124590000Y-147510000D03*
D19*
X125075000Y-149010000D03*
D33*
X124590000Y-149010000D03*
D44*
X259720000Y-95580000D03*
D19*
X260625000Y-95580000D03*
D34*
X262065000Y-95580000D03*
D44*
X262970000Y-95580000D03*
D49*
X177138690Y-45665000D03*
D50*
X177113690Y-46215000D03*
X177163690Y-50115000D03*
D40*
X177138690Y-50665000D03*
D33*
X143615000Y-90435000D03*
D19*
X144100000Y-90435000D03*
D33*
X143615000Y-91935000D03*
D19*
X144100000Y-91935000D03*
D34*
X148400000Y-91935000D03*
D35*
X148885000Y-91935000D03*
D19*
X148400000Y-90435000D03*
D33*
X148885000Y-90435000D03*
D53*
X50650000Y-42390000D03*
D54*
X50100000Y-42365000D03*
X46200000Y-42415000D03*
D40*
X45650000Y-42390000D03*
D33*
X205960000Y-110960000D03*
D19*
X205475000Y-110960000D03*
D33*
X205960000Y-109460000D03*
D19*
X205475000Y-109460000D03*
D37*
X201175000Y-109460000D03*
D41*
X200690000Y-109460000D03*
D19*
X201175000Y-110960000D03*
D33*
X200690000Y-110960000D03*
X186935000Y-149010000D03*
D19*
X186450000Y-149010000D03*
D33*
X186935000Y-147510000D03*
D19*
X186450000Y-147510000D03*
D37*
X182150000Y-147510000D03*
D41*
X181665000Y-147510000D03*
D19*
X182150000Y-149010000D03*
D33*
X181665000Y-149010000D03*
X148885000Y-110960000D03*
D19*
X148400000Y-110960000D03*
D33*
X148885000Y-109460000D03*
D19*
X148400000Y-109460000D03*
D37*
X144100000Y-109460000D03*
D41*
X143615000Y-109460000D03*
D19*
X144100000Y-110960000D03*
D33*
X143615000Y-110960000D03*
D28*
X40160500Y-91415000D03*
D29*
X40160500Y-89255000D03*
X40160500Y-85955000D03*
D30*
X40160500Y-83795000D03*
D53*
X43070000Y-53580000D03*
D54*
X42520000Y-53555000D03*
X38620000Y-53605000D03*
D40*
X38070000Y-53580000D03*
D42*
X43010000Y-76350000D03*
D19*
X42310000Y-76350000D03*
D42*
X43010000Y-77650000D03*
D19*
X42310000Y-77650000D03*
X40710000Y-77650000D03*
D42*
X40010000Y-77650000D03*
X40010000Y-76350000D03*
D33*
X53760000Y-149010000D03*
D19*
X53275000Y-149010000D03*
D33*
X53760000Y-147510000D03*
D19*
X53275000Y-147510000D03*
D37*
X48975000Y-147510000D03*
D41*
X48490000Y-147510000D03*
D19*
X48975000Y-149010000D03*
D33*
X48490000Y-149010000D03*
X257764999Y-128485000D03*
D19*
X258249999Y-128485000D03*
D33*
X257764999Y-129985000D03*
D19*
X258249999Y-129985000D03*
D34*
X262549999Y-129985000D03*
D35*
X263034999Y-129985000D03*
D19*
X262549999Y-128485000D03*
D33*
X263034999Y-128485000D03*
X238739999Y-90435000D03*
D19*
X239224999Y-90435000D03*
D33*
X238739999Y-91935000D03*
D19*
X239224999Y-91935000D03*
D34*
X243524999Y-91935000D03*
D35*
X244009999Y-91935000D03*
D19*
X243524999Y-90435000D03*
D33*
X244009999Y-90435000D03*
D42*
X115670000Y-134550000D03*
D19*
X116370000Y-134550000D03*
D42*
X115670000Y-133250000D03*
D19*
X116370000Y-133250000D03*
X117970000Y-133250000D03*
D42*
X118670000Y-133250000D03*
X118670000Y-134550000D03*
D33*
X91810000Y-149010000D03*
D19*
X91325000Y-149010000D03*
D33*
X91810000Y-147510000D03*
D19*
X91325000Y-147510000D03*
D37*
X87025000Y-147510000D03*
D41*
X86540000Y-147510000D03*
D19*
X87025000Y-149010000D03*
D33*
X86540000Y-149010000D03*
X167910000Y-72910000D03*
D19*
X167425000Y-72910000D03*
D33*
X167910000Y-71410000D03*
D19*
X167425000Y-71410000D03*
D37*
X163125000Y-71410000D03*
D41*
X162640000Y-71410000D03*
D19*
X163125000Y-72910000D03*
D33*
X162640000Y-72910000D03*
X105565000Y-128485000D03*
D19*
X106050000Y-128485000D03*
D33*
X105565000Y-129985000D03*
D19*
X106050000Y-129985000D03*
D34*
X110350000Y-129985000D03*
D35*
X110835000Y-129985000D03*
D19*
X110350000Y-128485000D03*
D33*
X110835000Y-128485000D03*
X129860000Y-110960000D03*
D19*
X129375000Y-110960000D03*
D33*
X129860000Y-109460000D03*
D19*
X129375000Y-109460000D03*
D37*
X125075000Y-109460000D03*
D41*
X124590000Y-109460000D03*
D19*
X125075000Y-110960000D03*
D33*
X124590000Y-110960000D03*
X244009999Y-110960000D03*
D19*
X243524999Y-110960000D03*
D33*
X244009999Y-109460000D03*
D19*
X243524999Y-109460000D03*
D37*
X239224999Y-109460000D03*
D41*
X238739999Y-109460000D03*
D19*
X239224999Y-110960000D03*
D33*
X238739999Y-110960000D03*
X205960000Y-72910000D03*
D19*
X205475000Y-72910000D03*
D33*
X205960000Y-71410000D03*
D19*
X205475000Y-71410000D03*
D37*
X201175000Y-71410000D03*
D41*
X200690000Y-71410000D03*
D19*
X201175000Y-72910000D03*
D33*
X200690000Y-72910000D03*
M02*
